<svg width="295" height="275" viewBox="0 0 295 275" fill="none" xmlns="http://www.w3.org/2000/svg">
<path d="M147.207 274.202C228.475 274.202 294.357 240.475 294.357 198.87C294.357 157.265 228.475 123.538 147.207 123.538C65.938 123.538 0.0566406 157.265 0.0566406 198.87C0.0566406 240.475 65.938 274.202 147.207 274.202Z" fill="#FAFAFA"/>
<path d="M231.096 247.501C253.238 247.501 271.188 236.413 271.188 222.735C271.188 209.058 253.238 197.97 231.096 197.97C208.954 197.97 191.004 209.058 191.004 222.735C191.004 236.413 208.954 247.501 231.096 247.501Z" fill="#E0E0E0"/>
<path d="M135.924 178.297L110.234 163.47C109.807 163.251 109.335 163.137 108.856 163.137C108.377 163.137 107.904 163.251 107.478 163.47L22.3307 212.637C22.1639 212.693 22.0188 212.799 21.916 212.942C21.8131 213.085 21.7578 213.256 21.7578 213.432C21.7578 213.608 21.8131 213.779 21.916 213.922C22.0188 214.065 22.1639 214.172 22.3307 214.227L48.0148 229.061C48.4427 229.275 48.9144 229.386 49.3927 229.386C49.871 229.386 50.3428 229.275 50.7706 229.061L58.3599 224.677L128.328 184.388L135.93 179.918C136.102 179.863 136.252 179.754 136.358 179.608C136.464 179.462 136.52 179.286 136.52 179.105C136.519 178.925 136.461 178.749 136.354 178.604C136.247 178.458 136.096 178.351 135.924 178.297V178.297Z" fill="#E0E0E0"/>
<path d="M251.41 213.525L247.439 211.416C247.439 211.416 247.828 192.033 251.848 177.021C255.966 161.651 267.951 144.672 279.276 151.034C290.602 157.397 270.472 170.473 264.418 183.093C258.364 195.713 251.41 213.525 251.41 213.525Z" fill="#407BFF"/>
<path opacity="0.15" d="M251.41 213.525L247.439 211.416C247.439 211.416 247.828 192.033 251.848 177.021C255.966 161.651 267.951 144.672 279.276 151.034C290.602 157.397 270.472 170.473 264.418 183.093C258.364 195.713 251.41 213.525 251.41 213.525Z" fill="black"/>
<path d="M250.887 208.925C250.834 208.924 250.782 208.912 250.734 208.89C250.686 208.869 250.643 208.838 250.607 208.799C250.571 208.761 250.543 208.716 250.524 208.667C250.505 208.617 250.497 208.565 250.498 208.512C251.349 178.432 264.499 160.066 275.504 153.482C275.596 153.427 275.705 153.411 275.809 153.437C275.912 153.463 276.001 153.529 276.056 153.621C276.111 153.712 276.127 153.822 276.101 153.925C276.075 154.029 276.009 154.118 275.917 154.173C265.085 160.652 252.144 178.778 251.3 208.531C251.299 208.584 251.288 208.636 251.266 208.685C251.245 208.734 251.214 208.778 251.176 208.815C251.137 208.851 251.092 208.88 251.042 208.899C250.993 208.918 250.94 208.927 250.887 208.925V208.925Z" fill="white"/>
<path d="M253.203 214.449L249.658 212.631C249.658 212.631 250.096 203.112 257.389 190.707C263.863 179.69 276.982 171.059 282.494 174.135C286.772 176.515 287.759 181.731 283.659 185.202C279.559 188.673 260.632 195.954 253.203 214.449Z" fill="#407BFF"/>
<path d="M251.78 211.41C252.397 211.533 252.612 210.01 252.736 209.622C252.97 208.895 253.217 208.179 253.488 207.464C254.019 206.073 254.622 204.711 255.294 203.383C256.589 200.828 258.105 198.392 259.826 196.102C261.434 193.958 263.187 191.927 265.072 190.023C266.774 188.311 268.564 186.689 270.436 185.165C272.002 183.882 273.63 182.668 275.3 181.527C276.533 180.689 277.766 179.887 279.055 179.135C279.727 178.741 280.399 178.352 281.096 177.995L281.293 177.896C281.403 177.842 281.488 177.747 281.527 177.63C281.567 177.514 281.559 177.387 281.506 177.276C281.452 177.166 281.356 177.082 281.24 177.042C281.124 177.002 280.996 177.01 280.886 177.064C280.454 177.273 280.041 177.508 279.653 177.742C278.568 178.358 277.507 178.975 276.465 179.665C274.92 180.664 273.412 181.721 271.94 182.834C270.115 184.215 268.362 185.681 266.681 187.23C264.765 188.985 262.961 190.859 261.281 192.84C259.459 194.977 257.809 197.255 256.349 199.653C254.795 202.191 253.494 204.875 252.465 207.668C252.271 208.206 252.086 208.742 251.91 209.277C251.65 209.81 251.493 210.387 251.447 210.978C251.455 211.072 251.488 211.162 251.544 211.238C251.599 211.315 251.675 211.374 251.762 211.41H251.78Z" fill="white"/>
<path d="M50.5925 196.62C50.5925 196.62 50.6911 184.53 45.9378 174.524C41.1844 164.518 33.7492 157.748 26.2093 156.201C18.6693 154.653 11.715 160.88 19.2365 166.682C26.7579 172.483 40.5741 179.197 44.9883 197.988L50.5925 196.62Z" fill="#407BFF"/>
<path opacity="0.15" d="M50.5925 196.62C50.5925 196.62 50.6911 184.53 45.9378 174.524C41.1844 164.518 33.7492 157.748 26.2093 156.201C18.6693 154.653 11.715 160.88 19.2365 166.682C26.7579 172.483 40.5741 179.197 44.9883 197.988L50.5925 196.62Z" fill="black"/>
<path d="M47.4492 194.53C47.3705 194.53 47.2948 194.5 47.2375 194.446C47.1802 194.392 47.1456 194.318 47.1409 194.24C45.9818 174.887 30.0387 162.304 22.1597 160.159C22.0814 160.137 22.0149 160.086 21.9745 160.015C21.9341 159.945 21.9231 159.861 21.9439 159.783C21.9656 159.703 22.0179 159.635 22.0894 159.593C22.161 159.552 22.246 159.54 22.3261 159.561C30.3408 161.75 46.5799 174.542 47.7574 194.203C47.7593 194.284 47.7305 194.363 47.6768 194.423C47.623 194.484 47.5483 194.522 47.4676 194.53H47.4492Z" fill="white"/>
<path d="M51.5657 213.216C53.093 211.289 54.1179 209.013 54.5483 206.592C54.9787 204.17 54.8012 201.68 54.0317 199.345C53.5842 197.934 52.8683 196.624 51.9233 195.485C51.165 194.591 50.0737 194.129 49.1859 193.383C47.2747 191.799 45.0553 190.115 44.3648 187.6C43.8099 185.596 43.9271 183.697 42.8173 181.817C42.1635 180.64 41.1222 179.725 39.8704 179.228C38.2366 178.611 36.4364 179.018 34.7101 179.228C32.2441 179.505 30.3945 178.654 28.2614 177.52C25.9125 176.287 23.169 175.313 20.6227 176.071C19.7947 176.317 19.0274 176.733 18.3706 177.294C17.7138 177.855 17.1822 178.547 16.8102 179.327C16.4382 180.106 16.2341 180.955 16.2112 181.819C16.1882 182.682 16.3469 183.541 16.677 184.339C17.2442 185.72 18.2923 186.842 19.063 188.124C19.8336 189.406 20.2405 190.874 19.6795 192.273C19.2479 193.309 18.4464 194.123 18.1259 195.177C17.2134 197.951 17.7251 200.417 20.4809 201.848C23.3601 203.321 27.8791 202.211 29.3218 205.83C29.8643 207.205 29.8828 208.728 30.1787 210.177C30.7862 213.093 32.4814 215.667 34.9198 217.378C38.2304 219.677 42.7248 219.116 46.1588 217.513C48.2686 216.517 50.1191 215.047 51.5657 213.216V213.216Z" fill="#407BFF"/>
<path d="M25.6111 195.707C25.6785 195.719 25.7477 195.708 25.8084 195.676C28.2366 194.738 30.8426 194.348 33.4391 194.536C36.0357 194.723 38.5586 195.483 40.8267 196.761C40.9044 196.803 40.9954 196.812 41.0798 196.787C41.1641 196.761 41.235 196.703 41.2768 196.626C41.2984 196.588 41.3122 196.546 41.3174 196.503C41.3226 196.459 41.3191 196.415 41.307 196.373C41.295 196.331 41.2746 196.292 41.2472 196.258C41.2197 196.224 41.1858 196.196 41.1473 196.176C38.7909 194.852 36.1705 194.068 33.4746 193.878C30.7786 193.688 28.0742 194.098 25.5556 195.078C25.4964 195.111 25.4484 195.161 25.4182 195.221C25.3879 195.281 25.3767 195.349 25.386 195.416C25.3954 195.483 25.4249 195.546 25.4706 195.595C25.5163 195.645 25.5761 195.68 25.6419 195.695L25.6111 195.707Z" fill="white"/>
<path d="M47.1405 213.321C47.0598 213.323 46.9816 213.293 46.9228 213.237C46.8641 213.182 46.8293 213.106 46.8261 213.025C46.2527 199.092 32.264 184.357 22.8868 180.35C22.8489 180.334 22.8145 180.311 22.7856 180.282C22.7566 180.254 22.7338 180.219 22.7183 180.181C22.7028 180.143 22.695 180.103 22.6953 180.062C22.6957 180.021 22.7042 179.981 22.7203 179.943C22.7541 179.867 22.8164 179.808 22.8938 179.778C22.9712 179.748 23.0573 179.749 23.1334 179.783C32.6586 183.864 46.8631 198.845 47.4488 213.013C47.4504 213.054 47.4439 213.095 47.4296 213.134C47.4153 213.173 47.3935 213.208 47.3655 213.239C47.3374 213.269 47.3037 213.294 47.2661 213.311C47.2286 213.328 47.188 213.338 47.1467 213.34L47.1405 213.321Z" fill="white"/>
<path d="M124.353 14.2296L54.5761 54.5004C53.8851 54.9515 53.3109 55.5599 52.9004 56.2757C52.49 56.9916 52.255 57.7945 52.2148 58.6187V222.939C52.2148 224.443 53.2753 225.053 54.5761 224.295L124.353 184.012C125.04 183.562 125.611 182.957 126.021 182.246C126.431 181.535 126.669 180.738 126.715 179.918V15.5736C126.715 14.0693 125.654 13.4528 124.353 14.2296ZM123.318 167.742C123.318 169.031 122.411 169.851 121.295 170.492L57.3997 207.396C56.29 208.013 55.3776 207.52 55.3776 206.225V69.5742C55.3778 68.8677 55.5643 68.1736 55.9182 67.5621C56.2722 66.9505 56.781 66.4431 57.3936 66.0909L121.289 29.1801C121.494 29.061 121.727 28.998 121.964 28.9974C122.201 28.9969 122.434 29.0587 122.64 29.1768C122.846 29.295 123.016 29.4651 123.135 29.6703C123.254 29.8754 123.317 30.1082 123.318 30.3453V30.3453V167.742Z" fill="#455A64"/>
<path d="M123.317 167.742C123.317 169.031 122.411 169.851 121.295 170.492L57.3991 207.396C56.2894 208.013 55.377 207.52 55.377 206.225V69.5742C55.3772 68.8677 55.5637 68.1736 55.9176 67.5621C56.2716 66.9506 56.7804 66.4431 57.393 66.0909L121.289 29.1801C121.494 29.061 121.726 28.998 121.964 28.9974C122.201 28.9969 122.434 29.0588 122.639 29.1769C122.845 29.295 123.016 29.4652 123.135 29.6703C123.254 29.8754 123.317 30.1082 123.317 30.3453V30.3453V167.742Z" fill="#263238"/>
<path d="M57.3991 207.396L121.295 170.504C121.743 170.262 122.158 169.961 122.528 169.61L55.377 131.793V206.225C55.377 207.52 56.2894 208.038 57.3991 207.396Z" fill="#37474F"/>
<path d="M118.144 165.344V30.9988L57.393 66.0909C56.7804 66.4431 56.2716 66.9506 55.9176 67.5621C55.5637 68.1737 55.3772 68.8677 55.377 69.5743V203.167L116.122 168.094C117.238 167.452 118.144 166.632 118.144 165.344Z" fill="#407BFF"/>
<path d="M54.2795 224.462C53.5749 224.759 52.8142 224.899 52.05 224.874C51.2857 224.848 50.5361 224.657 49.8529 224.314L47.1526 222.754C46.4635 222.308 45.8898 221.705 45.4783 220.994C45.0669 220.284 44.8293 219.486 44.7852 218.666V54.3031C44.8007 53.694 44.9391 53.0943 45.1921 52.5399C45.2784 52.3488 45.3708 52.1638 45.4757 51.9727L52.8738 56.2883C52.7184 56.5662 52.5824 56.8546 52.4669 57.1514C52.2874 57.6183 52.1893 58.1125 52.1772 58.6126V222.939C52.2142 224.326 53.1143 224.955 54.2795 224.462Z" fill="#263238"/>
<path d="M91.5474 191.355C93.0579 191.355 93.2181 193.05 93.2181 193.778C93.1279 195.235 92.7006 196.652 91.9699 197.916C91.2393 199.181 90.2251 200.259 89.0073 201.065C88.5187 201.375 87.9579 201.554 87.3797 201.583C85.8693 201.583 85.709 199.887 85.709 199.16C85.8 197.702 86.2269 196.285 86.9563 195.02C87.6857 193.755 88.6978 192.675 89.9136 191.866C90.4064 191.561 90.9684 191.385 91.5474 191.355Z" fill="#407BFF"/>
<path d="M89.4149 36.9852C90.0314 36.6153 90.5678 36.9112 90.5678 37.651C90.5454 38.051 90.4294 38.4401 90.2292 38.787C90.029 39.134 89.75 39.4291 89.4149 39.6485C88.7984 40.0123 88.2559 39.7163 88.2559 38.9827C88.277 38.5817 88.3931 38.1915 88.5946 37.8442C88.7961 37.4969 89.0773 37.2025 89.4149 36.9852V36.9852Z" fill="#263238"/>
<path d="M81.9668 46.72C82.534 46.3932 82.9902 46.6584 82.9902 47.3365C82.9714 47.6913 82.8689 48.0366 82.691 48.3441C82.5131 48.6517 82.2649 48.9127 81.9668 49.1059C81.3996 49.4327 80.9434 49.1676 80.9434 48.4894C80.9631 48.1349 81.0661 47.7899 81.2439 47.4825C81.4217 47.1752 81.6693 46.9139 81.9668 46.72V46.72Z" fill="#263238"/>
<path d="M85.3883 44.6978L96.8493 38.0826C97.4658 37.7188 97.9837 37.9778 97.9837 38.6559C97.9537 39.0368 97.8356 39.4054 97.6387 39.7328C97.4418 40.0602 97.1716 40.3374 96.8493 40.5425L85.3883 47.1577C84.7718 47.5214 84.2539 47.2625 84.2539 46.5843C84.2839 46.2035 84.4021 45.8348 84.5989 45.5074C84.7958 45.1801 85.066 44.9029 85.3883 44.6978Z" fill="#263238"/>
<path d="M126.689 15.1975C126.516 13.9645 125.536 13.5268 124.358 14.2111L54.5686 54.5004C53.8703 54.9339 53.2967 55.5415 52.9041 56.2636L45.5059 51.948C45.9046 51.2317 46.4797 50.629 47.1766 50.1971L116.923 9.91397C117.655 9.54295 118.464 9.34961 119.284 9.34961C120.105 9.34961 120.914 9.54295 121.646 9.91397L124.358 11.4676C124.99 11.887 125.525 12.4368 125.927 13.0802C126.329 13.7235 126.589 14.4455 126.689 15.1975V15.1975Z" fill="#37474F"/>
<path d="M108.386 20.1851C108.023 20.3785 107.621 20.4833 107.21 20.4908C106.8 20.4983 106.393 20.4083 106.024 20.2282C105.901 20.1755 105.794 20.0904 105.714 19.9819C105.635 19.8734 105.587 19.7455 105.574 19.6117C105.574 19.4391 105.574 18.7979 105.574 18.6191C105.594 18.4653 105.653 18.3192 105.746 18.195C105.839 18.0707 105.962 17.9726 106.104 17.9101L113.583 13.5945C113.946 13.4025 114.35 13.2985 114.761 13.291C115.173 13.2835 115.58 13.3727 115.95 13.5514C116.071 13.6065 116.176 13.6925 116.254 13.8006C116.332 13.9087 116.38 14.0354 116.394 14.1679C116.394 14.3467 116.394 15.0125 116.394 15.1851C116.375 15.3399 116.316 15.487 116.223 15.6123C116.13 15.7376 116.006 15.8368 115.864 15.9003L108.386 20.1851Z" fill="#407BFF"/>
<path opacity="0.25" d="M108.386 20.1851C108.023 20.3785 107.621 20.4833 107.21 20.4908C106.8 20.4983 106.393 20.4083 106.024 20.2282C105.901 20.1755 105.794 20.0904 105.714 19.9819C105.635 19.8734 105.587 19.7455 105.574 19.6117C105.574 19.4391 105.574 18.7979 105.574 18.6191C105.594 18.4653 105.653 18.3192 105.746 18.195C105.839 18.0707 105.962 17.9726 106.104 17.9101L113.583 13.5945C113.946 13.4025 114.35 13.2985 114.761 13.291C115.173 13.2835 115.58 13.3727 115.95 13.5514C116.071 13.6065 116.176 13.6925 116.254 13.8006C116.332 13.9087 116.38 14.0354 116.394 14.1679C116.394 14.3467 116.394 15.0125 116.394 15.1851C116.375 15.3399 116.316 15.487 116.223 15.6123C116.13 15.7376 116.006 15.8368 115.864 15.9003L108.386 20.1851Z" fill="black"/>
<path d="M108.386 19.2048L115.864 14.8892C116.542 14.4946 116.573 13.8843 115.944 13.5206C115.574 13.3419 115.166 13.2527 114.755 13.2602C114.344 13.2677 113.94 13.3717 113.577 13.5637L106.098 17.8793C105.426 18.2677 105.389 18.8781 106.024 19.2418C106.393 19.4214 106.799 19.5116 107.209 19.5052C107.62 19.4987 108.023 19.3959 108.386 19.2048V19.2048Z" fill="#407BFF"/>
<path opacity="0.3" d="M108.386 19.2048L115.864 14.8892C116.542 14.4946 116.573 13.8843 115.944 13.5206C115.574 13.3419 115.166 13.2527 114.755 13.2602C114.344 13.2677 113.94 13.3717 113.577 13.5637L106.098 17.8793C105.426 18.2677 105.389 18.8781 106.024 19.2418C106.393 19.4214 106.799 19.5116 107.209 19.5052C107.62 19.4987 108.023 19.3959 108.386 19.2048V19.2048Z" fill="black"/>
<path d="M49.4577 79.0686C49.4431 78.6583 49.3316 78.2572 49.1323 77.8983C48.9329 77.5393 48.6515 77.2326 48.311 77.0033C48.1994 76.9209 48.0672 76.8709 47.929 76.8589C47.7909 76.847 47.6521 76.8735 47.528 76.9354C47.3862 77.0217 46.819 77.3362 46.671 77.4286C46.5472 77.5224 46.4498 77.6467 46.3882 77.7893C46.3266 77.9319 46.303 78.088 46.3196 78.2424V96.5653C46.3345 96.9749 46.4455 97.3752 46.6436 97.734C46.8418 98.0927 47.1215 98.3999 47.4602 98.6306C47.5716 98.7056 47.7005 98.7507 47.8344 98.7615C47.9682 98.7723 48.1026 98.7484 48.2247 98.6923C48.3849 98.6121 48.9583 98.2792 49.1124 98.1867C49.2363 98.0929 49.3337 97.9687 49.3953 97.8261C49.4568 97.6835 49.4805 97.5274 49.4639 97.3729L49.4577 79.0686Z" fill="#407BFF"/>
<path opacity="0.3" d="M49.4577 79.0686C49.4431 78.6583 49.3316 78.2572 49.1323 77.8983C48.9329 77.5393 48.6515 77.2326 48.311 77.0033C48.1994 76.9209 48.0672 76.8709 47.929 76.8589C47.7909 76.847 47.6521 76.8735 47.528 76.9354C47.3862 77.0217 46.819 77.3362 46.671 77.4286C46.5472 77.5224 46.4498 77.6467 46.3882 77.7893C46.3266 77.9319 46.303 78.088 46.3196 78.2424V96.5653C46.3345 96.9749 46.4455 97.3752 46.6436 97.734C46.8418 98.0927 47.1215 98.3999 47.4602 98.6306C47.5716 98.7056 47.7005 98.7507 47.8344 98.7615C47.9682 98.7723 48.1026 98.7484 48.2247 98.6923C48.3849 98.6121 48.9583 98.2792 49.1124 98.1867C49.2363 98.0929 49.3337 97.9687 49.3953 97.8261C49.4568 97.6835 49.4805 97.5274 49.4639 97.3729L49.4577 79.0686Z" fill="black"/>
<path d="M48.6076 79.5803V97.9031C48.6076 98.68 48.0959 99.0129 47.4609 98.6491C47.1222 98.4184 46.8424 98.1112 46.6443 97.7525C46.4462 97.3937 46.3352 96.9934 46.3203 96.5838V78.2425C46.3203 77.4595 46.832 77.1266 47.4609 77.4903C47.804 77.7228 48.087 78.0336 48.2863 78.397C48.4857 78.7604 48.5958 79.166 48.6076 79.5803V79.5803Z" fill="#407BFF"/>
<path opacity="0.4" d="M48.6076 79.5803V97.9031C48.6076 98.68 48.0959 99.0129 47.4609 98.6491C47.1222 98.4184 46.8424 98.1112 46.6443 97.7525C46.4462 97.3937 46.3352 96.9934 46.3203 96.5838V78.2425C46.3203 77.4595 46.832 77.1266 47.4609 77.4903C47.804 77.7228 48.087 78.0336 48.2863 78.397C48.4857 78.7604 48.5958 79.166 48.6076 79.5803V79.5803Z" fill="black"/>
<path d="M49.4577 103.624C49.4431 103.214 49.3316 102.813 49.1323 102.454C48.9329 102.095 48.6515 101.788 48.311 101.559C48.1994 101.477 48.0672 101.427 47.929 101.415C47.7909 101.403 47.6521 101.429 47.528 101.491C47.3862 101.578 46.819 101.892 46.671 101.984C46.5472 102.078 46.4498 102.203 46.3882 102.345C46.3266 102.488 46.303 102.644 46.3196 102.798V111.43C46.3355 111.838 46.4469 112.237 46.645 112.595C46.8431 112.952 47.1223 113.259 47.4602 113.489C47.568 113.568 47.6951 113.618 47.8284 113.632C47.9618 113.646 48.0964 113.624 48.2185 113.569C48.3788 113.489 48.9521 113.156 49.1063 113.063C49.2296 112.97 49.3268 112.847 49.3883 112.706C49.4499 112.564 49.4738 112.409 49.4577 112.256V103.624Z" fill="#407BFF"/>
<path opacity="0.3" d="M49.4577 103.624C49.4431 103.214 49.3316 102.813 49.1323 102.454C48.9329 102.095 48.6515 101.788 48.311 101.559C48.1994 101.477 48.0672 101.427 47.929 101.415C47.7909 101.403 47.6521 101.429 47.528 101.491C47.3862 101.578 46.819 101.892 46.671 101.984C46.5472 102.078 46.4498 102.203 46.3882 102.345C46.3266 102.488 46.303 102.644 46.3196 102.798V111.43C46.3355 111.838 46.4469 112.237 46.645 112.595C46.8431 112.952 47.1223 113.259 47.4602 113.489C47.568 113.568 47.6951 113.618 47.8284 113.632C47.9618 113.646 48.0964 113.624 48.2185 113.569C48.3788 113.489 48.9521 113.156 49.1063 113.063C49.2296 112.97 49.3268 112.847 49.3883 112.706C49.4499 112.564 49.4738 112.409 49.4577 112.256V103.624Z" fill="black"/>
<path d="M48.6076 104.087V112.718C48.6076 113.495 48.0959 113.834 47.4609 113.464C47.1222 113.233 46.8424 112.926 46.6443 112.567C46.4462 112.209 46.3352 111.808 46.3203 111.399V102.767C46.3203 101.991 46.832 101.652 47.4609 102.015C47.8008 102.247 48.0817 102.555 48.2809 102.914C48.4801 103.274 48.592 103.676 48.6076 104.087V104.087Z" fill="#407BFF"/>
<path opacity="0.4" d="M48.6076 104.087V112.718C48.6076 113.495 48.0959 113.834 47.4609 113.464C47.1222 113.233 46.8424 112.926 46.6443 112.567C46.4462 112.209 46.3352 111.808 46.3203 111.399V102.767C46.3203 101.991 46.832 101.652 47.4609 102.015C47.8008 102.247 48.0817 102.555 48.2809 102.914C48.4801 103.274 48.592 103.676 48.6076 104.087V104.087Z" fill="black"/>
<path d="M69.8902 88.3286C69.9514 88.628 70.0339 88.9226 70.1368 89.2103C70.5375 90.2953 71.2588 91.3187 71.1972 92.4778C71.1293 93.7848 70.0998 94.7959 69.3106 95.8378C68.2851 97.2154 67.6015 98.817 67.3164 100.511C67.0313 102.204 67.1527 103.941 67.6707 105.579C68.4287 107.573 69.4801 109.443 70.7903 111.127L73.768 115.351C74.6684 116.533 75.8176 117.503 77.1342 118.193C79.693 119.639 82.5479 120.482 85.4818 120.659C90.3044 120.984 95.1014 119.727 99.1438 117.077C103.429 114.241 101.542 106.966 105.926 104.309C111.228 101.103 113.755 89.9686 107.257 85.32C107.257 85.32 108.305 78.5014 106.382 76.7628C104.465 75.1588 102.093 74.197 99.6001 74.0131C96.1599 73.6556 92.7136 74.3276 89.2796 74.3152C85.7445 74.3038 82.2125 74.5242 78.7063 74.9749C77.4733 75.1414 75.7347 75.5914 75.0689 76.7936C74.8809 77.2651 74.8296 77.7801 74.9209 78.2794C74.9114 79.0716 74.6282 79.8361 74.1195 80.4434C73.355 81.3682 72.2699 81.9909 71.4561 82.8601C70.7846 83.585 70.2929 84.4577 70.0209 85.4076C69.7489 86.3576 69.7041 87.3582 69.8902 88.3286V88.3286Z" fill="#263238"/>
<path d="M104.105 98.1682C109.654 98.3223 110.375 99.5061 115.345 104.426C119.475 108.513 133.162 121.146 133.162 121.146L149.561 125.511L145.689 135.517C145.689 135.517 141.99 135.363 134.592 135.356C130.048 135.356 128.47 134.339 123.896 131.287C121.565 129.728 108.415 121.121 108.415 121.121L104.105 98.1682Z" fill="#E6E6E6"/>
<path d="M167.706 105.277L137.651 115.868L129.365 151.626L130.037 152.342L158.613 141.682L168.372 105.992L167.706 105.277Z" fill="#407BFF"/>
<path opacity="0.35" d="M138.317 116.584L130.037 152.341L129.365 151.626L137.651 115.868L138.317 116.584Z" fill="black"/>
<path opacity="0.25" d="M168.372 105.992L138.317 116.584L130.037 152.341L158.613 141.682L168.372 105.992Z" fill="black"/>
<g opacity="0.2">
<path opacity="0.2" d="M154.143 134.407C154.42 135.11 156.726 136.657 160.061 136.38L160.622 134.321L154.143 134.407Z" fill="black"/>
</g>
<g opacity="0.1">
<path opacity="0.1" d="M159.321 113.316L159.568 112.114C159.704 111.454 157.94 111.799 155.628 112.891L150.203 114.531C147.891 115.622 145.709 116.436 145.567 117.095L145.32 118.291L159.321 113.316Z" fill="black"/>
</g>
<path d="M161.11 107.891C161.197 107.478 160.494 107.564 159.551 107.817L157.818 108.402C157.818 108.402 158.527 106.664 154.427 107.786C149.921 109.019 149.822 111.257 149.822 111.257C149.117 111.563 148.394 111.826 147.658 112.046C146.16 112.533 146 112.823 145.876 113.242L145.654 114L160.975 108.612C160.975 108.612 161.049 108.304 161.11 107.891Z" fill="#37474F"/>
<path d="M159.494 110.19C158.076 110.807 157.49 111.146 157.274 112.169C157.034 113.335 156.985 113.822 156.985 113.822L149.007 116.966C149.007 116.966 149.439 115.246 149.543 114.672C149.648 114.099 148.594 114.099 147.213 114.734L147.54 113.304L159.95 108.698L159.494 110.19Z" fill="#37474F"/>
<path d="M159.729 113.334C159.729 113.334 159.846 112.798 159.982 112.132C160.118 111.466 158.354 111.818 156.043 112.909L150.617 114.549C148.305 115.64 146.117 116.454 145.981 117.114L145.734 118.347L159.729 113.334Z" fill="#37474F"/>
<path d="M165.031 118.223C165.031 118.223 163.965 122.145 163.681 123.156C163.398 124.167 158.478 126.417 156.018 126.725C151.308 127.311 150.771 128.328 151.9 131.657C152.948 134.74 156.012 135.911 160.266 135.412C162.263 135.178 165.019 133.408 166.104 130.32C167.485 126.374 166.721 122.163 167.294 119.839C167.867 117.514 166.227 116.849 165.031 118.223Z" fill="#FFA8A7"/>
<path d="M118.458 172.144L115.271 173.994L113.933 174.764L96.399 184.881L94.0069 186.238L89.9688 188.568L91.2018 175.985L93.5569 151.62V151.367L93.6678 150.276L96.7504 118.421L98.1006 104.481L98.5753 99.4814L98.7356 97.8661H98.8219C100.25 97.4689 101.759 97.4689 103.187 97.8661C103.505 97.9626 103.815 98.0864 104.112 98.236C105.961 99.1546 107.194 100.943 108.218 102.823C108.469 103.281 108.696 103.752 108.896 104.235C109.656 106.062 110.242 107.957 110.647 109.894V109.894C111.454 113.47 112.496 117.126 112.909 122.89C112.974 124.374 112.896 125.861 112.675 127.329C112.675 127.329 112.675 127.329 112.675 127.329C112.397 131.215 112.35 135.115 112.533 139.006C113.051 147.822 115.271 151.817 118.458 172.144Z" fill="#E0E0E0"/>
<path d="M113.933 174.752L96.3995 184.869L94.0075 186.238L89.9693 188.568L87.1888 190.171L70.3086 199.912C70.4874 193.13 70.5675 185.775 70.4072 178.827C70.3579 176.503 70.3394 174.129 70.4381 171.7C70.7586 163.266 72.3616 154.222 78.1075 144.703L78.3726 144.222C79.0508 148.248 85.2159 150.862 90.7646 151.478L91.3811 151.534C92.0778 151.602 92.7991 151.633 93.5451 151.633H94.0136C98.7053 151.589 104.26 150.486 110.66 148.322C111.276 151.898 111.893 156.589 112.552 162.076C112.848 164.542 113.148 167.171 113.452 169.962C113.576 171.521 113.767 173.118 113.933 174.752Z" fill="#FFA8A7"/>
<path d="M115.271 173.981L113.933 174.752L96.3995 184.869L94.0074 186.238L89.9692 188.568L87.1887 190.171L70.3085 199.912L68.459 200.978C68.5515 193.679 68.6131 186.527 68.6069 182.039C68.6069 177.865 68.6994 174.154 68.9275 170.862C69.3776 164.364 70.3147 159.475 71.8806 155.776C73.718 151.727 75.8917 147.84 78.3787 144.154C78.3787 144.154 79.92 149.358 91.4489 150.178H91.5228C92.201 150.227 92.9162 150.258 93.6683 150.27H94.5438C108.896 150.27 110.481 146.651 110.481 146.651C111.883 151.973 112.992 157.367 113.804 162.81C114.108 164.733 114.402 166.789 114.685 168.975C114.895 170.578 115.092 172.243 115.271 173.981Z" fill="#407BFF"/>
<path opacity="0.4" d="M115.271 173.981L113.933 174.752L96.3995 184.869L94.0074 186.238L89.9692 188.568L87.1887 190.171L70.3085 199.912L68.459 200.978C68.5515 193.679 68.6131 186.527 68.6069 182.039C68.6069 177.865 68.6994 174.154 68.9275 170.862C69.3776 164.364 70.3147 159.475 71.8806 155.776C73.718 151.727 75.8917 147.84 78.3787 144.154C78.3787 144.154 79.92 149.358 91.4489 150.178H91.5228C92.201 150.227 92.9162 150.258 93.6683 150.27H94.5438C108.896 150.27 110.481 146.651 110.481 146.651C111.883 151.973 112.992 157.367 113.804 162.81C114.108 164.733 114.402 166.789 114.685 168.975C114.895 170.578 115.092 172.243 115.271 173.981Z" fill="black"/>
<path opacity="0.2" d="M107.041 165.8C107.041 165.8 105.438 170.892 98.6933 173.747L98.3727 175.307L96.3999 184.869L94.0078 186.238L95.4381 175.689L96.0547 171.102C100.223 170.67 104.109 168.794 107.041 165.8Z" fill="black"/>
<path d="M86.5286 99.3396L79.747 100.055C75.2587 101.152 73.2304 103.137 72.768 107.102C72.5522 108.951 71.4363 113.883 73.0023 120.048C74.4203 125.646 78.2057 139.345 78.2057 139.345C78.2057 139.345 69.4943 150.714 67.916 170.208C83.8591 180.615 108.316 175.023 114.932 168.735C114.377 162.779 110.573 146.435 110.098 141.127C110.098 141.127 110.449 132.835 111.109 129.241C116.152 123.735 115.511 118.47 113.248 114.222C109.068 106.38 102.768 99.4876 100.727 99.4937L86.5286 99.3396Z" fill="#407BFF"/>
<path opacity="0.7" d="M86.5286 99.3396L79.747 100.055C75.2587 101.152 73.2304 103.137 72.768 107.102C72.5522 108.951 71.4363 113.883 73.0023 120.048C74.4203 125.646 78.2057 139.345 78.2057 139.345C78.2057 139.345 69.4943 150.714 67.916 170.208C83.8591 180.615 108.316 175.023 114.932 168.735C114.377 162.779 110.573 146.435 110.098 141.127C110.098 141.127 110.449 132.835 111.109 129.241C116.152 123.735 115.511 118.47 113.248 114.222C109.068 106.38 102.768 99.4876 100.727 99.4937L86.5286 99.3396Z" fill="white"/>
<path d="M92.4043 141.787C92.4043 141.91 92.4043 142.021 92.4043 142.113V142.274C92.4082 142.325 92.4082 142.377 92.4043 142.428V142.428C92.17 144.894 91.8926 147.514 91.5966 150.184C91.5966 150.184 91.5966 150.184 91.5966 150.221C91.5535 150.652 91.5041 151.084 91.4548 151.522C90.5485 159.567 89.4696 168.167 88.6373 175.997C88.4339 177.896 88.2489 179.746 88.0825 181.546C87.8235 184.24 87.5461 187.193 87.2625 190.177L70.3823 199.918L68.5328 200.985L63.8164 203.703C64.7658 194.363 66.9791 172.723 68.2122 162.958C68.354 161.854 68.5389 160.751 68.7485 159.653L68.915 158.852L68.989 158.525C69.0691 158.155 69.1493 157.798 69.2356 157.434C69.3219 157.07 69.402 156.762 69.4822 156.435C69.6733 155.689 69.8768 154.956 70.0987 154.24C70.2035 153.895 70.3022 153.55 70.4131 153.211C70.5241 152.872 70.6166 152.533 70.7276 152.2C70.9495 151.534 71.1653 150.88 71.3934 150.245C71.3907 150.233 71.3907 150.221 71.3934 150.208C71.4982 149.906 71.6092 149.592 71.7201 149.308C71.8681 148.889 72.0222 148.482 72.1764 148.075L72.3613 147.588C72.4538 147.366 72.5339 147.15 72.6203 146.935C72.9224 146.176 73.2368 145.455 73.5142 144.783C73.5759 144.635 73.6437 144.487 73.7053 144.345C73.767 144.203 73.8656 143.994 73.9396 143.821C74.1246 143.39 74.3095 142.989 74.4883 142.588C74.5623 142.416 74.6424 142.249 74.7164 142.089C74.7904 141.929 74.8952 141.719 74.9753 141.546L75.0925 141.3L75.2158 141.059C75.2239 141.028 75.2386 140.998 75.2589 140.973C75.2758 140.928 75.2964 140.885 75.3206 140.843C75.3355 140.816 75.3479 140.787 75.3576 140.757C75.4089 140.67 75.4542 140.579 75.4932 140.486L75.9063 139.684C75.9063 139.641 75.9494 139.61 75.9618 139.573L76.1221 139.278L70.9926 118.008L68.4403 107.441V107.268C68.5574 106.331 69.3404 101.91 73.8533 100.566C76.4011 99.9088 79.0109 99.5203 81.6399 99.4074C82.651 99.3458 83.5634 99.3211 84.3094 99.3026H85.4869H86.1959C86.1976 99.317 86.1976 99.3314 86.1959 99.3458C86.2329 99.4382 86.3377 99.7157 86.498 100.147C86.5154 100.219 86.5402 100.29 86.572 100.357C86.5726 100.367 86.5726 100.377 86.572 100.388C87.6817 103.433 90.7951 112.299 92.3426 119.999C92.6139 121.331 92.8358 122.632 92.9961 123.865C93.4585 127.718 93.1194 134.167 92.4043 141.787Z" fill="#FAFAFA"/>
<path d="M76.289 129.093C76.289 129.093 76.9055 126.053 77.8118 119.487C78.8661 111.917 78.49 108.174 77.3494 105.782L70.9192 118.045L76.0486 139.315C76.0486 139.315 70.7774 148.969 68.6504 159.66C73.6935 145.412 79.2113 141.164 79.2113 141.164L76.289 129.093Z" fill="#E6E6E6"/>
<path d="M98.8164 94.5924C100.814 94.5924 101.048 94.9253 102.768 97.2311C103.792 98.6059 110.271 109.302 110.271 109.302C110.271 109.302 105.117 102.521 101.227 100.462C100.478 100.023 99.6676 99.6985 98.8226 99.4999L98.8164 94.5924Z" fill="#EBEBEB"/>
<path d="M84.0449 117.323C84.0449 116.707 83.9832 115.375 83.8784 113.698C83.3667 105.474 83.1201 98.0757 85.8944 97.4592L86.1349 98.5936C84.1127 99.0313 84.7785 109.617 85.0313 113.6C85.1423 115.314 85.2286 116.682 85.1978 117.348L84.0449 117.323Z" fill="#407BFF"/>
<path d="M74.7969 63.4769L79.1125 67.0095C79.3471 66.741 79.5244 66.4274 79.6336 66.0879C79.7428 65.7485 79.7816 65.3903 79.7475 65.0354C79.7135 64.6804 79.6073 64.3361 79.4356 64.0236C79.2638 63.7111 79.0301 63.437 78.7487 63.2179C78.1813 62.7487 77.456 62.5142 76.7214 62.5623C75.9867 62.6105 75.2982 62.9377 74.7969 63.4769Z" fill="#263238"/>
<path d="M86.0678 95.1165C86.0678 92.41 79.7609 88.3348 76.5057 82.6443C73.2504 76.9539 74.8781 67.5952 79.3416 66.1587C79.3786 66.1587 79.5019 64.9565 79.5204 64.8702C79.7672 63.7844 80.1833 62.7441 80.7535 61.7876C82.5722 58.6557 86.4254 56.239 90.0012 55.7334C104.138 53.6743 110.636 59.1674 113.232 65.2093C114.073 67.2417 114.448 69.4369 114.329 71.6334C114.256 73.2466 113.658 74.7917 112.625 76.0328C111.592 77.274 110.181 78.1431 108.608 78.5075L86.0678 95.1165Z" fill="#263238"/>
<path d="M105.678 63.1871C108.446 64.4201 111.078 68.6309 111.035 80.4803C110.998 90.5296 107.916 93.0696 106.362 93.8156C104.808 94.5616 101.769 94.1793 98.8159 93.7293V99.4999C98.8159 99.4999 101.029 101.676 100.252 103.045C99.4756 104.413 96.6088 105.573 92.1514 104.173C87.1021 102.589 85.9492 99.2409 85.9492 99.2409L85.8321 86.5777C85.8321 86.5777 84.1367 88.3594 81.1466 85.7454C78.6805 83.5814 77.7927 79.8762 79.6484 77.8417C81.5041 75.8071 83.8839 75.6469 86.0294 77.9218L87.5707 77.108C90.3203 76.7874 94.3523 76.325 97.3239 74.8269C104.944 70.949 105.733 66.7444 105.678 63.1871Z" fill="#FFA8A7"/>
<path d="M86.0742 76.2819L86.1112 81.8306C86.4675 81.84 86.822 81.7765 87.1529 81.6439C87.4838 81.5113 87.784 81.3124 88.0352 81.0595C88.2864 80.8066 88.4832 80.505 88.6135 80.1732C88.7439 79.8414 88.805 79.4865 88.7931 79.1302C88.7864 78.399 88.5016 77.6976 87.9967 77.1686C87.4917 76.6396 86.8044 76.3226 86.0742 76.2819V76.2819Z" fill="#263238"/>
<path d="M105.938 77.071C105.94 77.3317 106.019 77.5859 106.165 77.8021C106.311 78.0183 106.517 78.187 106.757 78.2872C106.998 78.3874 107.263 78.4147 107.519 78.3658C107.775 78.317 108.011 78.194 108.198 78.0121C108.385 77.8303 108.514 77.5976 108.57 77.3429C108.626 77.0883 108.606 76.8228 108.512 76.5795C108.418 76.3362 108.255 76.1257 108.043 75.9742C107.831 75.8226 107.579 75.7367 107.318 75.727C107.139 75.7229 106.961 75.7546 106.794 75.8203C106.627 75.8859 106.475 75.9841 106.346 76.1093C106.217 76.2344 106.115 76.3839 106.045 76.549C105.975 76.7142 105.938 76.8916 105.938 77.071Z" fill="black"/>
<path d="M95.3031 77.6629C95.2923 77.854 95.3193 78.0454 95.3826 78.2261C95.4459 78.4068 95.5442 78.5732 95.6719 78.7158C95.7996 78.8584 95.9542 78.9744 96.1269 79.0572C96.2995 79.1399 96.4868 79.1878 96.6779 79.198C96.872 79.1997 97.0644 79.1629 97.2442 79.09C97.424 79.0171 97.5876 78.9093 97.7256 78.773C97.8637 78.6367 97.9735 78.4744 98.0486 78.2956C98.1238 78.1167 98.1629 77.9247 98.1637 77.7307C98.1698 77.5429 98.1388 77.3557 98.0726 77.1798C98.0063 77.004 97.906 76.8429 97.7775 76.7058C97.649 76.5687 97.4947 76.4582 97.3235 76.3807C97.1523 76.3033 96.9675 76.2602 96.7797 76.2542C96.5918 76.2481 96.4046 76.2791 96.2288 76.3454C96.0529 76.4116 95.8918 76.5119 95.7547 76.6404C95.6176 76.7689 95.5072 76.9232 95.4297 77.0944C95.3522 77.2656 95.3092 77.4504 95.3031 77.6383V77.6629Z" fill="black"/>
<path d="M109.463 74.5865L106.029 73.224C106.109 72.9929 106.235 72.7808 106.4 72.6008C106.565 72.4207 106.766 72.2768 106.989 72.1778C107.213 72.0789 107.454 72.0271 107.698 72.0257C107.943 72.0243 108.185 72.0733 108.409 72.1697C108.862 72.3601 109.223 72.7172 109.42 73.1672C109.616 73.6171 109.632 74.1253 109.463 74.5865V74.5865Z" fill="black"/>
<path d="M102.682 75.986L102.51 84.2103L106.93 83.23L102.682 75.986Z" fill="#F28F8F"/>
<path d="M97.473 85.8872L101.789 87.225C101.726 87.5192 101.603 87.7974 101.428 88.0422C101.254 88.2871 101.03 88.4934 100.773 88.6483C100.515 88.8032 100.228 88.9035 99.9296 88.9429C99.6313 88.9823 99.3282 88.96 99.039 88.8773C98.4467 88.6714 97.9552 88.2476 97.6643 87.6921C97.3734 87.1367 97.305 86.4913 97.473 85.8872Z" fill="#B16668"/>
<path d="M99.858 88.9513C99.8531 88.3512 99.6113 87.7773 99.1852 87.3546C98.7591 86.932 98.1832 86.6948 97.5831 86.6948C97.5235 86.6918 97.4639 86.6918 97.4043 86.6948C97.4264 87.1765 97.5928 87.6405 97.882 88.0264C98.1711 88.4123 98.5696 88.7023 99.0257 88.8588C99.2937 88.9472 99.5772 88.9787 99.858 88.9513Z" fill="#F28F8F"/>
<path d="M98.8174 93.7601C95.704 93.3902 89.2861 91.6023 88.2441 88.9944C88.6616 90.3035 89.4628 91.457 90.5437 92.3051C92.4796 93.9697 98.8174 95.7021 98.8174 95.7021V93.7601Z" fill="#F28F8F"/>
<path d="M85.9189 94.6233C85.1051 94.4568 84.3838 94.8144 83.7179 95.9365C83.0521 97.0585 81.5909 99.4506 81.5909 99.4506C81.5909 99.4506 80.8326 107.336 81.5909 109.315C82.2444 111.016 89.4515 117.397 89.4515 117.397C89.4515 117.397 87.5711 124.481 87.5033 126.805C87.4355 129.13 91.8189 137.952 92.3491 142.465C92.3491 142.465 93.9089 128.285 93.2369 123.174C92.0779 114.315 87.9226 102.872 85.962 99.2348L85.9189 94.6233Z" fill="#EBEBEB"/>
<path d="M90.3265 123.969C89.8455 122.825 89.2788 121.718 88.6311 120.659V120.659C87.6077 118.963 86.3438 117.336 85.2033 116.916C85.0304 116.848 84.8467 116.81 84.6607 116.805H84.5991C84.4113 116.816 84.2272 116.862 84.0565 116.941C83.1564 117.342 82.207 118.569 81.4363 119.981C80.6471 121.398 79.9968 122.889 79.4943 124.432C79.1984 125.387 79.3279 127.416 79.6793 129.734C80.3698 134.234 81.9049 139.857 82.7619 140.967C83.39 141.742 84.132 142.418 84.9628 142.97C84.4541 143.307 83.9053 143.578 83.3291 143.778C83.0031 143.897 82.6588 143.957 82.3118 143.957V144.764H82.4104C82.777 144.759 83.1406 144.698 83.4893 144.586C84.2975 144.323 85.0605 143.939 85.752 143.445C86.4819 143.88 87.274 144.2 88.1009 144.395C88.4902 144.488 88.8928 144.513 89.2908 144.469L89.1921 143.667C88.8469 143.696 88.4991 143.669 88.1625 143.587C87.5694 143.432 86.9979 143.204 86.461 142.909C87.2434 142.286 87.929 141.55 88.4955 140.726C88.9763 139.993 89.5682 137.465 90.0121 134.561C90.2834 132.829 90.5053 130.967 90.6286 129.271C90.7642 126.904 90.7026 124.876 90.3265 123.969ZM87.7803 140.282C87.2019 141.117 86.4919 141.852 85.678 142.459C84.8134 141.925 84.0427 141.252 83.3969 140.467C82.5954 139.425 81.1158 133.938 80.4499 129.611C80.1108 127.422 79.9875 125.529 80.2588 124.678C80.7616 123.117 81.4269 121.613 82.244 120.19C83.0948 118.723 84.0011 117.644 84.6299 117.619C85.3759 117.619 86.5843 118.969 87.7125 120.702C87.9406 121.041 88.1564 121.411 88.366 121.781C88.8259 122.577 89.2376 123.401 89.599 124.247C89.9381 125.085 89.9751 126.978 89.821 129.179C89.7347 130.412 89.599 131.701 89.4264 132.983C88.9578 136.331 88.2982 139.469 87.7803 140.264V140.282Z" fill="#455A64"/>
<path d="M90.3944 143.994C90.404 144.229 90.3435 144.462 90.2207 144.663C90.0978 144.864 89.9181 145.024 89.7043 145.123C89.4905 145.221 89.2521 145.254 89.0195 145.218C88.7869 145.181 88.5704 145.076 88.3975 144.916C88.2246 144.756 88.1031 144.548 88.0483 144.319C87.9935 144.09 88.0079 143.85 88.0897 143.629C88.1715 143.408 88.317 143.217 88.5078 143.079C88.6985 142.94 88.926 142.862 89.1614 142.853C89.476 142.842 89.7824 142.955 90.0135 143.169C90.2446 143.383 90.3816 143.679 90.3944 143.994V143.994Z" fill="#263238"/>
<path d="M83.484 144.314C83.4948 144.55 83.4354 144.783 83.3133 144.985C83.1913 145.187 83.012 145.348 82.7984 145.447C82.5847 145.547 82.3462 145.581 82.1133 145.545C81.8803 145.509 81.6632 145.404 81.4897 145.245C81.3162 145.085 81.194 144.878 81.1387 144.648C81.0834 144.419 81.0974 144.179 81.1789 143.958C81.2605 143.736 81.4059 143.544 81.5968 143.406C81.7876 143.267 82.0153 143.189 82.2509 143.18C82.4064 143.173 82.5617 143.198 82.7078 143.251C82.854 143.304 82.9882 143.386 83.1027 143.492C83.2172 143.597 83.3098 143.724 83.3753 143.865C83.4407 144.006 83.4776 144.159 83.484 144.314V144.314Z" fill="#263238"/>
<path d="M90.5303 129.259L89.846 129.21C89.7762 129.204 89.7116 129.171 89.6656 129.118C89.6196 129.065 89.5959 128.996 89.5994 128.926C89.7412 126.664 89.6672 124.999 89.3898 124.333C88.1937 121.411 85.6907 117.749 84.6364 117.792C83.5822 117.835 81.3997 121.701 80.4503 124.709C80.2345 125.4 80.3023 127.064 80.6291 129.308C80.6398 129.377 80.6232 129.447 80.5829 129.504C80.5425 129.56 80.4816 129.598 80.4133 129.611L79.7351 129.715C79.664 129.724 79.5924 129.704 79.5358 129.66C79.4792 129.617 79.4423 129.552 79.433 129.481C79.0569 126.966 79.0138 125.239 79.2974 124.346C79.8029 122.73 82.1888 116.682 84.5871 116.584C86.9853 116.485 89.8768 122.305 90.518 123.877C90.8694 124.74 90.9742 126.466 90.8139 129C90.8092 129.072 90.777 129.138 90.7242 129.187C90.6713 129.235 90.6019 129.261 90.5303 129.259V129.259Z" fill="#407BFF"/>
<path d="M75.7466 100.486C71.2337 100.412 69.1499 101.935 66.2893 105.764C64.0205 108.803 55.192 125.227 52.2635 130.024L36.3204 121.503C33.096 119.278 32.0541 115.764 30.0135 113.711C27.9728 111.658 25.8581 111.245 23.614 109.549C21.3699 107.854 20.4575 106.534 19.8101 108.119C19.1628 109.703 21.6597 112.268 22.1344 112.903C22.6091 113.538 25.1122 114.95 21.8631 114.999C18.6141 115.048 12.1838 111.682 10.6179 111.084C9.05192 110.486 9.1444 112.354 9.91504 113.55C10.6857 114.746 10.6487 118.125 11.9495 120.079C13.3244 122.151 14.0765 123.051 17.1406 124.395C19.9889 125.628 25.9691 126.121 28.9962 128.014C32.0233 129.906 39.5263 136.577 44.0885 140.578C49.8899 145.665 53.8911 146.596 57.1217 143.544C60.2597 140.258 63.441 136.405 64.9946 134.45C69.1807 129.179 75.8021 117.188 75.8021 117.188C75.8021 117.188 78.6689 111.023 75.7466 100.486Z" fill="#FFA8A7"/>
<path d="M76.3701 100.036C69.724 100.036 67.7388 102.441 64.3357 107.995C60.9325 113.55 52.2026 129.45 52.2026 129.45L39.6319 122.866C39.6319 122.866 37.3693 127.847 34.9648 132.983C34.9648 132.983 42.0794 139.148 45.4456 142.064C48.8118 144.98 53.2754 147.268 57.4122 143.698C61.8326 139.888 76.1666 120.092 76.1666 120.092C79.5698 113.914 78.8115 104.549 76.3701 100.036Z" fill="#F0F0F0"/>
<path d="M52.2012 129.45C54.2542 131.867 56.7387 134.586 56.6278 136.725C56.6278 136.725 58.0334 134.826 53.0951 127.829L52.2012 129.45Z" fill="#E0E0E0"/>
<path d="M28.4226 70.1599L23.2809 73.1068L23.2994 67.2006L19.4523 64.9811L10.482 70.1599V80.5173L1.51172 85.6961V96.0535L5.35878 98.273L10.482 95.3137V101.238L14.3291 103.458L23.2994 98.273V87.9155L32.2697 82.7368V72.3793L28.4226 70.1599Z" fill="#407BFF"/>
<path d="M5.35938 87.9156V98.273L14.3297 93.0943V103.458L23.3 98.273V87.9156L32.2703 82.7368V72.3794L23.2692 77.5766L23.3 67.2006L14.3297 72.3794V82.7368L5.35938 87.9156Z" fill="#407BFF"/>
<g opacity="0.2">
<path opacity="0.2" d="M5.35878 98.273L1.51172 96.0536V85.6961L5.35878 87.9156V98.273Z" fill="black"/>
<path opacity="0.2" d="M14.3295 72.3794L10.4824 70.1599V80.5174L14.3295 82.7368V72.3794Z" fill="black"/>
<path opacity="0.2" d="M14.3295 103.458L10.4824 101.238V95.3138L14.3295 93.0943V103.458Z" fill="black"/>
</g>
<g opacity="0.5">
<path opacity="0.5" d="M14.3291 82.7368L10.482 80.5173L1.51172 85.6961L5.35878 87.9155L14.3291 82.7368Z" fill="white"/>
<path opacity="0.5" d="M23.2998 67.2006L19.4527 64.9811L10.4824 70.1599L14.3295 72.3793L23.2998 67.2006Z" fill="white"/>
<path opacity="0.5" d="M32.2707 72.3793L28.4236 70.1599L23.2819 73.1068L23.2695 77.5765L32.2707 72.3793Z" fill="white"/>
</g>
<path d="M175.967 49.371C175.804 49.2299 175.629 49.104 175.443 48.9949C174.789 48.6065 171.83 46.9049 171.676 46.8124C170.11 45.8137 167.632 46.0356 165.425 47.1515C162.262 48.7483 159.629 52.1206 157.619 57.7371C157.619 57.7371 155.585 56.2759 154.925 55.8875C153.292 54.9936 151.38 55.4251 149.229 56.8246C146.806 58.4029 145.153 60.4498 143.643 63.5447V63.6002C142.334 66.2281 141.619 69.1115 141.547 72.0464C141.547 78.5383 144.204 81.6333 147.663 83.9575C148.649 84.6234 151.257 86.0228 151.516 86.1955C153.603 87.5736 155.912 88.583 158.341 89.1794L161.75 89.9747L165.159 85.246C167.642 81.7594 169.92 78.1324 171.984 74.383C175.443 68.0637 178.149 61.8739 178.1 55.4067C178.051 52.6385 177.255 50.604 175.967 49.371Z" fill="#407BFF"/>
<path opacity="0.3" d="M175.967 49.371C175.804 49.2299 175.629 49.104 175.443 48.9949C174.789 48.6065 171.83 46.9049 171.676 46.8124C170.11 45.8137 167.632 46.0356 165.425 47.1515C162.262 48.7483 159.629 52.1206 157.619 57.7371C157.619 57.7371 155.585 56.2759 154.925 55.8875C153.292 54.9936 151.38 55.4251 149.229 56.8246C146.806 58.4029 145.153 60.4498 143.643 63.5447V63.6002C142.334 66.2281 141.619 69.1115 141.547 72.0464C141.547 78.5383 144.204 81.6333 147.663 83.9575C148.649 84.6234 151.257 86.0228 151.516 86.1955C153.603 87.5736 155.912 88.583 158.341 89.1794L161.75 89.9747L165.159 85.246C167.642 81.7594 169.92 78.1324 171.984 74.383C175.443 68.0637 178.149 61.8739 178.1 55.4067C178.051 52.6385 177.255 50.604 175.967 49.371Z" fill="black"/>
<path d="M175.968 49.371C175.805 49.2299 175.63 49.104 175.444 48.9949C174.79 48.6065 171.831 46.9049 171.677 46.8124C170.111 45.8137 167.633 46.0356 165.425 47.1515C162.263 48.7483 159.63 52.1206 157.62 57.7371C157.62 57.7371 155.586 56.2759 154.926 55.8875C153.292 54.9936 151.381 55.4251 149.23 56.8246C146.807 58.4029 145.154 60.4498 143.644 63.5447V63.6002C143.576 63.7358 143.521 63.8714 143.459 64.0071L169.353 78.9391C170.271 77.4471 171.165 75.9366 172.016 74.383C175.475 68.0637 178.181 61.8739 178.132 55.4067C178.052 52.6385 177.256 50.604 175.968 49.371Z" fill="#407BFF"/>
<path opacity="0.15" d="M175.968 49.371C175.805 49.2299 175.63 49.104 175.444 48.9949C174.79 48.6065 171.831 46.9049 171.677 46.8124C170.111 45.8137 167.633 46.0356 165.425 47.1515C162.263 48.7483 159.63 52.1206 157.62 57.7371C157.62 57.7371 155.586 56.2759 154.926 55.8875C153.292 54.9936 151.381 55.4251 149.23 56.8246C146.807 58.4029 145.154 60.4498 143.644 63.5447V63.6002C143.576 63.7358 143.521 63.8714 143.459 64.0071L169.353 78.9391C170.271 77.4471 171.165 75.9366 172.016 74.383C175.475 68.0637 178.181 61.8739 178.132 55.4067C178.052 52.6385 177.256 50.604 175.968 49.371Z" fill="black"/>
<path d="M157.602 57.7124L161.066 62.2315L166.652 55.6224L160.339 51.9788C159.215 53.7815 158.296 55.7047 157.602 57.7124V57.7124Z" fill="#407BFF"/>
<path opacity="0.3" d="M157.602 57.7124L161.066 62.2315L166.652 55.6224L160.339 51.9788C159.215 53.7815 158.296 55.7047 157.602 57.7124V57.7124Z" fill="black"/>
<path d="M175.966 49.3709C174.456 48.0208 171.706 48.1379 169.277 49.3709C165.966 51.0479 163.229 54.6668 161.182 60.795C159.135 57.0342 156.398 56.9171 153.087 59.0687C150.658 60.647 149.006 62.6938 147.502 65.7888L147.471 65.8442C146.167 68.4758 145.453 71.3606 145.381 74.2967C145.381 80.7886 148.044 83.8835 151.497 86.2078C153.584 87.5859 155.892 88.5953 158.322 89.1917L161.731 89.987L165.14 85.2583C167.622 81.7717 169.901 78.1446 171.965 74.3953C175.424 68.076 178.13 61.8862 178.081 55.419C178.05 52.6385 177.255 50.604 175.966 49.3709Z" fill="#407BFF"/>
<g opacity="0.07">
<path opacity="0.07" d="M173.056 48.7544C174.007 48.7109 174.941 49.0107 175.689 49.5991C175.702 49.6257 175.721 49.6489 175.744 49.6669C177.014 50.8259 177.723 52.8851 177.729 55.4498C177.729 62.2006 174.647 68.7542 171.657 74.2659C169.608 78.003 167.344 81.6178 164.875 85.0919L161.601 89.6479L158.414 88.9019C156.021 88.3142 153.746 87.3217 151.688 85.9673C148.605 83.8712 145.695 81.0352 145.72 74.3275C145.785 71.443 146.477 68.6072 147.748 66.0169V65.9614C149.265 62.848 150.899 60.8813 153.217 59.377C154.293 58.5784 155.578 58.1074 156.916 58.0207C158.482 58.0207 159.77 58.9886 160.855 60.9799C160.882 61.0333 160.924 61.0778 160.975 61.1084C161.026 61.139 161.085 61.1543 161.145 61.1526H161.176C161.239 61.1467 161.3 61.1226 161.35 61.0832C161.401 61.0439 161.438 60.9909 161.459 60.9306C163.414 55.0799 166.009 51.4054 169.388 49.6977C170.516 49.1068 171.765 48.784 173.038 48.7544H173.056ZM173.038 48.4277C171.714 48.455 170.414 48.7884 169.24 49.4018C165.929 51.0787 163.192 54.6976 161.145 60.8258C159.961 58.6433 158.543 57.6877 156.916 57.6877C155.519 57.7796 154.177 58.2695 153.05 59.0996C150.621 60.6778 148.969 62.7247 147.465 65.8196L147.434 65.8751C146.13 68.5066 145.416 71.3914 145.344 74.3275C145.344 80.8194 148.007 83.9143 151.46 86.2386C153.547 87.6168 155.855 88.6261 158.284 89.2225L161.694 90.0178L165.103 85.2892C167.585 81.8025 169.864 78.1755 171.928 74.4262C175.387 68.1069 178.093 61.917 178.044 55.4498C178.044 52.6693 177.236 50.604 175.948 49.4203C175.134 48.7574 174.105 48.4172 173.056 48.4647L173.038 48.4277Z" fill="black"/>
</g>
<path d="M175.59 66.8492L168.956 70.6839L166.49 61.7136C166.455 61.578 166.375 61.4583 166.263 61.3742C166.151 61.2902 166.014 61.2468 165.874 61.2512C165.729 61.2483 165.589 61.2961 165.476 61.3862C165.364 61.4763 165.286 61.6031 165.257 61.7444L161.416 79.2905L158.186 70.4496C158.179 70.2861 158.108 70.1319 157.988 70.0209C157.867 69.9099 157.708 69.8512 157.545 69.8578C157.381 69.8643 157.227 69.9356 157.116 70.0558C157.005 70.176 156.946 70.3355 156.953 70.499L154.77 78.2486L147.471 82.4655C147.711 82.8146 147.97 83.1501 148.248 83.4705L155.646 79.2103C155.789 79.1274 155.895 78.9928 155.942 78.8343L157.662 72.7184L160.972 81.7565C161.016 81.883 161.1 81.9917 161.212 82.0662C161.323 82.1407 161.455 82.177 161.589 82.1696C161.726 82.1628 161.856 82.1106 161.96 82.0212C162.064 81.9319 162.135 81.8106 162.162 81.6764L165.923 64.5249L167.908 71.806C167.932 71.8996 167.977 71.9865 168.04 72.0594C168.104 72.1324 168.183 72.1895 168.273 72.2261C168.362 72.2627 168.459 72.2778 168.555 72.2701C168.651 72.2625 168.744 72.2323 168.827 72.1821L174.721 68.7851C175.06 68.1377 175.331 67.4965 175.59 66.8492Z" fill="white"/>
<path d="M203.433 231.73C203.18 232.566 203.159 233.454 203.371 234.301C203.618 234.819 205.159 236.521 208.304 237.137C211.448 237.754 215.77 237.137 217.631 237.026C219.493 236.915 225.338 237.643 227.194 237.877C230.116 238.272 232.36 237.63 233.451 236.576C233.628 236.364 233.758 236.117 233.834 235.852C233.909 235.586 233.928 235.308 233.889 235.035C233.883 234.331 233.779 233.632 233.581 232.957L203.433 231.73Z" fill="#263238"/>
<path d="M233.099 229.899C233.155 230.14 233.21 230.386 233.259 230.633C233.544 231.873 233.633 233.15 233.524 234.418C233.148 235.343 232.119 235.855 231.287 236.114C229.086 236.817 227.415 236.73 224.98 236.243C222.53 235.886 220.056 235.734 217.581 235.787C215.664 235.916 213.025 236.286 211.108 236.108C209.478 236.04 207.869 235.711 206.342 235.133C205.066 234.591 203.759 233.9 203.445 232.569C203.069 229.794 204.234 228.574 205.547 227.797C206.86 227.02 208.728 227.082 210.726 226.952C212.532 226.829 213.851 226.829 215.461 226.706C216.852 226.638 218.234 226.446 219.591 226.132C220.824 225.75 222.057 224.203 222.563 224.147C222.563 224.147 230.608 224.086 231.373 224.147C232.261 224.221 232.532 226.971 232.643 227.569C232.729 228.037 232.748 228.543 232.871 228.993C232.951 229.295 233.025 229.597 233.099 229.899Z" fill="#37474F"/>
<path d="M208.31 235.738C208.058 233.74 207.694 229.412 211.393 226.909H211.855C210.194 226.428 208.43 226.428 206.769 226.909C203.828 227.692 202.521 230.072 203.255 232.587C203.267 232.563 203.921 234.998 208.31 235.738Z" fill="#FAFAFA"/>
<path d="M219.044 226.274C217.854 227.328 217.441 229.727 217.441 229.727C217.286 230.627 215.659 230.762 215.813 229.893C216.061 228.698 216.541 227.563 217.225 226.552C217.783 226.257 218.423 226.16 219.044 226.274V226.274Z" fill="#FAFAFA"/>
<path d="M215.707 226.687C214.81 227.566 214.224 228.713 214.037 229.955C213.87 230.818 212.514 230.805 212.613 229.955C212.613 229.955 212.767 227.828 214.037 226.835C214.283 226.678 214.563 226.582 214.854 226.556C215.145 226.53 215.438 226.575 215.707 226.687V226.687Z" fill="#FAFAFA"/>
<path d="M231.619 218.296C231.619 218.296 231.404 223.469 231.12 225.164C230.947 226.175 229.622 227.236 226.323 227.125C224.005 227.045 222.18 227.236 222.273 225.423L222.476 220.14L231.619 218.296Z" fill="#FFA8A7"/>
<path d="M236.793 206.077C236.675 207.489 236.484 208.765 237.064 210.319C237.89 212.55 239.641 213.574 240.67 214.449C241.754 215.522 242.753 216.677 243.661 217.902C244.672 219.135 244.937 219.869 246.453 221.213C247.209 221.794 248.103 222.17 249.047 222.303C249.992 222.436 250.955 222.321 251.842 221.971C253.155 221.41 253.611 220.966 253.531 218.95C253.451 216.934 247.027 216.25 247.027 216.25L236.793 206.077Z" fill="#263238"/>
<path d="M252.699 212.945C253.247 213.142 253.383 214.135 253.469 216.108C253.531 217.6 254.191 219.807 252.027 220.725C250.282 221.484 247.495 220.978 246.318 219.573C244.85 217.815 243.852 216.268 241.755 214.129C239.906 212.279 238.056 211.663 237.236 207.933C236.712 205.541 237.125 204.554 238.815 203.87C241.139 202.927 244.782 206.003 246.607 206.49C248.173 206.903 252.15 212.748 252.699 212.945Z" fill="#37474F"/>
<path d="M246.607 206.49L246.299 206.385C245.26 206.424 244.248 206.734 243.366 207.285C242.483 207.835 241.76 208.607 241.268 209.523C240.96 210.171 241.885 210.676 242.501 210.171C243.796 207.705 246.459 207.174 247.526 207.057C247.263 206.805 246.95 206.612 246.607 206.49V206.49Z" fill="#FAFAFA"/>
<path d="M248.106 207.612C247.13 207.704 246.192 208.036 245.377 208.579C244.561 209.123 243.893 209.86 243.433 210.726C243.125 211.342 244.08 211.878 244.666 211.342C245.106 210.571 245.709 209.904 246.433 209.39C247.157 208.876 247.985 208.526 248.858 208.364C248.593 208.118 248.346 207.853 248.106 207.612Z" fill="#FAFAFA"/>
<path d="M253.013 209.382L252.698 213.543C252.698 213.543 250.053 215.473 246.262 213.703C246.151 213.475 245.83 209.752 245.83 209.752L253.013 209.382Z" fill="#FFA8A7"/>
<path d="M238.303 210.676C238.303 210.676 238.481 206.256 244.764 205.646L245.127 205.837C244.413 204.728 243.316 203.921 242.045 203.568C239.961 203.031 238.309 203.568 237.211 204.887C236.114 206.207 237.218 209.819 238.303 210.676Z" fill="#FAFAFA"/>
<path d="M254.844 181.663C253.944 174.382 253.611 170.325 253.611 170.325C253.611 170.325 253.432 160.073 254.055 150.597C254.326 146.441 254.468 141.842 254.554 137.65C254.669 133.033 254.301 128.417 253.457 123.877C253.457 123.877 221.219 117.465 220.819 129.29C220.331 143.47 220.393 167.705 219.844 176.959C219.542 182.156 220.066 186.466 220.393 196.564C220.658 204.936 220.578 225.54 220.578 225.54C224.129 230.417 232.514 226.7 232.514 226.7C232.514 226.7 235.103 197.766 235.485 191.786C235.892 185.356 235.214 182.101 235.214 182.101L238.537 152.144C238.537 152.144 238.79 161.756 239.074 166.941C239.357 172.126 240.115 175.313 241.466 184.986C242.637 193.383 245.128 214.813 245.128 214.813C249.443 217.365 253.611 214.813 253.611 214.813C253.611 214.813 255.744 188.944 254.844 181.663Z" fill="#455A64"/>
<path d="M250.442 140.289C250.442 140.289 246.404 145.443 241.195 147.656C241.195 147.656 238.938 165.775 238.957 165.418L238.371 147.181C238.371 147.181 246.127 143.753 250.442 140.289Z" fill="#37474F"/>
<path d="M250.331 82.0464C253.802 81.2696 257.729 83.7479 260.343 89.2781C262.871 94.5678 269.776 107.928 269.942 111.67C270.121 115.548 252.871 127.311 253.296 127.083C253.432 127.015 250.318 118.187 250.318 118.187L258.697 111.251L254.141 101.867L250.331 82.0464Z" fill="#FFA8A7"/>
<path d="M248.506 81.214C251.428 80.8564 256.724 81.96 258.746 85.4741C261.681 90.5604 264.356 96.442 267.766 104.044C267.766 104.044 265.238 109.518 257.963 110.036L253.604 102.391L248.506 81.214Z" fill="#37474F"/>
<path d="M233.797 76.6333L234.302 87.4224L244.993 86.849L244.666 74.3152L233.797 76.6333Z" fill="#FFA8A7"/>
<path d="M255.491 86.6456C254.591 83.7048 251.483 81.2819 247.556 81.1647C246.681 81.1647 244.843 81.1647 244.843 81.1647C244.4 82.9835 238.832 83.6308 234.073 82.5396C232.636 82.9218 226.675 84.3891 225.442 84.759C222.02 85.8934 220.966 89.3829 220.436 100.542C220.436 100.542 220.54 122.539 220.436 133.038C226.453 136.213 235.75 135.819 242.365 135.147C252.759 134.099 254.307 130.332 254.307 130.332C253.869 124.21 254.134 121.904 254.307 115.862C254.436 111.319 255.743 106.516 256.156 101.368C256.767 93.717 256.101 88.6677 255.491 86.6456Z" fill="#407BFF"/>
<path d="M232.125 78.6801C229.659 78.5075 226.577 80.4742 225.781 84.685L227.791 84.1486L232.125 78.6801Z" fill="#407BFF"/>
<path opacity="0.3" d="M232.125 78.6801C229.659 78.5075 226.577 80.4742 225.781 84.685L227.791 84.1486L232.125 78.6801Z" fill="black"/>
<path d="M233.932 79.5803C235.782 80.1968 241.176 80.1105 242.983 79.5803C244.789 79.0501 244.771 78.2486 244.771 78.2486V77.3423C245.812 77.3394 246.83 77.6557 247.687 78.2486C248.84 79.1857 250.825 82.5642 250.769 84.1856C250.714 85.8071 247.249 90.0857 240.566 89.9809C233.883 89.8761 230.128 87.4039 228.975 85.7762L227.816 84.1425C227.816 84.1425 229.401 80.8873 230.961 79.5186C231.76 78.7434 232.786 78.2425 233.889 78.0883L233.932 79.5803Z" fill="#407BFF"/>
<path opacity="0.2" d="M233.932 79.5803C235.782 80.1968 241.176 80.1105 242.983 79.5803C244.789 79.0501 244.771 78.2486 244.771 78.2486V77.3423C245.812 77.3394 246.83 77.6557 247.687 78.2486C248.84 79.1857 250.825 82.5642 250.769 84.1856C250.714 85.8071 247.249 90.0857 240.566 89.9809C233.883 89.8761 230.128 87.4039 228.975 85.7762L227.816 84.1425C227.816 84.1425 229.401 80.8873 230.961 79.5186C231.76 78.7434 232.786 78.2425 233.889 78.0883L233.932 79.5803Z" fill="black"/>
<path d="M226.602 63.4029C226.602 63.4029 224.055 67.2685 224.345 67.6445C224.635 68.0206 226.509 68.372 226.509 68.372L226.602 63.4029Z" fill="#F28F8F"/>
<path d="M233.679 52.7002C228.525 53.7914 226.466 55.3019 226.145 64.1119C225.837 72.6815 226.916 75.5051 228.038 76.658C228.796 77.4348 233.019 77.5766 235.146 76.9848C237.81 76.2511 243.833 74.118 246.651 69.8147C249.967 64.7469 250.837 57.8789 247.267 55.0614C242.292 51.0972 235.781 52.2563 233.679 52.7002Z" fill="#FFA8A7"/>
<path d="M228.039 76.6518C228.656 77.2683 231.609 77.5026 233.828 77.2313L233.797 75.9551C231.959 76.6335 229.987 76.8721 228.039 76.6518V76.6518Z" fill="#F28F8F"/>
<path d="M225.462 56.0109C226.746 56.9314 228.339 57.3141 229.901 57.0774C229.87 57.7682 230.055 58.4514 230.431 59.0318C230.954 59.8232 231.748 60.3973 232.663 60.6471C232.099 61.7531 231.799 62.9751 231.787 64.2167C231.753 64.6064 231.837 64.9975 232.028 65.3387C232.087 65.4627 232.18 65.5675 232.296 65.6408C232.413 65.7141 232.547 65.753 232.684 65.753C232.822 65.753 232.956 65.7141 233.073 65.6408C233.189 65.5675 233.282 65.4627 233.341 65.3387C233.631 64.6829 233.995 64.0623 234.426 63.4892C234.985 62.8204 235.771 62.3814 236.633 62.2562C239.87 61.9048 240.277 66.1402 238.982 67.8973C236.861 70.7703 235.061 68.8221 235.061 68.8221C234.979 70.1688 235.183 71.5177 235.661 72.7794C236.14 74.0411 236.881 75.1866 237.835 76.1401C240.136 76.818 242.575 76.8797 244.907 76.3189C247.78 72.367 249.586 70.4435 251.121 67.0342C254.364 59.8148 252.798 55.2834 250.289 53.3722C249.796 50.0492 247.176 48.5572 244.186 47.8729C239.722 46.8433 235.554 49.4943 231.128 48.4894C230.401 48.3373 229.683 48.148 228.976 47.9222C228.704 47.7945 228.393 47.7746 228.107 47.8667C227.948 47.9721 227.824 48.1217 227.749 48.2971C227.675 48.4724 227.653 48.6657 227.688 48.8531C227.743 49.7039 228.606 50.6472 229.044 51.1034C228.077 51.1918 227.103 51.1357 226.152 50.9369C225.822 50.8751 225.484 50.8751 225.154 50.9369C224.792 51.0844 224.486 51.3429 224.28 51.6752C224.074 52.0075 223.978 52.3966 224.007 52.7865C224.011 53.3958 224.142 53.9975 224.393 54.5529C224.643 55.1083 225.008 55.605 225.462 56.0109V56.0109Z" fill="#263238"/>
<path d="M250.367 54.4449L253.45 52.5954C253.205 52.1866 252.807 51.892 252.345 51.7764C251.882 51.6608 251.393 51.7336 250.984 51.9789C250.575 52.2241 250.281 52.6217 250.165 53.0842C250.049 53.5467 250.122 54.0362 250.367 54.4449V54.4449Z" fill="#263238"/>
<path d="M210.196 103.008C209.497 100.262 208.823 97.5127 208.174 94.7589C207.557 92.225 206.608 89.2904 207.477 86.701C207.971 85.5701 208.592 84.4988 209.327 83.5075C209.963 82.4626 210.5 81.3603 210.93 80.2153C211.146 79.6604 211.343 79.0932 211.546 78.5322C211.75 77.9712 212.04 77.6506 211.904 77.1142C211.454 75.3571 209.185 77.6629 208.723 78.3842C208.517 78.7629 208.278 79.1219 208.008 79.457C207.712 79.7714 206.99 80.166 206.645 79.7036C206.53 79.5181 206.466 79.3053 206.46 79.087C206.226 76.3805 207.2 73.9576 208.008 71.4299C208.135 71.0981 208.212 70.7489 208.236 70.3942C208.25 70.217 208.226 70.0388 208.166 69.8718C208.105 69.7047 208.009 69.5527 207.884 69.4262C207.683 69.2721 207.445 69.1737 207.194 69.1413C206.943 69.1088 206.687 69.1433 206.454 69.2413C205.998 69.3954 205.603 69.6852 205.147 69.827C204.691 69.9688 204.352 69.9688 203.951 70.0736C203 70.2855 202.085 70.6322 201.232 71.1032C199.752 71.9725 199.099 73.2425 198.71 74.8577C198.244 76.8418 198.086 78.8859 198.242 80.9181C198.347 82.2683 198.587 83.5999 198.754 84.9316L199.308 89.389C199.685 92.3606 199.796 107.206 200.307 110.159C200.819 113.113 201.805 115.092 204.142 116.072C207.533 117.453 213.014 111.214 216.127 107.983L210.196 103.008Z" fill="#FFA8A7"/>
<path d="M208.957 101.325C206.774 102.959 204.056 105.677 203.507 108.402C203.507 108.402 202.964 103.501 208.957 99.1547V101.325Z" fill="#F28F8F"/>
<path d="M225.27 84.8268C223.174 85.0241 219.721 85.0981 216.207 88.8774C212.132 93.2916 205.85 101.997 205.85 101.997C205.85 101.997 206.67 108.926 213.34 111.411C213.34 111.411 223.038 102.163 225.122 98.1806C227.206 94.1979 227.674 87.595 225.27 84.8268Z" fill="#37474F"/>
<path d="M222.477 70.1784L219.826 68.7543L221.348 67.4534L215.843 64.8764L218.247 63.483L212.316 60.3265L215.843 63.4399L212.976 64.8764L219.443 67.6753L217.847 69.2721L222.477 70.1784Z" fill="#407BFF"/>
<path d="M223.827 66.6827L222.101 65.0305L223.044 64.3338L221.527 62.5336L222.982 62.0404L222.477 59.7593L223.5 62.2192L222.477 62.6631L224.117 64.4633L223.007 65.2524L223.827 66.6827Z" fill="#407BFF"/>
<path d="M222.822 72.7862L219.567 75.3263L218.365 73.5569L215.517 75.1044L214.351 72.9157L209.943 74.0439L215.042 71.6025L216.503 73.6185L218.871 72.3485L219.857 74.0439L222.822 72.7862Z" fill="#407BFF"/>
<path d="M200.191 118.242C200.29 118.16 200.418 118.12 200.546 118.132C200.674 118.143 200.793 118.205 200.875 118.304C201.506 119.012 202.324 119.526 203.236 119.785C204.148 120.045 205.114 120.04 206.023 119.771C206.085 119.749 206.151 119.74 206.217 119.744C206.282 119.748 206.346 119.766 206.405 119.796C206.464 119.825 206.516 119.866 206.558 119.917C206.6 119.967 206.632 120.025 206.651 120.088C206.67 120.151 206.676 120.217 206.669 120.283C206.662 120.348 206.642 120.411 206.61 120.469C206.578 120.526 206.534 120.576 206.482 120.616C206.43 120.656 206.37 120.686 206.307 120.702C205.217 121.025 204.057 121.029 202.965 120.714C201.873 120.4 200.893 119.779 200.142 118.926C200.099 118.878 200.067 118.823 200.047 118.762C200.026 118.702 200.018 118.638 200.023 118.574C200.027 118.51 200.045 118.448 200.073 118.391C200.102 118.334 200.142 118.283 200.191 118.242V118.242Z" fill="#E0E0E0"/>
<path d="M200.682 121.503C200.769 121.431 200.878 121.392 200.991 121.392C201.103 121.392 201.213 121.431 201.299 121.503C201.801 121.866 202.376 122.115 202.984 122.232C203.592 122.349 204.219 122.332 204.819 122.182C204.947 122.158 205.078 122.186 205.186 122.258C205.293 122.331 205.367 122.443 205.393 122.57C205.405 122.632 205.405 122.697 205.393 122.759C205.38 122.821 205.356 122.881 205.32 122.933C205.284 122.986 205.239 123.031 205.186 123.066C205.132 123.101 205.073 123.125 205.01 123.137C204.268 123.31 203.496 123.317 202.75 123.158C202.005 122.999 201.303 122.679 200.695 122.219C200.646 122.177 200.606 122.127 200.577 122.07C200.548 122.013 200.531 121.95 200.527 121.887C200.522 121.823 200.53 121.759 200.551 121.699C200.571 121.638 200.603 121.582 200.646 121.534C200.656 121.522 200.669 121.512 200.682 121.503V121.503Z" fill="#E0E0E0"/>
<path d="M261.219 84.1363C261.162 84.1658 261.1 84.1837 261.036 84.1888C260.972 84.1939 260.908 84.1862 260.847 84.1661C260.786 84.146 260.73 84.1139 260.681 84.0717C260.633 84.0295 260.594 83.9781 260.565 83.9205C260.115 83.0862 259.438 82.3967 258.612 81.9318C257.786 81.4669 256.845 81.2458 255.898 81.2942C255.834 81.2978 255.77 81.2888 255.71 81.2677C255.649 81.2466 255.594 81.2138 255.546 81.1711C255.449 81.085 255.391 80.964 255.384 80.8349C255.376 80.7057 255.42 80.5789 255.507 80.4823C255.593 80.3858 255.714 80.3274 255.843 80.3201C256.979 80.2606 258.109 80.5266 259.1 81.0868C260.09 81.647 260.9 82.4782 261.435 83.4828C261.491 83.5984 261.5 83.7313 261.46 83.8534C261.419 83.9755 261.333 84.077 261.219 84.1363V84.1363Z" fill="#E0E0E0"/>
<path d="M261.491 80.8688C261.388 80.9231 261.268 80.938 261.155 80.9108C261.042 80.8836 260.942 80.816 260.875 80.7208C260.477 80.2558 259.983 79.8819 259.428 79.6245C258.873 79.3671 258.268 79.2321 257.656 79.2288C257.592 79.2264 257.53 79.2114 257.471 79.1847C257.413 79.158 257.361 79.12 257.317 79.0731C257.274 79.0262 257.24 78.9711 257.218 78.9111C257.196 78.8511 257.185 78.7873 257.188 78.7233C257.19 78.6593 257.205 78.5965 257.232 78.5383C257.259 78.4802 257.297 78.4278 257.344 78.3843C257.391 78.3408 257.446 78.307 257.506 78.2847C257.566 78.2625 257.629 78.2523 257.693 78.2547C258.454 78.2624 259.203 78.4363 259.889 78.7643C260.575 79.0924 261.181 79.5665 261.664 80.1536C261.733 80.2579 261.759 80.3853 261.736 80.5085C261.713 80.6317 261.643 80.7411 261.54 80.8133L261.491 80.8688Z" fill="#E0E0E0"/>
<path d="M270.109 116.405C270.047 116.292 270.032 116.159 270.068 116.036C270.104 115.912 270.187 115.807 270.3 115.745C271.112 115.257 271.768 114.548 272.193 113.701C272.617 112.854 272.793 111.904 272.698 110.961C272.69 110.897 272.695 110.833 272.713 110.771C272.731 110.709 272.76 110.652 272.801 110.602C272.841 110.552 272.891 110.51 272.947 110.48C273.004 110.45 273.066 110.431 273.129 110.425C273.258 110.411 273.386 110.448 273.487 110.529C273.588 110.61 273.652 110.728 273.666 110.856C273.776 111.984 273.564 113.119 273.054 114.131C272.544 115.142 271.758 115.989 270.787 116.571C270.732 116.606 270.67 116.629 270.606 116.639C270.541 116.649 270.476 116.647 270.413 116.631C270.349 116.616 270.29 116.588 270.238 116.549C270.185 116.51 270.142 116.461 270.109 116.405V116.405Z" fill="#E0E0E0"/>
<path d="M273.383 116.522C273.328 116.422 273.31 116.305 273.331 116.193C273.352 116.08 273.412 115.979 273.5 115.905C273.948 115.487 274.299 114.977 274.53 114.409C274.761 113.842 274.866 113.231 274.838 112.619C274.838 112.49 274.889 112.366 274.981 112.275C275.072 112.184 275.196 112.132 275.325 112.132C275.454 112.132 275.578 112.184 275.669 112.275C275.761 112.366 275.812 112.49 275.812 112.619C275.839 113.378 275.7 114.134 275.406 114.834C275.113 115.535 274.671 116.163 274.111 116.676C274.06 116.716 274.003 116.745 273.941 116.763C273.88 116.78 273.815 116.785 273.752 116.778C273.688 116.77 273.627 116.75 273.571 116.719C273.515 116.688 273.466 116.646 273.426 116.596L273.383 116.522Z" fill="#E0E0E0"/>
<path d="M216.67 175.14C216.785 175.199 216.873 175.3 216.915 175.422C216.956 175.544 216.948 175.677 216.892 175.794C216.502 176.657 216.365 177.613 216.498 178.551C216.632 179.489 217.029 180.369 217.644 181.09C217.728 181.189 217.769 181.317 217.758 181.446C217.748 181.575 217.687 181.695 217.589 181.78C217.491 181.864 217.365 181.906 217.237 181.896C217.108 181.887 216.989 181.828 216.905 181.731C216.165 180.864 215.689 179.804 215.532 178.676C215.375 177.548 215.543 176.398 216.017 175.362C216.075 175.247 216.176 175.159 216.298 175.118C216.42 175.076 216.554 175.084 216.67 175.14V175.14Z" fill="#E0E0E0"/>
<path d="M213.908 176.897C214.013 176.947 214.097 177.033 214.144 177.139C214.192 177.245 214.2 177.365 214.167 177.477C214.037 178.076 214.039 178.696 214.172 179.294C214.305 179.892 214.566 180.454 214.937 180.942C215.01 181.048 215.038 181.178 215.017 181.305C214.995 181.431 214.924 181.544 214.82 181.62C214.715 181.694 214.584 181.724 214.457 181.702C214.33 181.68 214.216 181.608 214.142 181.503C213.685 180.893 213.367 180.191 213.209 179.446C213.051 178.7 213.058 177.93 213.23 177.187C213.248 177.125 213.279 177.068 213.321 177.018C213.362 176.968 213.413 176.927 213.471 176.898C213.528 176.868 213.591 176.85 213.655 176.844C213.72 176.839 213.785 176.846 213.846 176.867L213.908 176.897Z" fill="#E0E0E0"/>
<path d="M180.438 5.87573C180.408 5.30084 180.242 4.74132 179.954 4.24301C179.665 3.7447 179.263 3.32179 178.78 3.00893L177.436 2.22595C176.922 1.96879 176.355 1.8349 175.781 1.8349C175.206 1.8349 174.639 1.96879 174.125 2.22595L142.899 20.2714C142.416 20.585 142.014 21.0081 141.726 21.5062C141.438 22.0044 141.272 22.5635 141.24 23.1382V39.2847C141.272 39.8593 141.439 40.4182 141.727 40.9163C142.015 41.4144 142.416 41.8376 142.899 42.1515L144.249 42.9283C144.761 43.1898 145.329 43.3261 145.904 43.3261C146.48 43.3261 147.047 43.1898 147.56 42.9283L178.78 24.8891C179.263 24.5762 179.665 24.1533 179.954 23.655C180.242 23.1567 180.408 22.5972 180.438 22.0223V5.87573Z" fill="#407BFF"/>
<path opacity="0.5" d="M180.438 5.87573C180.408 5.30084 180.242 4.74132 179.954 4.24301C179.665 3.7447 179.263 3.32179 178.78 3.00893L177.436 2.22595C176.922 1.96879 176.355 1.8349 175.781 1.8349C175.206 1.8349 174.639 1.96879 174.125 2.22595L142.899 20.2714C142.416 20.585 142.014 21.0081 141.726 21.5062C141.438 22.0044 141.272 22.5635 141.24 23.1382V39.2847C141.272 39.8593 141.439 40.4182 141.727 40.9163C142.015 41.4144 142.416 41.8376 142.899 42.1515L144.249 42.9283C144.761 43.1898 145.329 43.3261 145.904 43.3261C146.48 43.3261 147.047 43.1898 147.56 42.9283L178.78 24.8891C179.263 24.5762 179.665 24.1533 179.954 23.655C180.242 23.1567 180.408 22.5972 180.438 22.0223V5.87573Z" fill="white"/>
<path opacity="0.2" d="M141.24 39.2848C141.272 39.8593 141.439 40.4183 141.727 40.9164C142.015 41.4144 142.416 41.8376 142.899 42.1516L144.249 42.9284C144.715 43.1634 145.226 43.297 145.748 43.3204C146.27 43.3438 146.79 43.2564 147.276 43.064C146.493 43.3599 145.901 42.9222 145.901 41.9728V25.8262C145.921 25.249 146.089 24.6865 146.388 24.1925L141.727 21.5045C141.427 21.9981 141.259 22.5608 141.24 23.1382V39.2848Z" fill="black"/>
<path opacity="0.3" d="M180.382 5.4072C180.191 4.70437 179.55 4.47626 178.785 4.92016L147.558 22.9594C147.067 23.261 146.663 23.6861 146.387 24.1925L141.732 21.5044C142.008 20.9997 142.409 20.5749 142.898 20.2714L174.118 2.23214C174.631 1.97071 175.198 1.83441 175.773 1.83441C176.349 1.83441 176.916 1.97071 177.429 2.23214L178.785 3.00895C179.2 3.27997 179.555 3.63223 179.829 4.04445C180.104 4.45666 180.292 4.92026 180.382 5.4072Z" fill="white"/>
<path d="M145.906 31.0481L141.252 28.3601L135.641 33.7608C135.557 33.8457 135.493 33.9488 135.454 34.0621C135.416 34.1754 135.403 34.296 135.418 34.4148C135.433 34.5337 135.475 34.6475 135.54 34.7478C135.605 34.8481 135.693 34.9323 135.796 34.9938L140.376 37.6572C140.566 37.7564 140.779 37.8012 140.993 37.7866L145.925 36.8434V31.0481H145.906Z" fill="#407BFF"/>
<path opacity="0.5" d="M145.906 31.0481L141.252 28.3601L135.641 33.7608C135.557 33.8457 135.493 33.9488 135.454 34.0621C135.416 34.1754 135.403 34.296 135.418 34.4148C135.433 34.5337 135.475 34.6475 135.54 34.7478C135.605 34.8481 135.693 34.9323 135.796 34.9938L140.376 37.6572C140.566 37.7564 140.779 37.8012 140.993 37.7866L145.925 36.8434V31.0481H145.906Z" fill="white"/>
<path opacity="0.3" d="M140.377 37.6572L137.91 36.2453L137.621 36.0542L136.301 35.2897L136.141 35.1911L135.79 34.9877C135.687 34.9261 135.6 34.842 135.534 34.7417C135.469 34.6414 135.427 34.5275 135.412 34.4087C135.397 34.2899 135.41 34.1692 135.449 34.0559C135.487 33.9426 135.551 33.8396 135.636 33.7546L141.246 28.3539L145.907 31.0481L140.296 36.4241C140.207 36.5033 140.137 36.6017 140.092 36.712C140.047 36.8222 140.027 36.9413 140.035 37.0602C140.043 37.1792 140.078 37.2947 140.137 37.3982C140.196 37.5016 140.278 37.5902 140.377 37.6572V37.6572Z" fill="white"/>
<path d="M155.026 26.0852C154.382 26.5042 153.845 27.0693 153.461 27.7345C153.076 28.3998 152.854 29.1464 152.812 29.9137C152.812 31.3194 153.805 31.8928 155.026 31.1899C155.669 30.7706 156.204 30.2053 156.588 29.54C156.971 28.8747 157.192 28.1282 157.233 27.3614C157.233 25.9434 156.246 25.3823 155.026 26.0852Z" fill="white"/>
<path d="M163.17 21.375C162.527 21.7943 161.991 22.3596 161.608 23.0249C161.224 23.6902 161.003 24.4367 160.963 25.2035C160.963 26.6092 161.949 27.1826 163.17 26.4736C163.813 26.0549 164.347 25.4905 164.731 24.8264C165.114 24.1622 165.336 23.417 165.377 22.6512C165.365 21.2393 164.391 20.666 163.17 21.375Z" fill="white"/>
<path d="M171.313 16.6586C170.67 17.079 170.136 17.6446 169.752 18.3097C169.369 18.9747 169.147 19.7206 169.105 20.4872C169.105 21.899 170.092 22.4662 171.313 21.7634C171.958 21.3438 172.494 20.7777 172.879 20.1113C173.263 19.4449 173.485 18.697 173.526 17.9286C173.526 16.5291 172.533 15.9558 171.313 16.6586Z" fill="white"/>
<path d="M240.541 37.5277L238.303 33.3416L240.103 28.1444V24.9446L234.592 28.1259V31.3071L236.959 35.4131C236.998 35.4744 237.054 35.5236 237.12 35.5549V35.5549L240.541 37.5277Z" fill="#407BFF"/>
<path opacity="0.2" d="M240.541 37.5277L238.303 33.3416L240.103 28.1444V24.9446L234.592 28.1259V31.3071L236.959 35.4131C236.998 35.4744 237.054 35.5236 237.12 35.5549V35.5549L240.541 37.5277Z" fill="black"/>
<path d="M257.279 4.2297C257.249 3.65642 257.083 3.09849 256.796 2.60137C256.509 2.10424 256.108 1.682 255.627 1.36906L254.283 0.592252C253.772 0.330869 253.205 0.19458 252.631 0.19458C252.056 0.19458 251.49 0.330869 250.979 0.592252L219.826 18.5884C219.347 18.9051 218.948 19.3291 218.662 19.8267C218.375 20.3243 218.208 20.8818 218.174 21.4552V37.5647C218.204 38.138 218.37 38.6959 218.657 39.193C218.944 39.6902 219.345 40.1124 219.826 40.4254L221.17 41.2022C221.683 41.4583 222.249 41.5917 222.822 41.5917C223.396 41.5917 223.962 41.4583 224.475 41.2022L238.038 33.3108L240.405 37.4044C240.439 37.4592 240.488 37.5033 240.546 37.5318C240.604 37.5602 240.669 37.5719 240.733 37.5655C240.797 37.5591 240.858 37.5348 240.909 37.4954C240.96 37.4561 240.999 37.4032 241.022 37.3428L243.525 30.1357L255.596 23.1999C256.078 22.887 256.478 22.4647 256.765 21.9676C257.052 21.4705 257.218 20.9125 257.249 20.3393L257.279 4.2297Z" fill="#407BFF"/>
<path d="M227.507 24.5747L252.415 10.1914C253.155 9.76602 253.753 10.0681 253.753 10.8696C253.719 11.3176 253.58 11.7515 253.348 12.136C253.116 12.5206 252.796 12.8449 252.415 13.0829L227.507 27.4662C226.774 27.8916 226.176 27.5895 226.176 26.788C226.209 26.3406 226.347 25.9073 226.578 25.5229C226.809 25.1385 227.128 24.8137 227.507 24.5747V24.5747Z" fill="white"/>
<path d="M227.507 30.9803L252.415 16.6032C253.155 16.1778 253.753 16.4799 253.753 17.2752C253.72 17.7243 253.582 18.1594 253.349 18.5451C253.117 18.9307 252.797 19.2561 252.415 19.4946L227.507 33.8718C226.774 34.3033 226.176 33.9951 226.176 33.1998C226.208 32.7513 226.346 32.3167 226.577 31.9312C226.808 31.5456 227.127 31.2199 227.507 30.9803V30.9803Z" fill="white"/>
<path opacity="0.2" d="M218.174 37.5647C218.204 38.138 218.37 38.696 218.657 39.1931C218.944 39.6902 219.345 40.1124 219.826 40.4254L221.17 41.2022C221.636 41.4363 222.145 41.5694 222.666 41.5928C223.187 41.6162 223.706 41.5293 224.191 41.3378C223.414 41.6276 222.822 41.1899 222.822 40.2466V24.137C222.842 23.5625 223.008 23.0024 223.303 22.5094L218.655 19.8214C218.359 20.3167 218.194 20.8787 218.174 21.4552V37.5647Z" fill="black"/>
<path opacity="0.2" d="M257.223 3.74879C257.032 3.04596 256.391 2.82401 255.626 3.26174L224.474 21.264C223.984 21.565 223.582 21.9904 223.309 22.497L218.66 19.8152C218.937 19.3113 219.338 18.8867 219.825 18.5822L250.972 0.579897C251.486 0.322733 252.052 0.188843 252.627 0.188843C253.202 0.188843 253.769 0.322733 254.282 0.579897L255.626 1.35671C256.041 1.62568 256.397 1.97659 256.672 2.38792C256.946 2.79926 257.134 3.26235 257.223 3.74879V3.74879Z" fill="white"/>
</svg>
