<svg width="516" height="437" viewBox="0 0 516 437" fill="none" xmlns="http://www.w3.org/2000/svg">
<path d="M463.547 407.666H429.482V407.924H463.547V407.666Z" fill="#EBEBEB"/>
<path d="M341.483 410.464H332.545V410.721H341.483V410.464Z" fill="#EBEBEB"/>
<path d="M428.454 398.122H408.717V398.379H428.454V398.122Z" fill="#EBEBEB"/>
<path d="M99.1921 399.85H54.77V400.107H99.1921V399.85Z" fill="#EBEBEB"/>
<path d="M114.867 399.85H108.356V400.107H114.867V399.85Z" fill="#EBEBEB"/>
<path d="M232.387 404.19H136.034V404.447H232.387V404.19Z" fill="#EBEBEB"/>
<path d="M244.575 345.245H45.9764C44.4206 345.242 42.9294 344.622 41.8303 343.521C40.7311 342.42 40.1138 340.928 40.1138 339.372V60.1994C40.1273 58.6525 40.7506 57.1734 41.8483 56.0834C42.946 54.9934 44.4294 54.3805 45.9764 54.3779H244.575C246.132 54.3779 247.626 54.9966 248.727 56.098C249.829 57.1994 250.447 58.6932 250.447 60.2508V339.372C250.447 340.93 249.829 342.424 248.727 343.525C247.626 344.626 246.132 345.245 244.575 345.245ZM45.9764 54.5836C44.4888 54.5863 43.063 55.1792 42.0121 56.2321C40.9611 57.2849 40.3709 58.7117 40.3709 60.1994V339.372C40.3709 340.86 40.9611 342.287 42.0121 343.34C43.063 344.392 44.4888 344.985 45.9764 344.988H244.575C246.063 344.985 247.49 344.393 248.542 343.34C249.595 342.288 250.188 340.861 250.19 339.372V60.1994C250.188 58.7108 249.595 57.284 248.542 56.2314C247.49 55.1789 246.063 54.5863 244.575 54.5836H45.9764Z" fill="#EBEBEB"/>
<path d="M467.055 345.245H268.446C266.889 345.242 265.397 344.623 264.296 343.522C263.196 342.421 262.576 340.929 262.573 339.372V60.1994C262.589 58.6515 263.215 57.1725 264.314 56.0828C265.414 54.9931 266.898 54.3805 268.446 54.3779H467.055C468.6 54.3833 470.08 54.9973 471.176 56.087C472.271 57.1767 472.893 58.6543 472.907 60.1994V339.372C472.907 340.926 472.291 342.417 471.194 343.518C470.097 344.619 468.609 345.24 467.055 345.245ZM268.446 54.5836C266.958 54.5863 265.531 55.1789 264.478 56.2314C263.426 57.284 262.833 58.7108 262.83 60.1994V339.372C262.833 340.861 263.426 342.288 264.478 343.34C265.531 344.393 266.958 344.985 268.446 344.988H467.055C468.543 344.985 469.97 344.393 471.022 343.34C472.075 342.288 472.668 340.861 472.67 339.372V60.1994C472.668 58.7108 472.075 57.284 471.022 56.2314C469.97 55.1789 468.543 54.5863 467.055 54.5836H268.446Z" fill="#EBEBEB"/>
<path d="M515.077 391.117H0.813477V391.375H515.077V391.117Z" fill="#EBEBEB"/>
<path d="M358.062 301.303C413.355 246.01 413.355 156.362 358.062 101.069C302.769 45.7761 213.121 45.7761 157.828 101.069C102.535 156.362 102.535 246.01 157.828 301.303C213.121 356.596 302.769 356.596 358.062 301.303Z" fill="#E6E6E6"/>
<path d="M276.9 69.8058L294.745 80.5128V97.576C294.745 97.576 281.21 95.7247 276.9 88.3193C276.9 88.3193 280.593 86.7559 270.122 80.5128C259.652 74.2696 262.12 66.7202 276.9 69.8058Z" fill="#FAFAFA"/>
<path d="M267.047 205.283L256.762 210.21C256.762 210.21 253.676 216.165 254.304 215.959C254.931 215.754 252.051 228.302 252.658 228.477C253.265 228.651 246.713 234.02 246.713 234.02L243.627 241.611V250.436L258.449 270.543L269.279 276.714L259.837 328.418L263.735 329.858L312.981 293.737L316.262 284.922L330.836 279.173L338.632 258.859L347.457 248.574C347.457 248.574 348.28 238.289 347.457 238.525C346.634 238.762 342.736 240.161 342.736 240.161L335.351 234.617C335.351 234.617 319.759 231.747 318.895 232.56C318.031 233.372 315.624 223.015 315.624 223.015L301.225 219.014L286.239 209.161L275.368 211.218L267.047 205.283Z" fill="#FAFAFA"/>
<path d="M239.113 179.858H247.043L258.357 185.772L279.421 191.049L280.449 192.735L259.57 192.406L263.438 189.989L260.352 188.014L251.939 187.819L252.967 186.79L244.266 182.337C244.266 182.337 238.815 181.041 238.609 181.658L236.346 181.936L239.113 179.858Z" fill="#FAFAFA"/>
<path d="M255.425 192.766L253.501 190.894L250.354 191.048L251.66 192.766H255.425Z" fill="#FAFAFA"/>
<path d="M305.258 69.8058H302.799L320.336 80.3174L323.113 83.3104L340.351 93.246L343.694 97.5761L346.46 107.121L355.717 114.506L351.407 117.591L361.261 129.934H364.645L365.879 125.007L358.484 109.579L368.769 115.318C368.769 115.318 346.769 81.1196 305.258 69.8058Z" fill="#FAFAFA"/>
<path d="M377.398 126.488H374.735L370.291 120.636L365.55 133.574C365.55 133.574 368.481 148.663 368.707 149.589C368.934 150.514 367.391 152.674 367.391 152.674L368.707 169.295L372.112 175.127L374.724 189.279L386.326 205.283L395.768 191.83L397.3 195.132C397.3 195.132 398.854 160.964 377.398 126.488Z" fill="#FAFAFA"/>
<path d="M308.292 83.3207H305.216V87.0851L308.292 88.9364H311.069V86.1286L308.292 83.3207Z" fill="#FAFAFA"/>
<path d="M327.072 90.7775L331.69 95.7041L332.914 99.8388L337.532 104.323L339.384 101.556L342.768 104.323V101.248L340.309 97.5555L327.072 90.7775Z" fill="#FAFAFA"/>
<path d="M294.756 123.413C294.756 123.413 273.157 131.415 265.196 136.341C257.235 141.268 258.49 151.769 258.49 151.769L245.5 159.102L248.585 173.265L245.5 175.106L240.573 163.402C240.573 163.402 223.335 160.944 216.135 162.178C208.936 163.412 207.331 177.606 207.331 177.606L211.661 189.279L221.515 189.897L222.749 183.129L233.209 183.736L226.441 196.664L238.784 198.516L239.987 207.598L252.329 216.988C252.329 216.988 254.787 220.074 252.329 221.297C249.871 222.521 191.379 187.438 185.835 178.819C180.291 170.2 173.164 146.493 178.748 129.872C183.253 116.367 191.605 103.891 194.259 95.7247L194.351 95.447C194.434 95.2261 194.499 94.9992 194.547 94.7681C195.297 91.5591 192.747 89.5227 190.751 88.957C188.602 88.3399 184.58 90.8083 184.58 90.8083H176.691L184.848 86.1491L188.242 82.5698L190.391 80.6465L198.393 77.2626L198.095 74.7942C206.704 69.8675 213.173 69.0961 213.173 69.0961L207.321 73.5599H213.492L214.747 80.5128H227.089C227.089 80.5128 224.004 79.7002 231.399 75.6273C238.794 71.5543 262.738 69.8058 262.738 69.8058L255.353 80.5128L271.316 89.5535L269.464 96.3212L258.449 93.2356V89.5535L251.62 85.4394L251.002 92.6391L248.544 95.7247L245.459 93.2665L236.778 101.886L252.206 116.933L254.736 97.576L276.901 102.503L294.756 123.413Z" fill="#FAFAFA"/>
<path d="M107.624 123.589C111.058 109.038 102.046 94.4582 87.4952 91.0238C72.9442 87.5895 58.3642 96.6013 54.9299 111.152C51.4955 125.703 60.5073 140.283 75.0583 143.718C89.6093 147.152 104.189 138.14 107.624 123.589Z" fill="#FAFAFA"/>
<path d="M95.8468 138.824C104.433 135.268 108.51 125.425 104.953 116.839C101.397 108.254 91.5539 104.176 82.9682 107.733C74.3825 111.289 70.3053 121.132 73.8617 129.718C77.418 138.304 87.2611 142.381 95.8468 138.824Z" fill="#EBEBEB"/>
<path d="M91.9826 132.227C96.0838 132.227 99.4086 128.902 99.4086 124.801C99.4086 120.7 96.0838 117.375 91.9826 117.375C87.8814 117.375 84.5566 120.7 84.5566 124.801C84.5566 128.902 87.8814 132.227 91.9826 132.227Z" fill="#E0E0E0"/>
<path d="M92.8051 112.531C92.8051 113.733 92.4486 114.908 91.7807 115.908C91.1128 116.908 90.1634 117.687 89.0527 118.147C87.942 118.607 86.7198 118.727 85.5407 118.493C84.3615 118.258 83.2784 117.679 82.4283 116.829C81.5782 115.979 80.9993 114.896 80.7648 113.717C80.5302 112.538 80.6506 111.315 81.1107 110.205C81.5707 109.094 82.3498 108.145 83.3495 107.477C84.3491 106.809 85.5243 106.452 86.7265 106.452C88.3387 106.452 89.8848 107.093 91.0248 108.233C92.1647 109.373 92.8051 110.919 92.8051 112.531Z" fill="white"/>
<path d="M386.367 92.5877L417.109 69.5178L422.705 82.6521L391.88 105.475L386.367 92.5877Z" fill="#F5F5F5"/>
<path d="M386.295 92.5465C386.325 92.5846 386.365 92.6134 386.41 92.6298C386.456 92.6462 386.505 92.6494 386.552 92.6391C386.579 92.6446 386.607 92.6446 386.634 92.6391L389.905 90.1912L391.078 92.9785L387.735 95.4778C387.684 95.5167 387.65 95.5738 387.641 95.6371C387.631 95.7005 387.646 95.7651 387.684 95.8172C387.713 95.8553 387.753 95.8841 387.799 95.9005C387.844 95.9169 387.893 95.9201 387.941 95.9098H388.023L391.273 93.4825L392.446 96.2801L389.123 98.7383C389.079 98.7858 389.055 98.8483 389.055 98.9131C389.055 98.978 389.079 99.0404 389.123 99.088C389.152 99.1275 389.192 99.1568 389.238 99.1716C389.285 99.1865 389.335 99.186 389.381 99.1702C389.381 99.1702 389.432 99.1702 389.463 99.1702L392.682 96.6606L393.844 99.4479L390.563 101.886C390.521 101.921 390.492 101.969 390.48 102.022C390.468 102.076 390.475 102.132 390.498 102.182C390.522 102.231 390.561 102.271 390.61 102.296C390.659 102.321 390.715 102.328 390.769 102.318C390.796 102.327 390.825 102.327 390.851 102.318L394.04 99.9519L395.212 102.75L391.952 105.156C391.901 105.195 391.867 105.252 391.858 105.316C391.848 105.379 391.863 105.443 391.9 105.496C391.928 105.536 391.968 105.566 392.014 105.583C392.06 105.599 392.11 105.601 392.158 105.588C392.185 105.594 392.213 105.594 392.24 105.588L408.84 93.3179L412.43 98.0594C412.46 98.0975 412.5 98.1263 412.545 98.1427C412.591 98.1591 412.64 98.1623 412.687 98.152C412.714 98.1575 412.742 98.1575 412.769 98.152C412.796 98.1336 412.818 98.1101 412.835 98.0828C412.852 98.0555 412.863 98.0251 412.868 97.9933C412.873 97.9616 412.871 97.9292 412.863 97.8981C412.855 97.867 412.84 97.8379 412.821 97.8126L409.231 93.0711L422.89 82.9812C422.943 82.943 422.979 82.8853 422.99 82.8207C423 82.7561 422.985 82.6899 422.947 82.6367C422.908 82.5835 422.851 82.5476 422.786 82.537C422.721 82.5264 422.655 82.5419 422.602 82.5801L419.239 85.0691L418.004 82.1481L421.481 79.5665C421.513 79.5507 421.542 79.5279 421.565 79.4997C421.588 79.4716 421.604 79.4388 421.613 79.4036C421.621 79.3684 421.622 79.3318 421.615 79.2963C421.608 79.2608 421.593 79.2272 421.572 79.1981C421.55 79.1689 421.523 79.1449 421.491 79.1276C421.459 79.1103 421.424 79.1002 421.388 79.0981C421.351 79.096 421.315 79.1018 421.282 79.1152C421.248 79.1286 421.218 79.1493 421.193 79.1757L417.84 81.6544L416.647 78.8363L420.082 76.2855C420.109 76.2662 420.131 76.2417 420.148 76.2136C420.165 76.1854 420.177 76.1541 420.182 76.1215C420.186 76.0889 420.185 76.0557 420.176 76.0238C420.168 75.9919 420.154 75.962 420.134 75.9358C420.087 75.8946 420.026 75.8719 419.964 75.8719C419.901 75.8719 419.841 75.8946 419.794 75.9358L416.451 78.4249L415.258 75.5964L418.683 73.0457C418.716 73.0298 418.745 73.007 418.767 72.9789C418.79 72.9507 418.806 72.9179 418.815 72.8827C418.824 72.8476 418.825 72.8109 418.817 72.7754C418.81 72.7399 418.796 72.7064 418.774 72.6772C418.753 72.6481 418.725 72.624 418.693 72.6067C418.661 72.5894 418.626 72.5794 418.59 72.5772C418.554 72.5751 418.518 72.5809 418.484 72.5944C418.45 72.6078 418.42 72.6284 418.395 72.6548L415.063 75.1336L413.87 72.3154L417.285 69.7647C417.311 69.7454 417.334 69.7209 417.351 69.6927C417.368 69.6646 417.379 69.6332 417.384 69.6007C417.389 69.5681 417.387 69.5349 417.379 69.503C417.37 69.4711 417.356 69.4412 417.336 69.415C417.29 69.3716 417.229 69.3474 417.166 69.3474C417.103 69.3474 417.042 69.3716 416.997 69.415L413.592 71.8629C413.56 71.8474 413.525 71.8393 413.489 71.8393C413.454 71.8393 413.418 71.8474 413.386 71.8629C413.337 71.8864 413.297 71.925 413.271 71.973C413.245 72.0211 413.235 72.0762 413.242 72.1303L408.881 75.3907C408.851 75.3754 408.818 75.3673 408.784 75.3673C408.75 75.3673 408.716 75.3754 408.686 75.3907C408.636 75.4129 408.594 75.4512 408.568 75.4997C408.542 75.5481 408.533 75.6039 408.542 75.6581L404.181 78.9186C404.118 78.8928 404.048 78.8928 403.986 78.9186C403.937 78.9402 403.897 78.977 403.871 79.0233C403.845 79.0696 403.835 79.123 403.842 79.1757L399.47 82.4464C399.44 82.431 399.407 82.423 399.373 82.423C399.339 82.423 399.305 82.431 399.275 82.4464C399.227 82.4662 399.188 82.5011 399.162 82.5456C399.136 82.5902 399.125 82.642 399.131 82.6932L394.739 85.9125C394.71 85.9001 394.678 85.8937 394.647 85.8937C394.615 85.8937 394.583 85.9001 394.554 85.9125C394.506 85.9324 394.467 85.9672 394.441 86.0118C394.415 86.0563 394.404 86.1082 394.41 86.1594L390.039 89.4301C389.979 89.4097 389.914 89.4097 389.854 89.4301C389.806 89.4499 389.766 89.4848 389.74 89.5293C389.714 89.5739 389.704 89.6257 389.71 89.6769L386.326 92.2071C386.301 92.227 386.28 92.2517 386.265 92.2798C386.25 92.3078 386.241 92.3386 386.238 92.3703C386.235 92.402 386.239 92.4339 386.249 92.4642C386.258 92.4945 386.274 92.5225 386.295 92.5465ZM398.936 95.6321L397.753 92.8345L402.073 89.6255L403.245 92.4334L398.936 95.6321ZM403.441 92.8962L404.623 95.7041L400.304 98.8925L399.121 96.0949L403.441 92.8962ZM408.367 88.6381L407.184 85.82L411.494 82.6213L412.687 85.4394L408.367 88.6381ZM412.882 85.892L414.076 88.7101L409.756 91.9088L408.563 89.101L412.882 85.892ZM402.278 88.8644L401.096 86.0668L405.405 82.8475L406.588 85.6657L402.278 88.8644ZM400.91 85.6143L399.728 82.8167L403.996 79.5974L405.179 82.4053L400.91 85.6143ZM404.438 79.2991L408.737 76.0798L409.931 78.898L405.611 82.1481L404.438 79.2991ZM410.126 79.3608L411.299 82.1481L406.989 85.3468L405.806 82.539L410.126 79.3608ZM407.976 88.957L406.824 89.8106L405.024 87.4553L406.783 86.1491L407.976 88.957ZM406.434 90.0986L403.657 92.1557L402.474 89.3478L404.634 87.7433L406.434 90.0986ZM397.557 92.4334L396.385 89.6358L400.694 86.4268L401.877 89.2244L397.557 92.4334ZM396.189 89.173L395.017 86.3754L399.316 83.1561L400.499 85.964L396.189 89.173ZM414.631 75.4319L410.321 78.6409L409.139 75.7815L413.448 72.5623L414.631 75.4319ZM416.019 78.7129L411.71 81.9219L410.517 79.0625L414.826 75.8535L416.019 78.7129ZM417.367 81.9527L413.047 85.1514L411.864 82.3436L416.174 79.1345L417.367 81.9527ZM418.755 85.244L414.435 88.4324L413.253 85.6143L417.573 82.4155L418.755 85.244ZM408.851 92.5568L407.082 90.2015L408.11 89.4198L409.293 92.2277L408.851 92.5568ZM408.46 92.8551L405.024 95.4161L403.842 92.6185L406.711 90.4895L408.46 92.8551ZM394.41 99.6331L398.72 96.4344L399.882 99.2114L395.562 102.41L394.41 99.6331ZM393.042 96.3829L397.352 93.1739L398.524 95.9715L394.215 99.1702L393.042 96.3829ZM391.654 93.1019L395.963 89.8929L397.136 92.6905L392.826 95.8995L391.654 93.1019ZM390.286 89.8518L394.595 86.6325L395.768 89.4301L391.458 92.6391L390.286 89.8518Z" fill="#E6E6E6"/>
<path d="M431.71 110.463C435.345 103.524 432.667 94.9524 425.729 91.3173C418.79 87.6821 410.218 90.3601 406.583 97.2988C402.948 104.238 405.626 112.809 412.565 116.445C419.503 120.08 428.075 117.402 431.71 110.463Z" fill="#FAFAFA"/>
<path d="M422.501 109.65C424.424 105.178 422.356 99.994 417.884 98.0716C413.412 96.1491 408.228 98.2163 406.305 102.689C404.383 107.161 406.45 112.345 410.922 114.268C415.395 116.19 420.579 114.123 422.501 109.65Z" fill="#EBEBEB"/>
<path d="M415.156 109.911C416.921 108.689 417.362 106.267 416.14 104.501C414.918 102.736 412.496 102.295 410.73 103.517C408.965 104.739 408.524 107.161 409.746 108.927C410.968 110.692 413.39 111.133 415.156 109.911Z" fill="#E0E0E0"/>
<path d="M413.674 100.322C413.56 100.943 413.633 101.583 413.883 102.163C414.133 102.742 414.549 103.234 415.079 103.577C415.609 103.919 416.229 104.097 416.86 104.087C417.491 104.077 418.105 103.88 418.624 103.521C419.143 103.162 419.544 102.657 419.775 102.07C420.007 101.483 420.06 100.841 419.926 100.224C419.793 99.6074 419.479 99.0442 419.025 98.6057C418.572 98.1673 417.998 97.8733 417.377 97.7612C416.546 97.6111 415.69 97.7965 414.996 98.2765C414.302 98.7566 413.827 99.4922 413.674 100.322Z" fill="white"/>
<path d="M429.544 118.589H429.626C429.677 118.55 429.711 118.493 429.721 118.429C429.73 118.366 429.715 118.302 429.678 118.249L425.101 112.212C425.059 112.172 425.004 112.149 424.946 112.146C424.889 112.142 424.832 112.159 424.785 112.193C424.739 112.228 424.706 112.277 424.692 112.333C424.678 112.389 424.685 112.448 424.71 112.5L429.287 118.537C429.321 118.568 429.363 118.589 429.408 118.598C429.454 118.607 429.5 118.604 429.544 118.589Z" fill="#E0E0E0"/>
<path d="M445.003 103.192L450.752 115.945L419.927 139.242L414.085 126.447L445.003 103.192Z" fill="#F5F5F5"/>
<path d="M414.168 126.375C414.198 126.413 414.238 126.442 414.283 126.458C414.329 126.474 414.378 126.478 414.425 126.467H414.507L417.706 124.061L418.951 126.786L415.608 129.296C415.556 129.336 415.522 129.395 415.513 129.46C415.503 129.525 415.519 129.592 415.556 129.645C415.585 129.685 415.625 129.714 415.671 129.729C415.718 129.744 415.768 129.744 415.814 129.728C415.844 129.736 415.876 129.736 415.906 129.728L419.167 127.28L420.411 130.005L416.996 132.567C416.952 132.614 416.928 132.677 416.928 132.741C416.928 132.806 416.952 132.869 416.996 132.916C417.025 132.956 417.065 132.985 417.111 133C417.158 133.015 417.208 133.014 417.254 132.999C417.254 132.999 417.254 132.999 417.336 132.999L420.658 130.509L421.902 133.235L418.395 135.714C418.353 135.749 418.324 135.797 418.312 135.851C418.3 135.904 418.307 135.96 418.33 136.01C418.354 136.059 418.393 136.1 418.442 136.124C418.491 136.149 418.547 136.156 418.601 136.146H418.683L422.077 133.605L423.24 136.156C423.254 136.185 423.274 136.211 423.299 136.232C423.324 136.253 423.353 136.269 423.384 136.28L419.784 138.985C419.733 139.023 419.699 139.08 419.689 139.144C419.68 139.207 419.695 139.272 419.732 139.324C419.762 139.362 419.802 139.391 419.848 139.407C419.893 139.424 419.942 139.427 419.989 139.416H420.082L450.825 116.336C450.868 116.291 450.892 116.23 450.892 116.167C450.892 116.104 450.868 116.043 450.825 115.997C450.778 115.956 450.717 115.933 450.655 115.933C450.592 115.933 450.532 115.956 450.485 115.997L447.194 118.352L445.96 115.668L449.416 113.066C449.442 113.047 449.464 113.024 449.481 112.996C449.498 112.969 449.509 112.939 449.514 112.907C449.519 112.875 449.517 112.843 449.509 112.812C449.501 112.781 449.487 112.752 449.467 112.726C449.421 112.683 449.36 112.659 449.297 112.659C449.234 112.659 449.173 112.683 449.128 112.726L445.754 115.256L444.509 112.531L448.027 109.888C448.054 109.868 448.076 109.844 448.093 109.816C448.11 109.787 448.122 109.756 448.126 109.724C448.131 109.691 448.129 109.658 448.121 109.626C448.113 109.594 448.098 109.564 448.078 109.538C448.033 109.494 447.972 109.47 447.909 109.47C447.846 109.47 447.785 109.494 447.739 109.538L444.314 111.975L443.08 109.26L446.669 106.576C446.713 106.53 446.737 106.469 446.737 106.406C446.737 106.343 446.713 106.282 446.669 106.236C446.647 106.214 446.621 106.195 446.592 106.183C446.563 106.171 446.531 106.164 446.5 106.164C446.468 106.164 446.437 106.171 446.408 106.183C446.378 106.195 446.352 106.214 446.33 106.236L442.833 108.859L441.588 106.133L445.229 103.398C445.269 103.355 445.292 103.301 445.296 103.243C445.299 103.186 445.282 103.129 445.248 103.082C445.214 103.036 445.164 103.003 445.108 102.989C445.052 102.975 444.993 102.981 444.941 103.007L414.199 126.087C414.162 126.125 414.14 126.173 414.134 126.226C414.129 126.278 414.14 126.33 414.168 126.375ZM430.213 122.569L428.958 119.844L433.268 116.614L434.512 119.35L430.213 122.569ZM434.718 119.803L435.962 122.528L431.663 125.758L430.419 123.032L434.718 119.803ZM428.752 119.391L427.508 116.665L431.807 113.436L433.052 116.162L428.752 119.391ZM432.208 113.138L436.508 109.908L437.752 112.634L433.453 115.863L432.208 113.138ZM437.958 113.138L439.213 115.874L434.913 119.093L433.659 116.367L437.958 113.138ZM439.418 116.326L440.663 119.052L436.364 122.261L435.119 119.535L439.418 116.326ZM440.868 119.504L442.051 122.086C442.075 122.136 442.115 122.176 442.164 122.199L437.803 125.47C437.808 125.446 437.808 125.421 437.803 125.398L436.58 122.734L440.868 119.504ZM437.464 125.675L433.103 128.946C433.109 128.922 433.109 128.898 433.103 128.874L431.879 126.21L436.178 122.981L437.361 125.552C437.381 125.603 437.417 125.646 437.464 125.675ZM432.795 129.193L428.423 132.474C428.434 132.447 428.434 132.418 428.423 132.392L427.21 129.738L431.509 126.508L432.692 129.07C432.7 129.096 432.713 129.12 432.731 129.142C432.748 129.163 432.77 129.18 432.795 129.193ZM426.983 129.286L425.739 126.56L430.018 123.289L431.262 126.015L426.983 129.286ZM425.533 126.097L424.278 123.371L428.588 120.142L429.832 122.878L425.533 126.097ZM424.073 122.919L422.808 120.204L427.107 116.974L428.351 119.7L424.073 122.919ZM442.473 109.106L438.174 112.335L436.909 109.61L441.208 106.38L442.473 109.106ZM443.933 112.294L439.634 115.514L438.379 112.788L442.679 109.558L443.933 112.294ZM445.384 115.472L441.023 118.702L439.778 115.976L444.077 112.747L445.384 115.472ZM446.875 118.62L442.535 121.89C442.535 121.89 442.535 121.89 442.535 121.829L441.311 119.155L445.61 115.925L446.793 118.507C446.804 118.549 446.825 118.587 446.855 118.62H446.875ZM422.509 133.266L426.819 130.036L427.981 132.597C428.009 132.653 428.057 132.697 428.115 132.721L423.744 136.002C423.748 135.971 423.748 135.94 423.744 135.909L422.509 133.266ZM421.059 130.088L425.358 126.858L426.603 129.584L422.304 132.813L421.059 130.088ZM419.609 126.899L423.908 123.67L425.153 126.406L420.853 129.625L419.609 126.899ZM418.148 123.721L422.448 120.492L423.692 123.217L419.393 126.447L418.148 123.721Z" fill="#E6E6E6"/>
<path d="M257.945 437C368.083 437 457.366 431.787 457.366 425.357C457.366 418.927 368.083 413.714 257.945 413.714C147.808 413.714 58.5244 418.927 58.5244 425.357C58.5244 431.787 147.808 437 257.945 437Z" fill="#F5F5F5"/>
<path opacity="0.3" d="M99.4394 221.966V221.668C99.4343 221.767 99.4343 221.867 99.4394 221.966Z" fill="black"/>
<path d="M206.221 240.891C206.221 240.891 162.951 185.957 133.957 187.408C104.962 188.858 60.2935 239.646 60.2935 239.646C60.2935 239.646 134.07 276.961 206.221 240.891Z" fill="#407BFF"/>
<path opacity="0.9" d="M206.221 240.891C206.221 240.891 162.951 185.957 133.957 187.408C104.962 188.858 60.2935 239.646 60.2935 239.646C60.2935 239.646 134.07 276.961 206.221 240.891Z" fill="#FAFAFA"/>
<path d="M201.377 243.133C200.04 243.668 198.456 244.162 196.708 244.82C195.823 245.128 194.897 245.478 193.91 245.848L190.824 246.784L187.41 247.813L183.686 248.749C181.125 249.448 178.328 249.952 175.376 250.559C173.905 250.878 172.362 251.063 170.799 251.33C169.236 251.598 167.621 251.845 165.955 252.02C150.341 253.88 134.55 253.669 118.992 251.392C109.72 250.074 100.54 248.167 91.5099 245.684C86.8198 244.398 82.068 242.948 77.3162 241.292C74.93 240.479 72.5542 239.585 70.1783 238.669L68.3989 237.96H68.3063H68.3578L68.6972 237.456C62.8654 239.657 58.5456 240.305 55.4395 240.274L55.1104 240.644C57.4348 241.673 59.6976 242.773 62.0632 243.802L65.5602 245.231L67.4321 245.951C69.9417 246.867 72.4307 247.751 74.9198 248.553C79.891 250.165 84.8279 251.564 89.7305 252.75C99.1035 255.04 108.628 256.659 118.231 257.594C134.339 259.246 150.601 258.553 166.51 255.537C168.197 255.249 169.822 254.869 171.406 254.509C172.99 254.149 174.491 253.809 176.014 253.377C178.965 252.534 181.753 251.804 184.293 250.878L187.986 249.623L191.349 248.307L194.435 247.083C195.401 246.681 196.306 246.239 197.16 245.848C198.867 245.056 200.4 244.388 201.686 243.73L204.915 242.022L207.559 240.613L204.781 241.745L201.377 243.133Z" fill="#407BFF"/>
<path d="M102.638 219.611C102.549 223.845 103.309 228.055 104.873 231.992C106.438 235.928 108.775 239.511 111.747 242.529C114.719 245.547 118.266 247.939 122.178 249.564C126.089 251.188 130.287 252.013 134.523 251.989C143.148 251.95 151.417 248.543 157.565 242.495C163.714 236.446 167.256 228.234 167.436 219.611C167.528 215.381 166.772 211.176 165.213 207.243C163.654 203.311 161.323 199.73 158.358 196.712C155.393 193.695 151.854 191.301 147.949 189.673C144.045 188.045 139.854 187.215 135.623 187.233C134.541 187.231 133.46 187.285 132.383 187.397C124.349 188.213 116.89 191.939 111.412 197.872C105.933 203.805 102.813 211.537 102.638 219.611Z" fill="#407BFF"/>
<path opacity="0.3" d="M102.721 219.251V220.68C103.749 246.003 126.377 250.981 126.377 250.981C118.149 247.895 113.87 240.243 111.638 232.971C111.168 231.419 111.069 229.778 111.349 228.18C111.629 226.582 112.279 225.072 113.249 223.772C114.218 222.471 115.479 221.417 116.93 220.692C118.381 219.967 119.982 219.594 121.604 219.6H121.728C121.618 218.882 121.57 218.156 121.584 217.43C121.664 213.762 123.176 210.271 125.795 207.702C128.414 205.132 131.934 203.689 135.603 203.679C137.399 203.674 139.178 204.029 140.835 204.721C142.492 205.414 143.994 206.43 145.253 207.711C146.512 208.992 147.502 210.512 148.166 212.181C148.83 213.85 149.153 215.634 149.118 217.43C149.097 218.159 149.015 218.885 148.871 219.6C150.471 219.593 152.051 219.956 153.487 220.662C154.922 221.368 156.175 222.397 157.146 223.669C158.117 224.941 158.779 226.421 159.082 227.992C159.384 229.563 159.318 231.183 158.889 232.724C156.831 239.862 152.717 247.278 144.849 250.312C148.825 248.928 152.518 246.838 155.752 244.141C161.378 239.492 167.065 231.799 167.477 219.611C167.565 215.383 166.805 211.18 165.244 207.25C163.682 203.321 161.35 199.743 158.385 196.729C155.419 193.714 151.88 191.324 147.976 189.698C144.072 188.073 139.883 187.245 135.654 187.264C127.094 187.301 118.881 190.654 112.74 196.619C106.599 202.583 103.008 210.695 102.721 219.251Z" fill="black"/>
<path opacity="0.7" d="M121.532 217.44C121.519 218.166 121.564 218.892 121.666 219.611C122.124 222.827 123.73 225.77 126.187 227.896C128.644 230.023 131.787 231.189 135.036 231.182C138.321 231.169 141.497 230.004 144.01 227.89C146.523 225.775 148.214 222.845 148.788 219.611C148.939 218.897 149.018 218.17 149.024 217.44C149.063 215.647 148.742 213.865 148.082 212.197C147.422 210.53 146.436 209.011 145.181 207.73C143.926 206.449 142.427 205.432 140.773 204.738C139.12 204.044 137.344 203.687 135.551 203.689C131.882 203.699 128.362 205.143 125.743 207.712C123.123 210.281 121.612 213.772 121.532 217.44Z" fill="black"/>
<path opacity="0.7" d="M135.901 203.946C135.868 205.406 136.128 206.858 136.664 208.216C137.2 209.575 138.003 210.812 139.025 211.855C140.046 212.899 141.266 213.728 142.612 214.293C143.959 214.858 145.405 215.149 146.865 215.147C149.852 215.137 152.716 213.96 154.847 211.867C156.978 209.775 158.207 206.932 158.272 203.946C158.303 202.482 158.041 201.026 157.501 199.664C156.961 198.303 156.154 197.063 155.128 196.018C154.101 194.973 152.876 194.144 151.524 193.581C150.172 193.017 148.721 192.729 147.256 192.735C144.277 192.759 141.424 193.943 139.303 196.036C137.183 198.13 135.963 200.967 135.901 203.946Z" fill="#FAFAFA"/>
<path opacity="0.7" d="M201.377 243.133C200.04 243.668 198.456 244.162 196.708 244.82C195.823 245.128 194.897 245.478 193.91 245.848L190.824 246.784L187.41 247.813L183.686 248.749C181.125 249.448 178.328 249.952 175.376 250.559C173.905 250.878 172.362 251.063 170.799 251.33C169.236 251.598 167.621 251.845 165.955 252.02C150.341 253.88 134.55 253.669 118.992 251.392C109.72 250.074 100.54 248.167 91.5099 245.684C86.8198 244.398 82.068 242.948 77.3162 241.292C74.93 240.479 72.5542 239.585 70.1783 238.669L68.3989 237.96H68.3063H68.3578L68.6972 237.456C62.8654 239.657 58.5456 240.305 55.4395 240.274L55.1104 240.644C57.4348 241.673 59.6976 242.773 62.0632 243.802L65.5602 245.231L67.4321 245.951C69.9417 246.867 72.4307 247.751 74.9198 248.553C79.891 250.165 84.8279 251.564 89.7305 252.75C99.1035 255.04 108.628 256.659 118.231 257.594C134.339 259.246 150.601 258.553 166.51 255.537C168.197 255.249 169.822 254.869 171.406 254.509C172.99 254.149 174.491 253.809 176.014 253.377C178.965 252.534 181.753 251.804 184.293 250.878L187.986 249.623L191.349 248.307L194.435 247.083C195.401 246.681 196.306 246.239 197.16 245.848C198.867 245.056 200.4 244.388 201.686 243.73L204.915 242.022L207.559 240.613L204.781 241.745L201.377 243.133Z" fill="white"/>
<path d="M175.9 179.642C175.9 179.642 175.756 180.136 175.437 180.99C174.989 182.191 174.464 183.363 173.864 184.497C172.972 186.209 171.877 187.808 170.603 189.259C168.946 191.185 166.895 192.733 164.588 193.797C162.281 194.862 159.773 195.419 157.232 195.43C155.173 195.468 153.125 195.119 151.195 194.401C149.896 193.929 148.709 193.194 147.708 192.242C147.009 191.522 146.793 190.915 146.988 190.524C147.42 189.711 149.364 189.969 152.131 189.958C155.535 190.018 158.911 189.337 162.025 187.963C165.31 186.331 168.478 184.475 171.508 182.409C172.804 181.565 173.905 180.876 174.686 180.414C175.468 179.951 175.9 179.642 175.9 179.642Z" fill="#263238"/>
<path d="M199.958 201.077C199.958 201.077 199.783 201.498 199.382 202.249C199.14 202.701 198.865 203.134 198.559 203.545C198.168 204.108 197.734 204.641 197.263 205.139C196.696 205.755 196.077 206.319 195.411 206.826C194.65 207.427 193.838 207.96 192.984 208.42C191.014 209.458 188.87 210.124 186.659 210.385C184.439 210.605 182.2 210.491 180.014 210.045C179.068 209.838 178.139 209.556 177.237 209.202C176.45 208.908 175.69 208.547 174.964 208.122C172.29 206.528 171.241 204.8 171.694 204.09C172.146 203.381 173.967 203.555 176.476 203.843C177.104 203.905 177.783 203.998 178.533 204.039C179.284 204.08 180.025 204.121 180.817 204.183C182.533 204.224 184.25 204.162 185.959 203.998C187.77 203.792 189.508 203.566 191.102 203.319C191.904 203.165 192.706 203.062 193.437 202.887C194.167 202.712 194.877 202.568 195.494 202.403C196.111 202.239 196.728 202.064 197.273 201.91C197.74 201.789 198.2 201.645 198.651 201.478L199.958 201.077Z" fill="#263238"/>
<path d="M212.762 227.17C212.762 227.17 212.402 227.407 211.734 227.777C210.781 228.295 209.773 228.705 208.73 229.001C207.18 229.459 205.574 229.701 203.958 229.721C201.98 229.735 200.014 229.426 198.136 228.806C196.272 228.164 194.496 227.29 192.85 226.204C191.504 225.318 190.283 224.256 189.219 223.046C187.429 220.989 186.915 219.199 187.532 218.603C188.149 218.006 189.775 218.5 191.955 219.426L195.678 221.02C197.077 221.575 198.589 222.172 200.204 222.737C201.819 223.303 203.351 223.828 204.791 224.373C206.231 224.918 207.578 225.401 208.751 225.792C209.923 226.183 210.931 226.553 211.641 226.821C212.351 227.088 212.762 227.17 212.762 227.17Z" fill="#263238"/>
<path d="M96.1167 178.984C96.1167 178.984 96.6207 179.169 97.4846 179.56C98.3486 179.951 99.5417 180.527 100.961 181.247C103.79 182.687 107.276 184.61 110.567 186.04C113.53 187.273 116.689 187.97 119.896 188.097C122.57 188.282 124.607 188.261 125.203 189.321C125.481 189.835 125.327 190.575 124.679 191.429C123.748 192.545 122.568 193.426 121.233 194C119.262 194.888 117.131 195.367 114.97 195.409C112.263 195.481 109.575 194.946 107.101 193.846C104.718 192.781 102.608 191.188 100.93 189.187C99.6587 187.656 98.6001 185.961 97.7829 184.147C97.2541 182.943 96.8141 181.702 96.4664 180.434C96.2195 179.519 96.1167 178.984 96.1167 178.984Z" fill="#263238"/>
<path d="M71.7822 197.991L73.1193 198.259C73.5307 198.361 74.0141 198.464 74.5901 198.557C75.1661 198.649 75.7626 198.783 76.4517 198.855C77.1408 198.927 77.8197 199.071 78.5808 199.133C79.3419 199.194 80.103 199.277 80.895 199.38C82.4892 199.503 84.1451 199.647 85.8833 199.842C87.6215 200.038 89.2672 200.079 90.81 200.11C91.5711 200.11 92.3219 200.11 93.0213 200.11C93.7207 200.11 94.3892 200.11 95.0166 200.11C97.4954 200.038 99.4084 200.048 100.046 201.077C100.684 202.105 99.7376 204.008 97.0326 205.808C96.3052 206.297 95.5298 206.711 94.7184 207.042C93.7956 207.445 92.8387 207.765 91.8591 207.999C89.6002 208.513 87.2733 208.659 84.9679 208.431C82.6683 208.156 80.4491 207.414 78.4471 206.25C77.5806 205.731 76.7645 205.132 76.0095 204.461C75.3274 203.866 74.7072 203.205 74.1581 202.486C73.6998 201.935 73.2936 201.343 72.9445 200.717C72.6544 200.262 72.4098 199.78 72.2142 199.277C71.8748 198.454 71.7822 197.991 71.7822 197.991Z" fill="#263238"/>
<path d="M56.416 221.349C56.416 221.349 56.8788 221.215 57.6502 221.04C58.4216 220.865 59.5016 220.619 60.7358 220.331C61.9701 220.043 63.3791 219.703 64.8499 219.405C66.3868 219.053 67.9424 218.789 69.5092 218.613C72.7696 218.232 75.6803 217.759 78.0768 217.502C80.4732 217.245 82.1909 217.317 82.8903 218.325C83.5897 219.333 82.7874 221.123 80.607 223.005C79.3301 224.073 77.8976 224.94 76.3591 225.576C74.4793 226.361 72.4992 226.881 70.476 227.119C68.4429 227.329 66.3885 227.158 64.4179 226.615C62.8017 226.17 61.2645 225.476 59.8616 224.558C58.8983 223.937 58.0171 223.198 57.2388 222.357C56.6937 221.719 56.416 221.349 56.416 221.349Z" fill="#263238"/>
<path d="M136.58 163.165C136.58 163.165 136.662 163.669 136.744 164.513C136.827 165.356 136.899 166.57 136.991 167.907C137.207 170.684 137.485 174.078 137.845 177.071C137.845 177.266 137.845 177.462 137.845 177.637L137.958 178.171C138.04 178.511 138.071 178.881 138.153 179.2C138.32 179.84 138.519 180.472 138.75 181.092C138.925 181.72 139.254 182.244 139.47 182.82C139.686 183.396 140.015 183.9 140.313 184.363C141.445 186.358 142.483 187.819 142.082 188.95C141.907 189.506 141.239 189.886 140.262 189.979C138.918 190.004 137.591 189.674 136.415 189.022C135.591 188.6 134.815 188.09 134.101 187.5C133.285 186.779 132.557 185.964 131.931 185.073C131.222 184.082 130.638 183.008 130.193 181.874C129.98 181.278 129.802 180.67 129.658 180.054C129.575 179.735 129.493 179.426 129.421 179.107C129.349 178.788 129.339 178.47 129.298 178.151C129.236 177.503 129.195 176.865 129.185 176.248C129.2 175.645 129.258 175.043 129.359 174.448C129.442 173.872 129.545 173.306 129.658 172.761C129.771 172.216 130.007 171.733 130.193 171.249C130.838 169.554 131.748 167.971 132.887 166.559C133.666 165.63 134.531 164.776 135.469 164.009C135.824 163.708 136.195 163.427 136.58 163.165Z" fill="#263238"/>
<path d="M199.875 232.879C199.875 232.879 202.446 242.753 196.419 244.285C190.392 245.818 192.891 246.764 192.891 246.764L207.476 240.778L199.875 232.879Z" fill="#407BFF"/>
<path opacity="0.7" d="M199.875 232.879C199.875 232.879 202.446 242.753 196.419 244.285C190.392 245.818 192.891 246.764 192.891 246.764L207.476 240.778L199.875 232.879Z" fill="white"/>
<path d="M207.476 240.613C207.044 240.963 203.753 237.6 197.808 231.624C194.825 228.641 191.153 225.01 186.813 220.927C182.472 216.844 177.402 212.308 171.549 207.628C168.639 205.314 165.502 203 162.159 200.768C158.738 198.447 155.149 196.385 151.421 194.597C147.64 192.694 143.576 191.413 139.387 190.802L137.834 190.637C137.31 190.637 136.806 190.637 136.292 190.637C135.259 190.651 134.228 190.734 133.206 190.884C130.994 191.259 128.819 191.826 126.706 192.581C122.147 194.272 117.771 196.419 113.643 198.989C109.217 201.72 104.942 204.69 100.838 207.885C92.1153 214.725 83.8201 222.092 75.9993 229.947C73.9423 232.004 71.9984 233.979 70.075 235.975L68.6968 237.456C62.865 239.657 58.5452 240.305 55.4391 240.274C50.5536 240.274 48.6714 238.505 48.6714 238.505L52.8678 238.278C55.7459 238.124 58.4473 236.842 60.3863 234.709C61.1988 233.815 62.0319 232.92 62.8548 232.025C63.3382 231.5 63.8833 230.996 64.3153 230.472C66.2798 228.415 68.306 226.358 70.3733 224.301C78.4328 216.196 87.0228 208.637 96.0864 201.673C100.456 198.33 105.013 195.24 109.735 192.416C114.361 189.641 119.263 187.352 124.361 185.587C126.921 184.73 129.555 184.11 132.229 183.736C133.593 183.558 134.968 183.479 136.343 183.499C137.042 183.499 137.731 183.499 138.4 183.571L140.395 183.828C145.312 184.641 150.06 186.264 154.445 188.631C158.394 190.697 162.177 193.066 165.759 195.718C169.184 198.217 172.341 200.758 175.242 203.298C180.418 207.838 185.355 212.645 190.032 217.698C194.146 222.161 197.52 226.152 200.173 229.485C205.429 236.232 207.908 240.274 207.476 240.613Z" fill="#263238"/>
<path d="M451.637 222.203C437.506 202.661 418.725 187.644 398.648 180.033C376.473 172.638 354.236 177.667 332.565 194.967L332.082 194.371C353.979 176.886 376.462 171.815 398.936 179.303C419.136 186.996 438.081 202.074 452.296 221.771L451.637 222.203Z" fill="#407BFF"/>
<path d="M309.485 218.726L308.858 218.274C311.929 214.027 315.311 210.015 318.979 206.271L319.534 206.806C315.891 210.522 312.532 214.507 309.485 218.726Z" fill="#407BFF"/>
<path opacity="0.3" d="M413.695 221.966V221.668C413.7 221.767 413.7 221.867 413.695 221.966Z" fill="black"/>
<path d="M306.914 240.891C306.914 240.891 350.184 185.957 379.178 187.408C408.172 188.858 452.841 239.646 452.841 239.646C452.841 239.646 379.065 276.961 306.914 240.891Z" fill="#407BFF"/>
<path opacity="0.9" d="M306.914 240.891C306.914 240.891 350.184 185.957 379.178 187.408C408.172 188.858 452.841 239.646 452.841 239.646C452.841 239.646 379.065 276.961 306.914 240.891Z" fill="#FAFAFA"/>
<path d="M311.799 243.133C313.126 243.668 314.71 244.162 316.468 244.82C317.353 245.128 318.268 245.478 319.256 245.848L322.341 246.784L325.746 247.813L329.479 248.749C332.04 249.448 334.838 249.952 337.779 250.559C339.25 250.878 340.803 251.063 342.367 251.33C343.93 251.598 345.545 251.845 347.211 252.02C362.825 253.88 378.615 253.669 394.174 251.392C403.432 250.073 412.598 248.166 421.615 245.684C426.315 244.398 431.056 242.948 435.819 241.292C438.205 240.479 440.57 239.585 442.957 238.669L444.726 237.96H444.828H444.777L444.448 237.61C450.28 239.811 454.599 240.459 457.706 240.428L458.035 240.798C455.71 241.827 453.437 242.927 451.082 243.956L447.585 245.386L445.703 246.106C443.203 247.021 440.714 247.905 438.225 248.708C433.247 250.319 428.31 251.718 423.415 252.904C414.041 255.193 404.517 256.811 394.914 257.748C378.806 259.4 362.544 258.707 346.635 255.691C344.948 255.403 343.323 255.023 341.739 254.663C340.155 254.303 338.654 253.963 337.131 253.531C334.18 252.688 331.382 251.958 328.842 251.032L325.149 249.777L321.796 248.461L318.711 247.237C317.754 246.836 316.849 246.393 315.995 246.003C314.288 245.211 312.755 244.542 311.47 243.884L308.343 242.022L305.7 240.613L308.477 241.745L311.799 243.133Z" fill="#407BFF"/>
<path d="M410.465 219.611C410.554 223.839 409.797 228.043 408.237 231.975C406.677 235.906 404.346 239.486 401.381 242.503C398.417 245.52 394.879 247.914 390.976 249.543C387.072 251.172 382.882 252.003 378.653 251.989C370.028 251.95 361.759 248.543 355.61 242.495C349.462 236.446 345.92 228.234 345.74 219.611C345.648 215.382 346.403 211.178 347.962 207.246C349.52 203.314 351.85 199.733 354.814 196.716C357.778 193.698 361.315 191.305 365.219 189.676C369.122 188.047 373.312 187.217 377.542 187.233C378.627 187.23 379.712 187.285 380.792 187.397C388.819 188.223 396.268 191.952 401.738 197.885C407.208 203.817 410.323 211.543 410.496 219.611H410.465Z" fill="#407BFF"/>
<path opacity="0.3" d="M410.414 219.251V220.68C409.386 246.003 386.758 250.981 386.758 250.981C394.986 247.895 399.265 240.243 401.497 232.971C401.967 231.419 402.066 229.778 401.786 228.18C401.507 226.582 400.856 225.072 399.886 223.772C398.917 222.471 397.656 221.416 396.205 220.692C394.754 219.967 393.153 219.594 391.531 219.6H391.407C391.512 218.882 391.56 218.156 391.551 217.43C391.471 213.762 389.96 210.271 387.34 207.702C384.721 205.132 381.201 203.689 377.532 203.679C375.736 203.674 373.957 204.029 372.3 204.721C370.643 205.414 369.141 206.43 367.882 207.711C366.623 208.992 365.633 210.512 364.969 212.181C364.305 213.85 363.982 215.634 364.018 217.43C364.033 218.16 364.115 218.886 364.264 219.6C362.664 219.593 361.084 219.956 359.648 220.662C358.213 221.368 356.96 222.397 355.989 223.669C355.018 224.941 354.356 226.421 354.053 227.992C353.751 229.563 353.817 231.183 354.247 232.724C356.304 239.862 360.418 247.278 368.286 250.312C364.308 248.927 360.611 246.836 357.373 244.141C351.758 239.492 346.06 231.799 345.658 219.611C345.566 215.381 346.322 211.176 347.881 207.243C349.44 203.311 351.771 199.73 354.736 196.712C357.701 193.695 361.24 191.301 365.144 189.673C369.049 188.045 373.24 187.215 377.471 187.233C386.038 187.268 394.258 190.624 400.402 196.595C406.546 202.567 410.135 210.688 410.414 219.251Z" fill="black"/>
<path opacity="0.7" d="M391.653 217.44C391.666 218.166 391.621 218.892 391.52 219.611C391.061 222.827 389.455 225.77 386.998 227.896C384.541 230.023 381.398 231.189 378.149 231.182C374.864 231.169 371.688 230.004 369.175 227.89C366.662 225.775 364.971 222.845 364.397 219.611C364.246 218.897 364.167 218.17 364.161 217.44C364.122 215.645 364.444 213.86 365.106 212.19C365.768 210.521 366.757 209 368.015 207.719C369.274 206.438 370.776 205.421 372.433 204.729C374.09 204.037 375.869 203.683 377.665 203.689C381.329 203.707 384.841 205.154 387.453 207.723C390.066 210.291 391.573 213.778 391.653 217.44Z" fill="black"/>
<path opacity="0.7" d="M377.254 203.946C377.286 205.409 377.024 206.864 376.485 208.224C375.946 209.585 375.139 210.823 374.114 211.867C373.088 212.911 371.864 213.739 370.513 214.302C369.162 214.866 367.713 215.153 366.249 215.147C363.262 215.139 360.396 213.963 358.264 211.87C356.133 209.777 354.905 206.933 354.843 203.946C354.811 202.483 355.073 201.028 355.612 199.667C356.152 198.306 356.958 197.066 357.983 196.022C359.009 194.977 360.233 194.148 361.584 193.584C362.934 193.019 364.384 192.731 365.848 192.735C368.837 192.745 371.702 193.924 373.834 196.018C375.965 198.113 377.193 200.958 377.254 203.946Z" fill="#FAFAFA"/>
<path opacity="0.7" d="M311.799 243.133C313.126 243.668 314.71 244.162 316.468 244.82C317.353 245.128 318.268 245.478 319.256 245.848L322.341 246.784L325.746 247.813L329.479 248.749C332.04 249.448 334.838 249.952 337.779 250.559C339.25 250.878 340.803 251.063 342.367 251.33C343.93 251.598 345.545 251.845 347.211 252.02C362.825 253.88 378.615 253.669 394.174 251.392C403.432 250.073 412.598 248.166 421.615 245.684C426.315 244.398 431.056 242.948 435.819 241.292C438.205 240.479 440.57 239.585 442.957 238.669L444.726 237.96H444.828H444.777L444.448 237.61C450.28 239.811 454.599 240.459 457.706 240.428L458.035 240.798C455.71 241.827 453.437 242.927 451.082 243.956L447.585 245.386L445.703 246.106C443.203 247.021 440.714 247.905 438.225 248.708C433.247 250.319 428.31 251.718 423.415 252.904C414.041 255.193 404.517 256.811 394.914 257.748C378.806 259.4 362.544 258.707 346.635 255.691C344.948 255.403 343.323 255.023 341.739 254.663C340.155 254.303 338.654 253.963 337.131 253.531C334.18 252.688 331.382 251.958 328.842 251.032L325.149 249.777L321.796 248.461L318.711 247.237C317.754 246.836 316.849 246.393 315.995 246.003C314.288 245.211 312.755 244.542 311.47 243.884L308.343 242.022L305.7 240.613L308.477 241.745L311.799 243.133Z" fill="white"/>
<path d="M337.235 179.642C337.235 179.642 337.687 179.889 338.469 180.352C339.251 180.815 340.351 181.504 341.647 182.347C344.676 184.416 347.845 186.271 351.13 187.901C354.244 189.277 357.621 189.958 361.025 189.897C363.781 189.897 365.725 189.65 366.167 190.462C366.363 190.853 366.167 191.491 365.447 192.18C364.446 193.132 363.259 193.867 361.961 194.34C360.027 195.059 357.975 195.408 355.913 195.368C353.373 195.354 350.865 194.796 348.559 193.732C346.252 192.667 344.201 191.121 342.542 189.197C341.274 187.744 340.183 186.145 339.292 184.435C338.692 183.301 338.166 182.13 337.718 180.928C337.379 180.136 337.235 179.642 337.235 179.642Z" fill="#263238"/>
<path d="M313.178 201.077L314.402 201.478C314.853 201.645 315.313 201.789 315.78 201.91C316.325 202.064 316.891 202.27 317.559 202.403C318.228 202.537 318.896 202.753 319.616 202.887C320.336 203.021 321.149 203.165 321.951 203.319C323.576 203.566 325.304 203.792 327.094 203.998C328.803 204.162 330.52 204.224 332.236 204.183C333.039 204.121 333.81 204.131 334.53 204.039C335.25 203.946 335.929 203.905 336.587 203.843C339.097 203.555 340.886 203.309 341.37 204.09C341.853 204.872 340.773 206.528 338.099 208.122C337.374 208.547 336.613 208.908 335.826 209.202C334.924 209.556 333.995 209.838 333.049 210.045C330.864 210.491 328.624 210.605 326.405 210.385C324.19 210.123 322.043 209.457 320.069 208.42C319.22 207.958 318.411 207.424 317.652 206.826C316.986 206.319 316.367 205.755 315.8 205.139C315.329 204.641 314.896 204.108 314.505 203.545C314.195 203.136 313.92 202.703 313.682 202.249C313.353 201.457 313.178 201.077 313.178 201.077Z" fill="#263238"/>
<path d="M300.373 227.17C300.373 227.17 300.784 227.006 301.504 226.78C302.224 226.553 303.211 226.204 304.384 225.751C305.556 225.298 306.914 224.846 308.354 224.332C309.794 223.817 311.326 223.231 312.941 222.696C314.556 222.161 316.027 221.534 317.456 220.979L321.19 219.384C323.37 218.459 324.965 217.914 325.613 218.562C326.261 219.21 325.715 220.907 323.926 223.005C322.86 224.213 321.639 225.274 320.295 226.162C318.649 227.249 316.873 228.123 315.008 228.765C313.131 229.385 311.164 229.694 309.187 229.68C307.571 229.662 305.965 229.419 304.415 228.96C303.371 228.664 302.364 228.254 301.411 227.736C300.733 227.448 300.373 227.17 300.373 227.17Z" fill="#263238"/>
<path d="M417.017 178.984C417.017 178.984 416.915 179.519 416.657 180.434C416.297 181.71 415.844 182.958 415.3 184.168C414.483 185.982 413.424 187.677 412.153 189.207C410.49 191.202 408.398 192.795 406.033 193.867C403.556 194.968 400.864 195.502 398.154 195.43C395.996 195.387 393.869 194.908 391.901 194.021C390.566 193.446 389.386 192.565 388.455 191.45C387.807 190.596 387.653 189.855 387.931 189.341C388.517 188.313 390.564 188.313 393.238 188.117C396.445 187.99 399.604 187.294 402.567 186.06C405.858 184.631 409.345 182.707 412.173 181.267C413.572 180.547 414.786 179.961 415.65 179.58C416.513 179.2 417.017 178.984 417.017 178.984Z" fill="#263238"/>
<path d="M441.393 197.991C441.393 197.991 441.26 198.454 440.92 199.287C440.72 199.788 440.476 200.27 440.19 200.727C439.831 201.346 439.422 201.934 438.966 202.486C438.42 203.166 437.814 203.796 437.156 204.368C436.401 205.039 435.585 205.638 434.718 206.158C432.712 207.32 430.49 208.062 428.187 208.338C425.885 208.566 423.562 208.42 421.306 207.906C420.327 207.673 419.37 207.353 418.447 206.95C417.636 206.618 416.86 206.205 416.133 205.715C413.428 203.915 412.502 201.941 413.109 200.984C413.716 200.028 415.66 199.956 418.149 200.017C418.776 200.017 419.434 200.017 420.144 200.017C420.854 200.017 421.594 200.017 422.355 200.017C423.898 200.017 425.544 199.925 427.282 199.75C429.02 199.575 430.666 199.41 432.27 199.287C433.052 199.184 433.854 199.153 434.585 199.04C435.315 198.927 436.045 198.865 436.714 198.762C437.382 198.66 437.999 198.546 438.575 198.464C439.151 198.382 439.604 198.269 440.046 198.166L441.393 197.991Z" fill="#263238"/>
<path d="M456.708 221.349C456.452 221.686 456.178 222.009 455.886 222.316C455.107 223.157 454.226 223.896 453.263 224.517C451.86 225.435 450.323 226.129 448.706 226.574C446.736 227.117 444.682 227.287 442.648 227.078C440.625 226.842 438.644 226.323 436.765 225.535C435.225 224.896 433.79 224.03 432.507 222.964C430.327 221.081 429.596 219.24 430.234 218.284C430.872 217.327 432.703 217.255 435.048 217.461C437.393 217.667 440.355 218.191 443.615 218.572C445.182 218.749 446.737 219.013 448.274 219.364C449.745 219.662 451.154 220.012 452.389 220.29C453.623 220.567 454.713 220.845 455.474 220.999C456.235 221.153 456.708 221.349 456.708 221.349Z" fill="#263238"/>
<path d="M376.514 163.165C376.87 163.422 377.214 163.697 377.543 163.988C378.478 164.759 379.343 165.612 380.124 166.539C381.264 167.95 382.173 169.533 382.819 171.229C383.004 171.712 383.179 172.257 383.354 172.741C383.529 173.224 383.57 173.852 383.652 174.428C383.748 175.023 383.806 175.624 383.827 176.227C383.827 176.845 383.775 177.482 383.703 178.13C383.703 178.449 383.652 178.768 383.59 179.087C383.529 179.406 383.436 179.714 383.354 180.033C383.206 180.65 383.024 181.257 382.809 181.853C382.37 182.988 381.79 184.063 381.081 185.052C380.455 185.943 379.726 186.758 378.911 187.48C378.193 188.07 377.414 188.58 376.586 189.002C375.414 189.654 374.091 189.984 372.75 189.958C371.773 189.897 371.104 189.516 370.929 188.93C370.528 187.798 371.567 186.338 372.688 184.343C372.997 183.88 373.233 183.314 373.542 182.8C373.85 182.285 374.087 181.699 374.262 181.072C374.493 180.452 374.692 179.82 374.858 179.179C374.94 178.85 374.971 178.48 375.054 178.151L375.167 177.616C375.167 177.441 375.167 177.246 375.218 177.05C375.568 174.068 375.846 170.663 376.072 167.886C376.164 166.518 376.206 165.346 376.308 164.492C376.411 163.638 376.514 163.165 376.514 163.165Z" fill="#263238"/>
<path d="M313.259 232.879C313.259 232.879 310.688 242.753 316.715 244.285C322.743 245.818 320.243 246.764 320.243 246.764L305.659 240.778L313.259 232.879Z" fill="#407BFF"/>
<path opacity="0.7" d="M313.259 232.879C313.259 232.879 310.688 242.753 316.715 244.285C322.743 245.818 320.243 246.764 320.243 246.764L305.659 240.778L313.259 232.879Z" fill="white"/>
<path d="M305.659 240.613C306.091 240.963 309.372 237.6 315.327 231.624C318.31 228.641 321.972 225.01 326.322 220.927C330.673 216.844 335.733 212.308 341.555 207.669C344.476 205.355 347.602 203.041 350.945 200.809C354.37 198.488 357.963 196.426 361.693 194.638C365.475 192.735 369.538 191.454 373.727 190.843L375.28 190.678C375.805 190.678 376.309 190.678 376.823 190.678C377.856 190.692 378.887 190.775 379.908 190.925C382.118 191.299 384.289 191.867 386.399 192.622C390.961 194.311 395.341 196.458 399.471 199.03C403.898 201.761 408.172 204.731 412.276 207.927C420.99 214.757 429.275 222.118 437.084 229.968C439.141 232.025 441.096 234 443.009 235.995L444.449 237.497C448.657 239.244 453.151 240.199 457.706 240.315C462.581 240.315 464.474 238.546 464.474 238.546L460.267 238.32C457.392 238.165 454.694 236.882 452.759 234.751C451.946 233.856 451.113 232.961 450.291 232.066C449.807 231.542 449.313 231.038 448.83 230.513C446.866 228.456 444.839 226.399 442.772 224.342C434.713 216.237 426.123 208.678 417.059 201.714C412.687 198.369 408.127 195.278 403.4 192.458C398.778 189.68 393.88 187.391 388.785 185.628C386.224 184.771 383.59 184.151 380.916 183.777C379.553 183.6 378.178 183.521 376.802 183.54C376.103 183.54 375.414 183.54 374.745 183.612L372.75 183.869C367.848 184.679 363.115 186.295 358.741 188.652C354.792 190.717 351.01 193.087 347.428 195.739C343.992 198.238 340.845 200.778 337.945 203.319C332.766 207.856 327.829 212.663 323.154 217.718C319.04 222.182 315.667 226.173 313.013 229.505C307.696 236.232 305.258 240.274 305.659 240.613Z" fill="#263238"/>
<path d="M144.088 267.355L144.006 266.583C148.038 266.152 151.915 265.658 156.348 264.969L156.461 265.73C152.296 266.378 148.11 266.923 144.088 267.355Z" fill="#407BFF"/>
<path d="M122.756 268.023C78.9097 268.023 54.8216 253.706 54.5645 253.552L54.9656 252.894C55.2227 253.048 81.1004 268.414 128.063 267.18V267.951C126.294 268.003 124.494 268.023 122.756 268.023Z" fill="#407BFF"/>
<path d="M374.59 360.169V295.053C374.59 293.416 373.94 291.847 372.782 290.689C371.625 289.532 370.055 288.882 368.419 288.882H301.708L277.898 270.471C277.114 269.877 276.157 269.555 275.172 269.556C274.573 269.555 273.98 269.671 273.426 269.9C272.872 270.128 272.368 270.464 271.944 270.887C271.52 271.31 271.183 271.813 270.954 272.366C270.724 272.92 270.606 273.513 270.606 274.112V288.882H266.893C265.256 288.882 263.686 289.532 262.529 290.689C261.372 291.847 260.722 293.416 260.722 295.053V360.148C260.738 361.774 261.395 363.328 262.551 364.472C263.706 365.616 265.267 366.258 266.893 366.258H368.48C370.092 366.242 371.634 365.596 372.776 364.458C373.917 363.32 374.568 361.781 374.59 360.169Z" fill="#263238"/>
<path opacity="0.9" d="M368.45 288.933H301.709L283.123 274.534C271.316 292.996 264.116 315.624 260.743 338.848V360.179C260.759 361.805 261.416 363.359 262.572 364.503C263.727 365.647 265.288 366.289 266.914 366.289H368.501C370.118 366.273 371.665 365.622 372.807 364.478C373.95 363.333 374.597 361.786 374.611 360.169V295.053C374.597 293.427 373.943 291.872 372.789 290.726C371.635 289.58 370.076 288.936 368.45 288.933Z" fill="#FFD3B6"/>
<path d="M306.285 366.289L306.625 346.027C303.747 353.047 300.308 359.823 296.339 366.289H306.285Z" fill="#EA863E"/>
<path d="M260.742 304.968C271.1 296.74 285.036 290.312 303.868 288.933H301.708L277.898 270.523C277.114 269.928 276.157 269.607 275.172 269.607C274.573 269.606 273.98 269.723 273.426 269.951C272.872 270.18 272.368 270.515 271.944 270.938C271.52 271.361 271.183 271.864 270.954 272.418C270.724 272.971 270.606 273.564 270.606 274.164V288.933H266.893C265.256 288.933 263.686 289.584 262.529 290.741C261.372 291.898 260.722 293.468 260.722 295.104L260.742 304.968Z" fill="#263238"/>
<path d="M275.913 333.654C274.884 338.858 276.839 343.569 280.192 344.206C283.545 344.844 287.103 341.213 288.101 336.081C289.006 331.669 287.71 327.626 285.242 326.104C285.055 325.989 284.859 325.889 284.655 325.806L273.578 320.129C273.578 320.129 275.748 325.405 279.502 326.958C277.604 328.736 276.343 331.088 275.913 333.654Z" fill="#263238"/>
<path d="M271.912 306.85C272.363 306.83 272.802 306.707 273.198 306.49C276.609 304.454 280.455 303.257 284.419 302.997C288.384 302.738 292.353 303.424 296 304.999C296.598 305.321 297.299 305.394 297.95 305.202C298.602 305.009 299.15 304.566 299.477 303.97C299.778 303.353 299.827 302.643 299.614 301.991C299.401 301.338 298.942 300.794 298.335 300.473C293.932 298.516 289.126 297.638 284.316 297.912C279.506 298.186 274.83 299.603 270.678 302.047C270.154 302.311 269.737 302.747 269.497 303.282C269.256 303.817 269.206 304.418 269.355 304.985C269.505 305.552 269.844 306.051 270.317 306.398C270.79 306.745 271.367 306.919 271.953 306.891L271.912 306.85Z" fill="#263238"/>
<path d="M337.892 338.426C336.011 340.221 334.753 342.571 334.303 345.132C333.274 350.347 335.085 355.047 338.51 355.685C341.935 356.322 345.493 352.692 346.491 347.559C347.345 343.147 346.08 339.105 343.642 337.583L343.087 337.305L331.999 331.586C331.999 331.586 334.128 336.873 337.892 338.426Z" fill="#263238"/>
<path d="M339.023 307.94C338.338 307.959 337.686 308.245 337.208 308.737C336.73 309.228 336.462 309.887 336.462 310.574C336.494 311.251 336.792 311.889 337.29 312.349C337.789 312.809 338.448 313.054 339.126 313.032C347.159 313.423 357.856 319.367 362.258 326.094C362.526 326.466 362.879 326.769 363.286 326.979C363.801 327.259 364.397 327.355 364.974 327.251C365.551 327.147 366.075 326.848 366.459 326.405C366.843 325.962 367.064 325.401 367.086 324.815C367.108 324.229 366.928 323.653 366.578 323.183C361.137 315.078 348.794 308.3 339.023 307.94Z" fill="#263238"/>
<path d="M314.236 370.938H301.4V371.709H314.236V370.938Z" fill="#407BFF"/>
<path d="M293.439 371.709H264.435C261.944 371.704 259.557 370.711 257.797 368.949C256.037 367.187 255.047 364.799 255.044 362.308V352.969H255.816V362.308C255.816 364.595 256.724 366.789 258.34 368.407C259.956 370.025 262.148 370.935 264.435 370.938H293.439V371.709Z" fill="#407BFF"/>
<path d="M219.705 69.5692H206.869V70.3406H219.705V69.5692Z" fill="#407BFF"/>
<path d="M266.061 88.3193H265.29V78.97C265.287 76.6822 264.377 74.4889 262.759 72.8711C261.141 71.2534 258.948 70.3434 256.66 70.3406H227.666V69.5692H256.66C259.153 69.572 261.542 70.5633 263.304 72.3257C265.067 74.0881 266.058 76.4776 266.061 78.97V88.3193Z" fill="#407BFF"/>
<path d="M200.904 139.92L254.86 144.261L259.118 134.706C259.118 134.706 259.91 132.947 261.103 129.861V80.9345C261.084 79.3103 260.426 77.759 259.271 76.6173C258.115 75.4755 256.557 74.8352 254.932 74.8353H165.687C171.55 96.0847 182.761 120.79 200.904 139.92Z" fill="#263238"/>
<path d="M261.113 146.04V118.867C259.707 103.774 256.193 88.9527 250.674 74.8353H153.386C151.749 74.8353 150.179 75.4855 149.022 76.6428C147.865 77.8001 147.214 79.3698 147.214 81.0065V146.092C147.214 147.728 147.865 149.298 149.022 150.455C150.179 151.613 151.749 152.263 153.386 152.263H220.116L243.958 170.601C244.742 171.196 245.699 171.518 246.683 171.517C247.282 171.518 247.876 171.401 248.43 171.173C248.984 170.945 249.487 170.609 249.912 170.186C250.336 169.763 250.672 169.26 250.902 168.706C251.132 168.153 251.25 167.56 251.25 166.96V152.191H254.963C256.592 152.185 258.154 151.536 259.306 150.383C260.458 149.231 261.108 147.67 261.113 146.04Z" fill="#FCCAC8"/>
<path d="M180.436 128.73C180.127 133.873 182.565 138.265 185.949 138.46C189.333 138.655 192.295 134.665 192.603 129.481C192.912 124.297 190.454 120.008 187.07 119.823C183.686 119.638 180.734 123.608 180.436 128.73Z" fill="#263238"/>
<path d="M245.304 123.371C241.921 123.186 238.969 127.167 238.65 132.35C238.331 137.534 240.799 141.823 244.183 142.019C247.567 142.214 250.529 138.223 250.817 133.101C251.105 127.979 248.688 123.567 245.304 123.371Z" fill="#263238"/>
<path d="M226.719 157.231C222.885 149.371 219.613 141.249 216.928 132.926L215.776 152.191H220.188L226.719 157.231Z" fill="#EA817E"/>
<path d="M161.901 103.336C162.394 103.459 162.91 103.455 163.401 103.326C163.891 103.197 164.342 102.945 164.709 102.595C167.103 99.6362 170.164 97.287 173.642 95.7404C177.119 94.1939 180.914 93.4941 184.714 93.6985C185.445 93.6745 186.144 93.3917 186.686 92.9003C187.228 92.409 187.577 91.7411 187.673 91.0159C187.768 90.2907 187.602 89.5552 187.205 88.9407C186.808 88.3263 186.206 87.8727 185.506 87.661C180.708 87.3495 175.905 88.1788 171.489 90.081C167.074 91.9831 163.171 94.904 160.102 98.6046C159.602 99.2291 159.358 100.019 159.417 100.817C159.476 101.614 159.835 102.36 160.42 102.904C160.881 103.144 161.384 103.291 161.901 103.336Z" fill="#263238"/>
<path d="M260.527 108.396C260.667 108.734 260.865 109.043 261.113 109.311V97.4423C257.067 92.6938 251.648 89.3161 245.603 87.7741C244.815 87.6228 243.998 87.7907 243.334 88.2411C242.669 88.6915 242.211 89.3874 242.06 90.1758C241.908 90.9641 242.076 91.7803 242.527 92.4448C242.977 93.1093 243.673 93.5676 244.461 93.719C248.102 94.7362 251.452 96.5943 254.243 99.1437C257.033 101.693 259.186 104.862 260.527 108.396Z" fill="#263238"/>
</svg>
