<svg width="295" height="274" viewBox="0 0 295 274" fill="none" xmlns="http://www.w3.org/2000/svg">
<path d="M251.17 253.103C193.709 280.486 100.552 280.495 43.0922 253.103C-14.368 225.711 -14.3596 181.317 43.0922 153.934C100.544 126.55 193.709 126.55 251.17 153.934C308.63 181.317 308.622 225.719 251.17 253.103Z" fill="#F5F5F5"/>
<path d="M43.2953 232.866C32.7125 232.866 24.1335 228.778 24.1335 223.735C24.1335 218.692 32.7125 214.604 43.2953 214.604C53.878 214.604 62.457 218.692 62.457 223.735C62.457 228.778 53.878 232.866 43.2953 232.866Z" fill="#EBEBEB"/>
<path d="M255.533 225.044L248.754 221.133C244.969 218.045 242.088 213.991 240.416 209.401C238.323 203.631 238.615 199.245 240.115 197.044C241.958 194.334 246.736 194.809 246.928 200.512C247.328 211.753 250.605 219.549 255.533 225.044Z" fill="#0099FF"/>
<path opacity="0.2" d="M255.533 225.044L248.754 221.133C244.969 218.045 242.088 213.991 240.416 209.401C238.323 203.631 238.615 199.245 240.115 197.044C241.958 194.334 246.736 194.809 246.928 200.512C247.328 211.753 250.605 219.549 255.533 225.044Z" fill="black"/>
<path d="M255.532 225.461C255.62 225.46 255.705 225.431 255.776 225.378C255.847 225.325 255.899 225.251 255.925 225.167C255.951 225.082 255.949 224.992 255.921 224.908C255.892 224.825 255.837 224.753 255.765 224.702C240.089 213.862 243.124 198.745 243.157 198.594C243.169 198.54 243.169 198.483 243.159 198.428C243.149 198.373 243.128 198.321 243.097 198.274C243.067 198.227 243.027 198.187 242.981 198.155C242.935 198.124 242.883 198.102 242.828 198.09C242.773 198.079 242.717 198.078 242.662 198.088C242.607 198.099 242.554 198.12 242.507 198.15C242.461 198.181 242.42 198.22 242.389 198.266C242.357 198.313 242.335 198.365 242.323 198.419C242.323 198.578 239.121 214.212 255.265 225.386C255.343 225.439 255.437 225.466 255.532 225.461Z" fill="#FAFAFA"/>
<path d="M269.115 232.89C269.115 232.89 271.474 230.973 270.907 228.371C270.34 225.769 268.814 223.902 271.424 220.55C274.034 217.198 274.76 212.728 271.641 210.31C269.265 208.434 265.554 211.085 264.22 206.141C263.236 202.522 263.57 194.509 258.958 191.84C254.347 189.172 251.454 193.191 252.179 198.628C252.813 203.489 253.713 208.167 253.013 209.468C251.662 211.969 249.352 211.627 249.461 216.197C249.553 220.45 253.58 223.968 253.58 223.968L269.115 232.89Z" fill="#0099FF"/>
<path d="M261.368 228.813C261.47 228.812 261.568 228.774 261.644 228.707C261.721 228.64 261.771 228.547 261.785 228.446C262.977 218.565 260.117 201.505 257.782 196.435C257.762 196.379 257.731 196.327 257.69 196.284C257.649 196.241 257.599 196.207 257.543 196.185C257.488 196.163 257.429 196.153 257.369 196.156C257.31 196.159 257.251 196.174 257.198 196.201C257.149 196.224 257.104 196.256 257.067 196.296C257.03 196.336 257.001 196.383 256.982 196.434C256.964 196.486 256.955 196.54 256.958 196.595C256.961 196.649 256.975 196.703 256.998 196.752C259.308 201.755 262.068 218.865 260.926 228.313C260.914 228.422 260.946 228.532 261.015 228.618C261.083 228.703 261.183 228.759 261.293 228.771L261.368 228.813Z" fill="#FAFAFA"/>
<path d="M261.594 221.117C261.658 221.12 261.721 221.105 261.777 221.075C264.671 219.666 266.505 214.638 266.58 214.404C266.601 214.352 266.611 214.297 266.609 214.241C266.608 214.185 266.595 214.131 266.572 214.08C266.549 214.029 266.517 213.983 266.476 213.945C266.435 213.907 266.387 213.878 266.334 213.859C266.282 213.84 266.226 213.832 266.17 213.835C266.115 213.838 266.06 213.852 266.01 213.876C265.96 213.901 265.915 213.935 265.879 213.977C265.842 214.019 265.814 214.068 265.797 214.121C265.797 214.171 264.004 219.04 261.411 220.299C261.325 220.341 261.257 220.41 261.216 220.495C261.175 220.58 261.165 220.677 261.186 220.769C261.207 220.861 261.259 220.943 261.333 221.002C261.408 221.06 261.499 221.092 261.594 221.092V221.117Z" fill="#FAFAFA"/>
<path d="M261.644 224.452C261.728 224.452 261.809 224.427 261.878 224.379C261.946 224.331 261.999 224.264 262.028 224.185C262.069 224.083 262.069 223.969 262.027 223.868C261.985 223.766 261.904 223.686 261.803 223.643C256.933 221.692 253.898 215.897 253.864 215.83C253.814 215.732 253.726 215.657 253.62 215.624C253.515 215.59 253.4 215.6 253.302 215.651C253.203 215.702 253.129 215.79 253.095 215.895C253.062 216.001 253.071 216.115 253.122 216.214C253.256 216.464 256.333 222.351 261.461 224.419C261.518 224.446 261.581 224.457 261.644 224.452Z" fill="#FAFAFA"/>
<path d="M91.4299 179.591C91.4299 179.591 95.0738 173.688 95.4324 167.275C95.7909 160.863 94.3817 158.195 92.4472 157.428C90.5127 156.66 90.3626 159.02 89.3703 160.413C88.3781 161.805 86.3518 161.013 85.6013 156.669C84.8509 152.324 82.1159 144.995 76.4291 143.569C70.1752 142.018 73.5273 149.356 75.1032 152.216C76.6792 155.076 77.8966 158.979 76.8627 160.038C75.8287 161.097 74.2194 159.137 72.6934 160.955C70.834 163.148 76.6125 171.044 79.9312 172.954L91.4299 179.591Z" fill="#0099FF"/>
<path d="M86.4373 177.115C86.4921 177.113 86.5459 177.1 86.5956 177.077C86.6454 177.054 86.6902 177.021 86.7273 176.981C86.7645 176.941 86.7934 176.893 86.8123 176.842C86.8312 176.791 86.8398 176.736 86.8375 176.681C86.2729 166.366 83.0562 156.371 77.4985 147.663C77.467 147.618 77.4266 147.579 77.3798 147.55C77.3331 147.521 77.2808 147.501 77.2262 147.493C77.1717 147.484 77.116 147.487 77.0624 147.5C77.0089 147.514 76.9587 147.538 76.9148 147.572C76.8274 147.637 76.7689 147.733 76.7518 147.841C76.7346 147.948 76.7602 148.058 76.8231 148.147C82.2814 156.728 85.4401 166.568 85.9954 176.723C85.9985 176.778 86.0125 176.831 86.0365 176.881C86.0604 176.93 86.0939 176.974 86.135 177.01C86.176 177.047 86.2238 177.075 86.2757 177.093C86.3276 177.111 86.3825 177.118 86.4373 177.115Z" fill="#FAFAFA"/>
<path d="M85.9581 172.187C86.0279 172.186 86.0964 172.169 86.1582 172.137C88.493 170.844 89.7855 167.008 89.8355 166.85C89.8539 166.798 89.8618 166.743 89.8587 166.688C89.8557 166.633 89.8417 166.579 89.8177 166.529C89.7936 166.48 89.76 166.435 89.7187 166.399C89.6774 166.362 89.6292 166.334 89.577 166.316C89.472 166.282 89.3576 166.291 89.2591 166.341C89.1606 166.391 89.086 166.478 89.0517 166.583C89.0517 166.583 87.8009 170.277 85.7163 171.403C85.6219 171.459 85.5526 171.549 85.5231 171.654C85.4936 171.76 85.506 171.873 85.5579 171.97C85.5956 172.042 85.6537 172.101 85.725 172.139C85.7963 172.178 85.8774 172.194 85.9581 172.187Z" fill="#FAFAFA"/>
<path d="M85.5553 169.66C85.6477 169.659 85.7371 169.627 85.8096 169.57C85.882 169.513 85.9334 169.433 85.9556 169.343C85.9692 169.291 85.9723 169.236 85.9646 169.182C85.9569 169.128 85.9385 169.077 85.9105 169.03C85.8826 168.983 85.8456 168.943 85.8018 168.911C85.758 168.879 85.7082 168.856 85.6554 168.843C79.635 167.317 77.5504 164.165 77.5337 164.132C77.5042 164.085 77.4657 164.045 77.4206 164.013C77.3755 163.982 77.3245 163.959 77.2707 163.947C77.2169 163.935 77.1613 163.934 77.107 163.943C77.0526 163.953 77.0007 163.973 76.9542 164.002C76.9077 164.032 76.8674 164.07 76.8357 164.116C76.804 164.161 76.7816 164.212 76.7696 164.265C76.7576 164.319 76.7563 164.375 76.7658 164.429C76.7753 164.484 76.7954 164.535 76.825 164.582C76.9167 164.724 79.0847 168.034 85.4469 169.652L85.5553 169.66Z" fill="#FAFAFA"/>
<path d="M182.153 166.633C182.153 166.633 190.15 164.682 190.567 149.706C191.009 133.546 188.607 114.685 198.071 113.159C207.535 111.633 212.789 123.165 212.672 136.632C212.564 148.422 207.811 174.021 182.187 179.041L182.153 166.633Z" fill="#0099FF"/>
<path opacity="0.2" d="M182.153 166.633C182.153 166.633 190.15 164.682 190.567 149.706C191.009 133.546 188.607 114.685 198.071 113.159C207.535 111.633 212.789 123.165 212.672 136.632C212.564 148.422 207.811 174.021 182.187 179.041L182.153 166.633Z" fill="black"/>
<path d="M182.152 177.507H182.227C187.989 176.456 192.684 173.279 196.177 168.076C206.534 152.625 203.273 123.774 202.198 118.737C202.174 118.63 202.109 118.536 202.017 118.475C201.926 118.415 201.814 118.392 201.706 118.412C201.598 118.438 201.504 118.504 201.443 118.597C201.383 118.69 201.36 118.803 201.381 118.912C202.44 123.915 205.683 152.399 195.485 167.609C194.001 169.967 192.042 171.992 189.734 173.554C187.426 175.115 184.819 176.18 182.077 176.681C182.023 176.691 181.971 176.712 181.924 176.742C181.878 176.772 181.838 176.811 181.807 176.857C181.776 176.903 181.755 176.954 181.744 177.009C181.733 177.063 181.733 177.119 181.744 177.173C181.761 177.268 181.812 177.353 181.887 177.415C181.962 177.476 182.056 177.508 182.152 177.507Z" fill="#FAFAFA"/>
<path d="M182.154 215.938C190.418 217.056 203.834 217.039 211.581 210.935C219.327 204.832 217.709 199.578 214.732 197.385C211.756 195.192 209.171 192.691 214.291 187.821C219.41 182.952 227.632 175.13 230.3 163.398C232.969 151.666 231.651 144.328 226.415 141.885C221.337 139.517 219.994 143.286 216.884 151.057C213.774 158.828 206.778 152.166 200.791 154.593C194.804 157.019 195.045 161.822 194.67 165.949C194.295 170.077 192.319 171.219 188.925 171.219C185.531 171.219 182.154 173.171 182.154 177.056V215.938Z" fill="#0099FF"/>
<path d="M182.155 202.313C182.19 202.321 182.227 202.321 182.263 202.313C182.622 202.213 191.168 199.728 203.618 188.296C216.876 176.122 223.13 157.861 223.196 157.678C223.228 157.573 223.218 157.459 223.169 157.361C223.119 157.263 223.033 157.189 222.93 157.152C222.826 157.118 222.712 157.126 222.614 157.174C222.516 157.222 222.44 157.307 222.404 157.411C222.346 157.594 216.15 175.655 203.051 187.679C190.777 198.961 182.13 201.488 182.038 201.513C181.985 201.528 181.936 201.554 181.894 201.588C181.851 201.622 181.815 201.665 181.789 201.713C181.763 201.761 181.746 201.813 181.74 201.868C181.734 201.922 181.739 201.977 181.754 202.03C181.781 202.114 181.835 202.187 181.907 202.238C181.979 202.29 182.066 202.316 182.155 202.313Z" fill="#FAFAFA"/>
<path d="M200.138 191.198C200.222 191.2 200.304 191.175 200.373 191.127C200.442 191.079 200.494 191.01 200.522 190.931C203.199 184.061 203.807 169.36 203.857 168.735C203.86 168.625 203.819 168.518 203.745 168.437C203.67 168.356 203.567 168.307 203.457 168.301C203.348 168.303 203.244 168.344 203.164 168.418C203.084 168.492 203.034 168.593 203.023 168.701C203.023 168.851 202.398 183.885 199.771 190.631C199.751 190.683 199.742 190.738 199.743 190.793C199.744 190.848 199.757 190.902 199.779 190.953C199.802 191.003 199.834 191.049 199.874 191.087C199.914 191.124 199.962 191.154 200.013 191.173C200.054 191.188 200.096 191.196 200.138 191.198Z" fill="#FAFAFA"/>
<path d="M200.206 201.079C200.974 201.085 201.743 201.046 202.507 200.963C202.562 200.956 202.615 200.939 202.663 200.912C202.711 200.885 202.753 200.848 202.787 200.805C202.821 200.762 202.846 200.712 202.861 200.659C202.876 200.606 202.881 200.55 202.874 200.496C202.867 200.441 202.85 200.388 202.823 200.34C202.796 200.292 202.76 200.25 202.716 200.216C202.673 200.181 202.623 200.156 202.57 200.141C202.517 200.126 202.462 200.122 202.407 200.129C202.332 200.129 194.569 201.013 191.008 197.385C190.971 197.342 190.926 197.306 190.874 197.28C190.822 197.255 190.766 197.241 190.709 197.238C190.651 197.235 190.594 197.245 190.54 197.265C190.487 197.286 190.438 197.317 190.397 197.358C190.356 197.398 190.324 197.446 190.303 197.5C190.281 197.553 190.271 197.61 190.273 197.668C190.275 197.725 190.289 197.781 190.313 197.833C190.338 197.885 190.373 197.931 190.416 197.969C192.993 200.629 197.487 201.079 200.206 201.079Z" fill="#FAFAFA"/>
<path d="M206.211 43.1826L207.111 37.9878L211.748 41.0396C212.171 40.2058 212.772 39.4745 213.507 38.8967L211.289 32.893L215.458 31.9674L218.51 37.8043C219.614 37.9906 220.685 38.339 221.687 38.8383L223.013 34.4356L227.966 38.3296L227.641 43.4995C228.649 44.6293 229.564 45.8396 230.376 47.1184L234.462 46.9099L237.33 53.3388L233.82 54.8398C234.186 56.1695 234.418 57.5328 234.512 58.9089L238.973 63.0114L238.08 68.2146L233.436 65.1628C233.015 65.9958 232.414 66.7249 231.677 67.2974L233.853 73.3094L229.684 74.2266L225.314 69.974C224.305 69.8156 224.555 67.9144 223.455 67.3724L222.129 71.7584L217.184 67.8727L217.309 65.8382C216.309 64.7208 212.523 62.261 211.706 60.9768L210.68 59.3092L207.812 52.8802L209.146 50.4621L210.63 47.3101L206.211 43.1826ZM221.345 60.2848C225.148 63.2699 226.348 63.9287 226.99 59.9345C227.632 55.9404 225.456 49.87 221.654 46.8765C217.851 43.883 216.4 43.6746 215.717 47.6604C215.033 51.6461 217.535 57.3329 221.345 60.2848Z" fill="#E0E0E0"/>
<path d="M215.421 31.9674L210.009 35.086L213.061 40.9062L218.473 37.7876L215.421 31.9674Z" fill="#F5F5F5"/>
<path d="M201.698 41.1063L206.334 44.1582L211.746 41.0396L207.11 37.9878L201.698 41.1063Z" fill="#F5F5F5"/>
<path d="M202.437 55.9738L205.948 54.4812L211.359 51.3626L207.849 52.8552L202.437 55.9738Z" fill="#E0E0E0"/>
<path d="M233.857 73.3094L228.446 76.4196L226.228 70.4159L231.639 67.2974L233.857 73.3094Z" fill="#E0E0E0"/>
<path d="M216.765 74.877L222.168 71.7585L223.494 67.3724L218.082 70.491L216.765 74.877Z" fill="#E0E0E0"/>
<path d="M200.805 46.3012L201.698 41.1064L206.334 44.1582C206.76 43.324 207.364 42.5928 208.101 42.0152L205.883 36.0116L210.011 35.086L213.071 40.9229C214.175 41.1092 215.246 41.4576 216.248 41.9569L217.566 37.5709L222.519 41.4649L222.193 46.6347C223.203 47.7726 224.118 48.9913 224.928 50.2786L229.023 50.0702L231.891 56.4991L228.381 58C228.744 59.3334 228.976 60.699 229.073 62.0775L233.525 66.1217L232.633 71.3249L227.997 68.273C227.57 69.1048 226.967 69.8333 226.229 70.4076L228.447 76.4113L224.278 77.3369L221.226 71.5C220.118 71.3158 219.044 70.9643 218.041 70.4577L216.723 74.8437L211.77 70.958L212.096 65.7881C211.087 64.6583 210.172 63.448 209.361 62.1693L205.266 62.3694L202.398 55.9404L205.959 54.4479C205.589 53.1155 205.355 51.7495 205.258 50.3704L200.805 46.3012ZM215.923 63.4367C219.717 66.4219 223.352 65.613 224.045 61.6273C224.737 57.6415 222.21 51.9797 218.408 48.9945C214.605 46.0094 210.978 46.8265 210.286 50.8123C209.594 54.7981 212.121 60.4515 215.923 63.4367Z" fill="#EBEBEB"/>
<path d="M217.567 37.5542L222.979 34.4356L227.932 38.3297L222.52 41.4482L217.567 37.5542Z" fill="#F5F5F5"/>
<path d="M227.932 38.3297L227.606 43.4995L222.195 46.6181L222.52 41.4482L227.932 38.3297Z" fill="#E0E0E0"/>
<path d="M224.93 50.2369L230.342 47.1184L234.428 46.9182L229.024 50.0368L224.93 50.2369Z" fill="#F5F5F5"/>
<path d="M234.425 46.9182L237.293 53.3388L231.89 56.4574L229.021 50.0368L234.425 46.9182Z" fill="#E0E0E0"/>
<path d="M229.075 62.0275L234.478 58.9089L238.939 63.0114L233.536 66.13L229.075 62.0275Z" fill="#F5F5F5"/>
<path d="M232.636 71.3332L238.047 68.2147L238.939 63.0115L233.536 66.13L232.636 71.3332Z" fill="#E0E0E0"/>
<path d="M210.012 35.086L215.424 31.9674L211.288 32.893L205.885 36.0116L210.012 35.086Z" fill="#F5F5F5"/>
<path d="M230.442 19.6015V11.8385L236.621 14.6235C236.948 13.3064 237.514 12.0602 238.289 10.9462L234.395 3.09976L239.148 0.356415L244.001 7.65255C245.353 7.5344 246.716 7.66727 248.02 8.04446L248.704 1.29866L255.424 5.18437L256.1 12.689C257.562 13.985 258.907 15.4081 260.119 16.9416L264.972 15.2739L269.725 23.5123L265.839 26.8477C266.557 28.6633 267.115 30.5383 267.507 32.4511L273.686 36.7954V44.5668L267.507 41.7818C267.18 43.0989 266.614 44.3451 265.839 45.4591L269.708 53.3139L264.955 56.0572L260.102 48.7611C258.75 48.8788 257.387 48.746 256.083 48.3692L255.408 55.115L248.687 51.2293L248.003 43.7247C245.905 42.9593 244.047 41.6534 242.617 39.939L239.131 41.1648L234.378 32.9347L237.297 30.4332C236.663 28.3472 236.428 26.1605 236.605 23.9876L230.442 19.6015ZM252.064 38.9968C257.217 41.9736 260.402 39.8306 260.402 33.902C260.402 27.9733 256.141 20.6438 250.98 17.667C245.818 14.6902 242.7 16.8332 242.7 22.8118C242.7 28.7905 246.902 36.0116 252.064 38.9968Z" fill="#E0E0E0"/>
<path d="M233.742 3.46663L239.145 0.356384L243.998 7.65252L238.595 10.7711L233.742 3.46663Z" fill="#F5F5F5"/>
<path d="M225.029 14.957L230.44 11.8384L236.619 14.6235L231.207 17.7421L225.029 14.957Z" fill="#F5F5F5"/>
<path d="M250.017 58.2335L255.42 55.1149L256.096 48.3691L250.692 51.4877L250.017 58.2335Z" fill="#E0E0E0"/>
<path d="M269.73 53.3139L264.319 56.4324L260.425 48.586L265.836 45.4674L269.73 53.3139Z" fill="#E0E0E0"/>
<path d="M225.03 22.7618V14.9987L231.209 17.7587C231.533 16.4404 232.098 15.1936 232.877 14.0815L228.983 6.235L233.736 3.48331L238.589 10.7878C239.941 10.6655 241.304 10.7985 242.608 11.1797L243.291 4.41721L250.012 8.30293L250.696 15.8075C252.157 17.1058 253.501 18.5287 254.715 20.0601L259.568 18.3924L264.321 26.6308L260.427 29.9662C261.149 31.7806 261.707 33.6559 262.095 35.5696L268.273 39.914V47.6854L262.095 44.9004C261.771 46.2187 261.206 47.4656 260.427 48.5776L264.321 56.4241L259.568 59.1674L254.715 51.8713C253.363 51.9894 252 51.8566 250.696 51.4794L250.012 58.2252L243.291 54.3395L242.616 46.8349C241.153 45.5388 239.808 44.1157 238.597 42.5823L233.744 44.25L228.991 36.0199L232.885 32.6845C232.164 30.8701 231.605 28.9948 231.217 27.0811L225.03 22.7618ZM246.652 42.157C251.813 45.1338 255.999 42.7157 255.999 36.762C255.999 30.8084 251.83 23.5623 246.652 20.5771C241.474 17.592 237.313 20.0184 237.313 25.9721C237.313 31.9257 241.499 39.1302 246.652 42.1153V42.157Z" fill="#EBEBEB"/>
<path d="M260.116 16.9582L254.712 20.0768L259.565 18.3841L264.969 15.2572L260.116 16.9582Z" fill="#F0F0F0"/>
<path d="M264.968 15.2657L269.723 23.5068L264.313 26.6277L259.559 18.3865L264.968 15.2657Z" fill="#F5F5F5"/>
<path d="M269.73 23.4955L264.319 26.6141L260.425 29.9662L265.836 26.8559L269.73 23.4955Z" fill="#E0E0E0"/>
<path d="M267.507 32.4594L262.095 35.578L268.274 39.9223L273.686 36.8037L267.507 32.4594Z" fill="#F5F5F5"/>
<path d="M273.686 36.8037L268.274 39.9223V47.6937L273.686 44.5751V36.8037Z" fill="#E0E0E0"/>
<path d="M243.289 4.41722L248.701 1.29865L255.422 5.18436L250.019 8.30294L243.289 4.41722Z" fill="#F5F5F5"/>
<path d="M173.915 227.095L95.5333 181.834C95.3606 181.774 95.211 181.661 95.1052 181.511C94.9994 181.362 94.9426 181.183 94.9426 181C94.9426 180.817 94.9994 180.639 95.1052 180.489C95.211 180.34 95.3606 180.227 95.5333 180.167L102.779 175.997C103.228 175.771 103.724 175.654 104.226 175.654C104.729 175.654 105.224 175.771 105.673 175.997L184.079 221.217C184.252 221.277 184.401 221.39 184.507 221.54C184.613 221.689 184.67 221.868 184.67 222.051C184.67 222.234 184.613 222.412 184.507 222.562C184.401 222.711 184.252 222.824 184.079 222.884L176.808 227.054C176.363 227.286 175.869 227.411 175.366 227.418C174.864 227.425 174.367 227.315 173.915 227.095Z" fill="#E0E0E0"/>
<path d="M97.6855 7.08549L168.362 47.8938C169.413 48.5795 170.287 49.503 170.914 50.5895C171.542 51.676 171.904 52.895 171.973 54.1477V221.809C171.973 224.11 170.355 225.044 168.362 223.893L97.6855 183.085C96.6335 182.401 95.758 181.478 95.1306 180.391C94.5031 179.304 94.1414 178.084 94.075 176.831V9.1701C94.075 6.86869 95.6843 5.93479 97.6855 7.08549Z" fill="#455A64"/>
<path d="M168.36 47.8938L97.6834 7.08551C95.899 6.05154 94.4231 6.6936 94.1229 8.48637C94.2896 7.35921 94.6931 6.28013 95.3068 5.3201C95.9204 4.36006 96.7304 3.54083 97.6834 2.91629L100.619 1.2486C101.737 0.680918 102.974 0.385071 104.229 0.385071C105.484 0.385071 106.721 0.680918 107.84 1.2486L178.525 42.0236C179.589 42.6911 180.467 43.6178 181.076 44.7169L170.912 50.5538C170.303 49.4634 169.424 48.5475 168.36 47.8938Z" fill="#37474F"/>
<path d="M182.154 215.938C182.086 217.191 181.723 218.41 181.096 219.497C180.469 220.583 179.594 221.507 178.544 222.192L175.6 223.86C174.582 224.37 173.467 224.658 172.329 224.707C171.19 224.756 170.055 224.564 168.996 224.143C170.664 224.794 171.99 223.835 171.99 221.775V54.1477C171.948 52.8896 171.583 51.6635 170.931 50.5872L181.095 44.7502C181.739 45.8185 182.103 47.0315 182.154 48.2774V215.938Z" fill="#263238"/>
<path d="M166.42 70.2325L99.6036 31.6672C98.4029 30.9835 97.4356 31.5422 97.4356 32.918V157.011C97.4757 157.763 97.693 158.495 98.0697 159.147C98.4465 159.799 98.9721 160.353 99.6036 160.763L166.395 199.328C167.595 200.02 168.562 199.462 168.562 198.078V73.9848C168.525 73.2351 168.311 72.5049 167.939 71.8531C167.566 71.2012 167.046 70.6461 166.42 70.2325Z" fill="#FAFAFA"/>
<path d="M133.022 33.8436C133.39 34.0857 133.697 34.411 133.917 34.7934C134.138 35.1757 134.265 35.6044 134.289 36.0449C134.289 36.8788 133.722 37.1873 133.022 36.7787C132.651 36.5381 132.344 36.2131 132.123 35.8305C131.903 35.4478 131.776 35.0184 131.754 34.5774C131.754 33.7685 132.321 33.4434 133.022 33.8436Z" fill="#37474F"/>
<path d="M133.022 185.978C134.48 186.932 135.693 188.216 136.562 189.725C137.431 191.235 137.932 192.928 138.025 194.667C138.025 197.861 135.782 199.162 133.022 197.561C131.565 196.606 130.353 195.323 129.484 193.813C128.615 192.304 128.113 190.611 128.019 188.872C128.003 185.678 130.254 184.377 133.022 185.978Z" fill="#37474F"/>
<path d="M145.024 46.7515C145.757 47.238 146.365 47.8899 146.799 48.6547C147.234 49.4194 147.483 50.2757 147.525 51.1542C147.525 52.7719 146.391 53.4306 145.024 52.6218C144.283 52.1399 143.667 51.49 143.225 50.725C142.783 49.9599 142.528 49.1013 142.481 48.2191C142.481 46.6014 143.615 45.9427 145.024 46.7515Z" fill="#37474F"/>
<path d="M138.793 46.2012C138.793 47.2852 137.959 47.6938 136.984 47.1184L120.307 37.4708C119.79 37.1482 119.357 36.7082 119.043 36.1866C118.728 35.665 118.541 35.0765 118.497 34.469C118.497 33.3934 119.331 32.9848 120.307 33.5601L136.984 43.2077C137.499 43.5295 137.931 43.9682 138.246 44.4883C138.56 45.0084 138.748 45.5952 138.793 46.2012Z" fill="#37474F"/>
<path d="M176.513 75.6025C175.921 75.9879 175.429 76.5074 175.075 77.1188C174.722 77.7301 174.517 78.4162 174.478 79.1213C174.478 80.4221 175.387 80.9474 176.513 80.297C177.103 79.9102 177.593 79.3902 177.945 78.779C178.297 78.1678 178.501 77.4825 178.539 76.7782C178.539 75.4858 177.63 74.9604 176.513 75.6025Z" fill="#37474F"/>
<path d="M176.513 91.2621C175.921 91.6475 175.429 92.167 175.075 92.7784C174.722 93.3897 174.517 94.0758 174.478 94.7809C174.478 96.0734 175.387 96.5987 176.513 95.9566C177.103 95.5698 177.593 95.0498 177.945 94.4386C178.297 93.8274 178.501 93.1421 178.539 92.4378C178.539 91.137 177.63 90.6117 176.513 91.2621Z" fill="#37474F"/>
<path d="M177.149 75.9194C176.557 76.3048 176.065 76.8243 175.711 77.4356C175.358 78.047 175.153 78.7331 175.114 79.4382C175.114 80.7307 176.023 81.256 177.149 80.6139C177.741 80.2285 178.233 79.709 178.587 79.0977C178.94 78.4863 179.145 77.8002 179.184 77.0951C179.175 75.7943 178.266 75.294 177.149 75.9194Z" fill="#455A64"/>
<path d="M177.149 91.5706C176.556 91.9569 176.063 92.4777 175.709 93.0906C175.356 93.7035 175.152 94.3912 175.114 95.0978C175.114 96.3903 176.023 96.9156 177.149 96.2652C177.742 95.8812 178.236 95.3621 178.589 94.7504C178.943 94.1388 179.147 93.452 179.184 92.7464C179.175 91.4539 178.266 90.9286 177.149 91.5706Z" fill="#455A64"/>
<path d="M83.9102 36.8454C83.9102 35.4612 84.8775 34.9026 86.0782 35.5947L94.0748 40.2058L152.869 74.16C153.501 74.5703 154.026 75.1241 154.403 75.7762C154.78 76.4283 154.997 77.1602 155.037 77.9123V201.972C155.037 203.356 154.07 203.914 152.869 203.222L94.0498 169.26L86.0782 164.657C85.4467 164.247 84.9211 163.693 84.5443 163.041C84.1676 162.389 83.9503 161.657 83.9102 160.905V36.8454Z" fill="#FAFAFA"/>
<path d="M83.073 36.8454C83.0205 36.4273 83.0925 36.0029 83.28 35.6255C83.4674 35.248 83.762 34.9342 84.1268 34.7233C84.4917 34.5124 84.9107 34.4137 85.3313 34.4397C85.7519 34.4656 86.1556 34.6151 86.4918 34.8692L94.1214 39.2803L153.283 73.4679C154.044 73.9487 154.678 74.6075 155.128 75.3876C155.578 76.1677 155.832 77.0456 155.868 77.9456V201.972C155.901 202.388 155.821 202.805 155.636 203.18C155.451 203.554 155.168 203.872 154.817 204.098C154.518 204.271 154.178 204.361 153.833 204.356C153.344 204.341 152.868 204.2 152.449 203.948L93.2459 169.76L85.6329 165.366C84.8756 164.88 84.2456 164.22 83.7959 163.441C83.3461 162.662 83.0896 161.787 83.048 160.888L83.073 36.8454ZM94.1048 168.334L94.7885 168.735L153.249 202.489C153.348 202.564 153.461 202.617 153.583 202.643C153.704 202.669 153.829 202.667 153.95 202.639C154.058 202.572 154.167 202.339 154.167 201.955V77.9123C154.123 77.3068 153.943 76.7191 153.64 76.1933C153.337 75.6676 152.918 75.2175 152.415 74.8771L94.013 41.1064L85.6746 36.2784C85.5763 36.2029 85.4625 36.1503 85.3413 36.1243C85.2201 36.0984 85.0947 36.0997 84.9742 36.1283C84.8658 36.195 84.7574 36.4285 84.7574 36.8121V160.905C84.8006 161.51 84.9806 162.098 85.2839 162.624C85.5872 163.149 86.0059 163.6 86.5084 163.94L94.1214 168.334H94.1048Z" fill="#0099FF"/>
<path d="M119.47 65.6714C111.965 61.3521 105.92 64.8376 105.92 73.5012C105.92 82.1648 111.99 92.6796 119.47 96.9656C126.949 101.252 133.02 97.7994 133.02 89.1441C133.02 80.4888 126.949 69.9991 119.47 65.6714Z" fill="#0099FF"/>
<path d="M119.471 72.4756C117.044 71.0747 115.077 72.2087 115.077 74.9771C115.159 76.5022 115.6 77.9863 116.363 79.3091C117.127 80.6318 118.191 81.7559 119.471 82.5901C121.897 83.991 123.865 82.8569 123.865 80.0886C123.783 78.5635 123.342 77.0794 122.578 75.7566C121.815 74.4338 120.75 73.3097 119.471 72.4756Z" fill="#0099FF"/>
<path d="M110.91 87.4181C110.91 82.8152 114.137 80.9474 118.131 83.2488L120.632 84.6914C124.618 86.9928 127.854 92.5962 127.854 97.1991V98.4415C125.544 99.2003 122.642 98.7917 119.515 96.9656C116.051 94.8289 113.122 91.9282 110.951 88.4854L110.91 87.4181Z" fill="#0099FF"/>
<path opacity="0.7" d="M119.471 72.4756C117.044 71.0747 115.077 72.2087 115.077 74.9771C115.159 76.5022 115.6 77.9863 116.363 79.3091C117.127 80.6318 118.191 81.7559 119.471 82.5901C121.897 83.991 123.865 82.8569 123.865 80.0886C123.783 78.5635 123.342 77.0794 122.578 75.7566C121.815 74.4338 120.75 73.3097 119.471 72.4756Z" fill="#FAFAFA"/>
<path opacity="0.7" d="M110.91 87.4181C110.91 82.8152 114.137 80.9474 118.131 83.2488L120.632 84.6914C124.618 86.9928 127.854 92.5962 127.854 97.1991V98.4415C125.544 99.2003 122.642 98.7917 119.515 96.9656C116.051 94.8289 113.122 91.9282 110.951 88.4854L110.91 87.4181Z" fill="#FAFAFA"/>
<path d="M145.69 116.019L128.255 105.954C127.421 105.496 126.812 105.863 126.812 106.788V107.364C126.838 107.865 126.983 108.353 127.234 108.787C127.484 109.222 127.834 109.591 128.255 109.865L145.69 119.93C146.482 120.388 147.133 120.013 147.133 119.096V118.52C147.106 118.02 146.961 117.532 146.71 117.097C146.46 116.663 146.11 116.293 145.69 116.019Z" fill="#0099FF"/>
<path opacity="0.1" d="M145.69 116.019L128.255 105.954C127.421 105.496 126.812 105.863 126.812 106.788V107.364C126.838 107.865 126.983 108.353 127.234 108.787C127.484 109.222 127.834 109.591 128.255 109.865L145.69 119.93C146.482 120.388 147.133 120.013 147.133 119.096V118.52C147.106 118.02 146.961 117.532 146.71 117.097C146.46 116.663 146.11 116.293 145.69 116.019Z" fill="black"/>
<path d="M146.407 128.168L93.6584 97.7161C93.2665 97.4826 92.9413 97.666 92.9413 98.133V104.287C92.956 104.537 93.0284 104.779 93.1528 104.996C93.2772 105.213 93.4503 105.399 93.6584 105.538L146.407 135.99C146.808 136.223 147.133 136.031 147.133 135.573V129.419C147.118 129.168 147.045 128.924 146.919 128.707C146.793 128.49 146.618 128.305 146.407 128.168Z" fill="#0099FF"/>
<path opacity="0.2" d="M146.407 128.168L93.6584 97.7161C93.2665 97.4826 92.9413 97.666 92.9413 98.133V104.287C92.956 104.537 93.0284 104.779 93.1528 104.996C93.2772 105.213 93.4503 105.399 93.6584 105.538L146.407 135.99C146.808 136.223 147.133 136.031 147.133 135.573V129.419C147.118 129.168 147.045 128.924 146.919 128.707C146.793 128.49 146.618 128.305 146.407 128.168Z" fill="#FAFAFA"/>
<path d="M145.69 143.394L128.255 133.33C127.421 132.871 126.812 133.246 126.812 134.163V134.739C126.838 135.24 126.982 135.728 127.233 136.163C127.483 136.598 127.834 136.967 128.255 137.24L145.69 147.305C146.482 147.772 147.133 147.396 147.133 146.471V145.896C147.104 145.395 146.959 144.908 146.709 144.473C146.458 144.039 146.109 143.669 145.69 143.394Z" fill="#0099FF"/>
<path opacity="0.1" d="M145.69 143.394L128.255 133.33C127.421 132.871 126.812 133.246 126.812 134.163V134.739C126.838 135.24 126.982 135.728 127.233 136.163C127.483 136.598 127.834 136.967 128.255 137.24L145.69 147.305C146.482 147.772 147.133 147.396 147.133 146.471V145.896C147.104 145.395 146.959 144.908 146.709 144.473C146.458 144.039 146.109 143.669 145.69 143.394Z" fill="black"/>
<path d="M146.407 155.543L93.6584 125.091C93.2665 124.858 92.9413 125.049 92.9413 125.508V131.662C92.956 131.912 93.0284 132.155 93.1528 132.372C93.2772 132.589 93.4503 132.774 93.6584 132.913L146.407 163.365C146.808 163.598 147.133 163.415 147.133 162.948V156.794C147.118 156.543 147.045 156.299 146.919 156.082C146.793 155.865 146.618 155.68 146.407 155.543Z" fill="#0099FF"/>
<path opacity="0.2" d="M146.407 155.543L93.6584 125.091C93.2665 124.858 92.9413 125.049 92.9413 125.508V131.662C92.956 131.912 93.0284 132.155 93.1528 132.372C93.2772 132.589 93.4503 132.774 93.6584 132.913L146.407 163.365C146.808 163.598 147.133 163.415 147.133 162.948V156.794C147.118 156.543 147.045 156.299 146.919 156.082C146.793 155.865 146.618 155.68 146.407 155.543Z" fill="#FAFAFA"/>
<path d="M125.368 159.037L104.522 147.021C103.688 146.554 103.071 146.93 103.071 147.855V154.292C103.098 154.794 103.244 155.283 103.496 155.717C103.748 156.152 104.1 156.521 104.522 156.794L125.368 168.818C126.202 169.277 126.811 168.901 126.811 167.984V161.538C126.782 161.038 126.636 160.551 126.386 160.117C126.135 159.683 125.787 159.313 125.368 159.037Z" fill="#0099FF"/>
<path opacity="0.1" d="M125.368 159.037L104.522 147.021C103.688 146.554 103.071 146.93 103.071 147.855V154.292C103.098 154.794 103.244 155.283 103.496 155.717C103.748 156.152 104.1 156.521 104.522 156.794L125.368 168.818C126.202 169.277 126.811 168.901 126.811 167.984V161.538C126.782 161.038 126.636 160.551 126.386 160.117C126.135 159.683 125.787 159.313 125.368 159.037Z" fill="black"/>
<path d="M76.006 131.87C76.006 131.87 86.2456 117.745 86.846 116.027C87.3213 114.76 86.846 112.875 86.6959 112C86.5458 111.124 86.4124 109.173 86.2623 108.664C86.0122 107.714 87.2379 107.906 87.93 108.773C88.6221 109.64 88.8556 111.374 89.2141 111.658C89.5727 111.941 92.2993 107.964 93.7252 106.129C95.1511 104.295 96.0433 103.178 96.9188 103.861C97.5442 104.353 97.0773 105.421 96.0433 106.988C95.4394 107.832 94.8827 108.709 94.3756 109.615C94.2172 109.957 95.0677 109.982 95.5263 110.691C95.8849 111.241 95.5263 112.133 96.0266 112.558C96.3345 112.793 96.5455 113.132 96.6193 113.512C96.6931 113.892 96.6246 114.285 96.4269 114.618C95.4987 116.076 94.3017 117.343 92.8997 118.354C91.3654 119.413 90.7484 119.788 89.8395 121.23C88.9306 122.673 80.7756 137.407 80.2253 138.291C79.6749 139.175 78.616 140.976 77.0066 141.026C75.3973 141.076 62.2226 129.736 61.5472 129.169C59.3792 127.359 58.6871 127.101 58.3202 128.727C58.1935 129.305 58.0988 129.889 58.0367 130.478C57.7782 132.546 56.369 139.934 56.369 139.934C56.369 139.934 49.6982 143.16 44.2199 141.601C38.7415 140.042 36.8904 137.715 36.8904 137.715L39.6337 133.246C38.8916 131.403 35.4645 123.932 34.3555 118.704L51.5327 115.927C51.8829 115.852 52.4499 115.71 53.2004 115.519C54.1426 115.268 56.5358 114.443 58.3452 116.027C64.2488 121.172 75.9893 131.87 75.9893 131.87" fill="#FFA8A7"/>
<path d="M41.9505 218.54L45.0273 222.818C43.629 223.471 42.101 223.798 40.558 223.777C37.7979 223.877 37.0391 222.943 36.9391 222.759C36.4721 221.759 37.1976 219.958 37.3977 218.407L41.9505 218.54Z" fill="#37474F"/>
<path d="M44.856 220.766C44.856 220.766 48.5917 220.525 51.1682 220.208C53.7448 219.891 55.7877 221.142 55.1874 222.201C54.587 223.26 53.1611 224.143 50.9431 224.886C49.0503 225.528 46.7739 225.986 44.806 226.553C42.8381 227.12 41.4706 227.862 40.3283 227.462C39.0525 227.02 38.5022 226.512 38.6106 225.578C38.889 224.249 39.2341 222.936 39.6445 221.642L44.856 220.766Z" fill="#37474F"/>
<path d="M36.9402 214.246C36.9402 214.246 37.4072 218.131 37.4405 218.965C37.4739 219.799 41.2345 220.066 41.9516 218.54L42.0684 213.787L36.9402 214.246Z" fill="#F28F8F"/>
<path d="M40.7231 216.631L39.3806 222.534C39.3806 222.534 39.2555 223.251 42.3241 223.71C45.3926 224.168 50.2123 222.101 51.0378 221.684C51.8633 221.267 51.955 220.425 48.9365 220.591C45.918 220.758 44.8506 220.766 44.8506 220.766L45.8346 218.156L40.7231 216.631Z" fill="#FFA8A7"/>
<path d="M34.4056 118.654L32.2793 118.062C32.2793 118.062 27.8349 132.129 27.3429 133.488C26.851 134.847 26.2923 136.281 27.2512 137.957C28.3936 139.95 34.4056 147.963 34.4056 147.963L38.2246 144.228L33.8886 136.29L37.7243 128.535L34.4056 118.654Z" fill="#F28F8F"/>
<path d="M56.2443 100.384C56.7428 99.4485 56.9958 98.4016 56.9798 97.3414C56.9637 96.2813 56.6791 95.2425 56.1526 94.3222C54.0346 90.3948 49.3151 88.4853 43.6949 89.2108C41.0933 89.5526 38.0248 91.7123 36.3488 94.9393C34.4976 98.5165 34.3225 105.721 33.8472 108.448L56.2443 100.384Z" fill="#37474F"/>
<path d="M56.3953 101.927C56.3953 101.927 57.7295 104.47 57.496 104.704C57.1502 104.906 56.7723 105.047 56.3787 105.121L56.3953 101.927Z" fill="#FFA8A7"/>
<path d="M52.3384 93.8886C53.7893 94.8309 56.2908 96.5653 56.3992 102.277C56.5159 108.114 55.6821 110.04 54.8149 110.716C54.2312 111.174 50.8041 110.941 49.3365 110.599C47.869 110.257 43.6414 108.164 42.1154 104.987C40.3227 101.251 40.6896 95.8148 43.3495 94.1471C44.7034 93.3465 46.2384 92.9028 47.8106 92.8576C49.3828 92.8124 50.9407 93.1672 52.3384 93.8886Z" fill="#FFA8A7"/>
<path d="M36.9389 137.682C34.3707 141.685 31.9358 145.187 31.4022 149.706C30.3015 159.204 33.9037 170.06 34.6792 177.09C33.2208 179.089 32.3802 181.472 32.261 183.944C32.261 186.854 36.9389 214.246 36.9389 214.246C36.9389 214.246 40.341 215.28 42.067 213.787L45.2773 163.398L43.6097 157.261L36.9389 137.682Z" fill="#0099FF"/>
<path opacity="0.2" d="M36.9389 137.682C34.3707 141.685 31.9358 145.187 31.4022 149.706C30.3015 159.204 33.9037 170.06 34.6792 177.09C33.2208 179.089 32.3802 181.472 32.261 183.944C32.261 186.854 36.9389 214.246 36.9389 214.246C36.9389 214.246 40.341 215.28 42.067 213.787L45.2773 163.398L43.6097 157.261L36.9389 137.682Z" fill="black"/>
<path d="M45.2773 163.398L43.6097 157.261C40.4166 156.42 37.3368 155.197 34.4374 153.617C34.4374 153.617 36.1718 156.777 41.1582 158.512L43.7347 166.391L43.9515 184.444L45.2773 163.398Z" fill="#0099FF"/>
<path opacity="0.3" d="M45.2773 163.398L43.6097 157.261C40.4166 156.42 37.3368 155.197 34.4374 153.617C34.4374 153.617 36.1718 156.777 41.1582 158.512L43.7347 166.391L43.9515 184.444L45.2773 163.398Z" fill="black"/>
<path d="M36.9416 137.682C35.5657 139.934 32.2804 143.769 32.9808 147.463C33.8147 151.933 36.2328 155.076 43.5873 157.261L50.4915 182.276C50.4915 182.276 46.8977 185.611 45.797 188.838C44.6963 192.065 40.7272 216.647 40.7272 216.647C40.7272 216.647 41.9613 218.657 45.8387 218.173C45.8387 218.173 59.3553 187.321 60.3059 185.311C61.4596 183.276 61.8638 180.901 61.4482 178.599C61.023 175.364 56.4452 139.95 56.4452 139.95L36.9416 137.682Z" fill="#0099FF"/>
<path opacity="0.2" d="M36.9416 137.682C35.5657 139.934 32.2804 143.769 32.9808 147.463C33.8147 151.933 36.2328 155.076 43.5873 157.261L50.4915 182.276C50.4915 182.276 46.8977 185.611 45.797 188.838C44.6963 192.065 40.7272 216.647 40.7272 216.647C40.7272 216.647 41.9613 218.657 45.8387 218.173C45.8387 218.173 59.3553 187.321 60.3059 185.311C61.4596 183.276 61.8638 180.901 61.4482 178.599C61.023 175.364 56.4452 139.95 56.4452 139.95L36.9416 137.682Z" fill="black"/>
<path d="M34.4068 118.654L51.584 115.877C51.9342 115.802 52.5012 115.66 53.2517 115.469C53.2517 115.469 53.9854 126.242 58.3965 128.71C58.2881 129.227 58.1964 129.802 58.113 130.461C57.8545 132.529 56.4453 139.917 56.4453 139.917C56.4453 139.917 49.7746 143.144 44.2962 141.585C38.8178 140.025 36.9667 137.699 36.9667 137.699L39.7101 133.229C38.9429 131.37 35.4908 123.899 34.4068 118.654Z" fill="#0099FF"/>
<path opacity="0.7" d="M34.4068 118.654L51.584 115.877C51.9342 115.802 52.5012 115.66 53.2517 115.469C53.2517 115.469 53.9854 126.242 58.3965 128.71C58.2881 129.227 58.1964 129.802 58.113 130.461C57.8545 132.529 56.4453 139.917 56.4453 139.917C56.4453 139.917 49.7746 143.144 44.2962 141.585C38.8178 140.025 36.9667 137.699 36.9667 137.699L39.7101 133.229C38.9429 131.37 35.4908 123.899 34.4068 118.654Z" fill="#FAFAFA"/>
<path d="M38.934 131.453C41.2152 132.823 43.6053 134.003 46.0801 134.98C43.8339 134.936 41.6349 134.328 39.6845 133.213L38.934 131.453Z" fill="#0099FF"/>
<path d="M52.7679 94.1722C52.7679 94.1722 53.6018 99.5922 51.6339 102.777C51.6339 102.777 50.9001 100.618 49.074 101.026C47.2479 101.435 47.1478 103.845 48.4319 105.196C48.7583 105.574 49.1849 105.854 49.6628 106.001C50.1407 106.149 50.6504 106.158 51.1336 106.029C51.1336 106.029 51.4254 109.948 51.5839 113.234C51.7423 116.519 52.6095 123.682 48.9155 126.575C45.2216 129.469 35.9493 130.486 31.605 124.416C29.1868 121.039 32.3971 115.068 33.8897 108.373C35.2655 102.219 36.041 93.0965 42.57 91.6289C49.099 90.1614 52.7679 94.1722 52.7679 94.1722Z" fill="#37474F"/>
<path d="M28.8085 20.1185L30.1844 20.9523C30.0689 20.4628 30.0046 19.9626 29.9926 19.4597C29.9926 16.6664 31.9521 15.5407 34.3702 16.9582C35.1062 17.4021 35.7628 17.9658 36.3131 18.6259C36.3131 14.8736 38.9481 13.3477 42.2001 15.2238C43.9137 16.3414 45.3398 17.8472 46.3626 19.619C47.3855 21.3909 47.9762 23.3789 48.087 25.4217C48.087 25.6135 48.087 25.797 48.087 25.9804C48.9247 25.875 49.7726 26.07 50.4801 26.5307C51.7543 27.361 52.8148 28.4801 53.5754 29.7971C54.336 31.114 54.7754 32.5918 54.8578 34.1104C54.8582 34.4634 54.8219 34.8155 54.7494 35.161L55.4832 35.5863C57.4761 36.737 59.0938 38.98 59.0938 40.5894C59.0938 42.1987 57.4761 42.5822 55.4832 41.4232L28.8002 26.0388C26.8073 24.8881 25.1896 22.645 25.1896 21.0357C25.1896 19.4264 26.8156 18.9594 28.8085 20.1185Z" fill="#EBEBEB"/>
</svg>
